<?xml version="1.0" encoding="utf-8"?>
<!-- Generator: Adobe Illustrator 16.0.0, SVG Export Plug-In . SVG Version: 6.00 Build 0)  -->
<!DOCTYPE svg PUBLIC "-//W3C//DTD SVG 1.1//EN" "http://www.w3.org/Graphics/SVG/1.1/DTD/svg11.dtd">
<svg version="1.1" id="Layer_1" xmlns="http://www.w3.org/2000/svg" xmlns:xlink="http://www.w3.org/1999/xlink" x="0px" y="0px"
	 width="1000px" height="547.419px" viewBox="0 0 1000 547.419" enable-background="new 0 0 1000 547.419" xml:space="preserve">
<g>
	<path fill-rule="evenodd" clip-rule="evenodd" fill="#333333" d="M653.498,27.282c-22.906-12.236-50.953-11.84-83.437,1.72
		c-19.073,8.053-38.021,19.727-56.311,34.318l-20.021,17.47l-70.122,54.935l-31.625,19.712c-2.919,0.659-6.152,0.858-9.314,0.673
		c-22.036,0.311-41.425-2.883-58.408-10.425c-16.282-7.015-32.164-18.35-47.186-34.321c-18.313-19.778-34.038-25.489-46.401-16.991
		l-17.659,15.508c-2.819,2.273-6.125,2.861-10.445,2.459l-15.168-4.411l-19.272-5.968c-7.728-1.432-15.038-0.791-22.008,2.315
		c-6.898,2.718-13.909,8.21-20.722,16.938c-4.695,5.922-10.805,15.181-18.334,27.771L93.481,174.84
		c-5.41,9.786-12.079,17.742-19.164,23.62l-23.711,17.984L26.005,237.06C7.917,254.884-0.658,275.274,0.04,297.381
		c0.341,13.251,6.55,27.189,17.995,40.897c9.87,11.421,21.961,21.652,36.196,31.085c14.622,9.502,25.924,23.986,34.221,43.905
		c4.777,10.874,7.623,21.394,8.608,31.165c3.459,26.614,10.74,45.55,21.843,56.794c18.984,18.307,39.302,27.267,60.637,26.425
		c21.792-1.155,44.604-12.112,67.972-32.558l20.336-17.009c6.341-4.02,12.006-6.567,17.243-6.795
		c10.088-0.528,24.468,8.131,43.211,25.592c22.804,21.408,44.437,36.208,64.196,43.866c23.552,8.761,47.133,8.735,71.373,0.838
		c18.33-6.19,34.302-21.213,47.213-45.594c3.677-6.91,9.146-12.688,16.399-17.338c3.593-2.133,10.633-5.623,20.664-10.157
		c17.071-8.026,48.622-5.773,93.81,6.996l89.369,20.162c31.265,3.794,56.263,0.436,74.995-10.078
		c19.648-11.144,30.425-28.328,31.873-51.234c0.486-9.103-0.455-21.266-2.971-35.716c-2.515-14.453-2.944-22.924-0.365-26.043
		c2.717-3.892,11.231-6.709,24.625-7.823l21.577,0.002c16.34,0.232,34.141-5.261,53.546-17.247
		c13.139-8.355,24.458-19.844,33.718-35.311c9.261-15.466,15.187-32.35,17.635-49.879c3.498-25.324-1.693-49.063-15.571-71.215
		c-15.277-23.212-35.121-36.881-59.677-40.233c-12.82-1.976-31.521-0.247-56.348,4.342l-51.871,10.366
		c-17.229,2.402-31.253,2.6-42.069,0.595c-17.384-3.222-32.151-11.952-44.369-25.805c-10.329-11.106-16.664-28.664-19.079-52.288
		C693.874,59.542,679.252,39.25,653.498,27.282z"/>
	<path fill-rule="evenodd" clip-rule="evenodd" fill="#003AA8" d="M743.512,147.462c-8.313-4.738-15.639-10.491-21.905-17.646
		c-11.902-13.395-19.369-29.164-22.329-47.694c-2.029-12.765-6.907-25.257-14.632-37.477c-7.869-11.449-15.923-19.735-24.308-24.087
		l-10.631-5.167l-0.387-0.072c-10.071-3.866-20.575-5.413-31.364-5.414l-25.384,3.288l-9.358,3.06l-6.438,2.404l-1.376,0.944
		l-1.688,0.487c-16.155,7.395-32.641,18.725-50.229,33.847l-4.193,3.22L509.1,66.854l-1.302,0.559l-9.847,12.161l-6.526,7.182
		l-25.214,15.308c12.793-10.816,26.018-23.949,40.515-39.645l20.021-17.468c18.359-14.979,36.849-26.337,56.311-34.319
		c32.099-13.632,59.756-14.1,83.437-1.719c25.366,11.894,39.602,32.114,43.09,60.733c2.413,23.624,8.75,41.183,19.079,52.288
		c12.073,14.626,26.911,22.97,44.368,25.806c10.745,2.391,24.769,2.193,42.069-0.597l51.799-9.979l56.807-4.658
		c24.556,3.354,44.013,16.95,59.218,40.548c13.879,22.152,19.527,45.576,16.102,70.516c-2.907,17.843-8.833,34.727-18.164,50.58
		c-9.188,15.081-20.509,26.569-33.574,34.537c-19.405,11.987-37.277,17.864-53.62,17.636l-21.574-0.005
		c-13.394,1.114-21.909,3.932-24.629,7.825c-2.577,3.117-2.146,11.59,0.368,26.041c2.518,14.453,3.847,26.688,3.357,35.787
		c-1.449,22.908-12.224,40.092-32.26,51.164c-18.273,10.199-43.658,13.487-75.382,10.004c-19.918-2.491-49.449-9.165-88.982-20.089
		c-45.258-12.384-76.81-14.633-93.809-6.996c-10.031,4.534-17.001,7.64-20.593,9.771c-7.327,5.034-12.793,10.816-16.474,17.727
		c-12.91,24.379-28.493,39.473-46.824,45.667c-24.628,7.823-48.522,7.392-71.688-1.298c-19.832-7.272-41.077-22-63.883-43.408
		c-18.671-17.848-33.436-26.576-43.596-25.663c-5.237,0.229-10.904,2.774-17.244,6.793l-20.334,17.012
		c-23.371,20.444-45.722,31.087-67.901,32.17c-21.406,1.229-41.796-7.346-60.323-25.965c-11.561-10.935-19.227-29.937-22.613-56.939
		c-1.057-9.387-3.903-19.904-8.537-31.553c-7.981-19.462-19.284-33.942-33.978-43.06c-14.237-9.433-26.326-19.664-36.126-31.471
		c-11.759-14.168-17.652-27.646-17.995-40.899c-0.698-22.106,7.876-42.496,25.651-60.779l25.302-20.086l22.939-18.125
		c7.469-5.809,14.139-13.763,19.937-23.478l13.196-25.926l18.262-27.383c6.813-8.728,13.896-14.609,20.793-17.327l22.395-2.242
		l18.887,5.898c7.125,2.519,12.004,4.224,14.781,4.337c4.249,0.788,8.013-0.113,10.831-2.389l17.73-15.894
		c12.752-8.427,28.477-2.714,46.788,17.063c15.023,15.971,30.446,27.622,46.729,34.634c16.981,7.544,36.757,10.809,58.793,10.499
		l19.06-3.661l-21.765,13.948l-0.387-0.071l-2.776-0.115L294.1,116.518l-10.615-9.56c-8.297-9.131-16.081-14.571-24.122-16.46
		l-1.159-0.214l-1.474-0.672l-4.007,0.056l-1.617,0.101l-0.771-0.144l-6.513,2.79l-14.382,12.917
		c-2.36,1.961-5.037,3.464-8.027,4.507l-10.017,0.142c-4.322-0.403-10.432-1.934-18.258-4.982l-0.386-0.071l-1.473-0.673
		l-1.476-0.674l-0.457,0.315l-20.333-4.568l-9.602,2.218c-5.523,1.772-10.774,6.394-16.601,14.106l-16.529,24.508
		c-15.301,24.337-28.711,40.633-40.159,48.501c-20.076,13.462-34.173,24.836-42.746,34.436
		c-14.64,16.469-22.397,34.611-22.43,54.185c-0.432,13.106,4.131,25.14,13.303,36.033c4.792,6.481,14.778,15.125,29.959,25.932
		l22.92,18.634c12.504,12.308,21.716,31.597,27.88,58.713c6.191,29.121,12.842,47.136,19.882,54.434l0.7,0.531l16.439,12.636
		l1.787,1.131l18.844,8.288l11.733,1.375l12.792-0.025c18.316-1.802,35.917-10.529,53.047-25.334l10.361-8.469l6.941-5.107
		l7.255-4.651c3.979-2.059,7.499-3.803,11.188-4.317l9.918-1.759l0.386,0.071l21.205,6.325l5.437,3.008l22.262,15.716l1.018,0.987
		c22.991,18.247,43.05,30.755,59.863,37.068l7.968,2.276l24.169,3.28l0.386,0.071l18.389-2.186l12.205-3.333
		c8.514-2.815,16.084-7.009,22.468-13.417c4.478-4.765,9.846-12.163,16.028-21.806c8.058-13.293,19.55-23.549,34.158-31.231
		l9.117-3.906c9.045-3.519,18.116-5.033,26.902-5.005l0.386,0.072l47.39,5.188l6.569,1.217l40.263,13.457
		c25.625,8.346,49.362,13.944,71.671,16.479l0.386,0.071c26.241,2.867,46.103,1.352,60.044-4.855l13.206-8.74
		c11.176-10.716,15.831-25.039,14.272-42.511l-2.958-18.529l-3.333-12.205l-2.701-22.081c0.2-7.554,2.119-13.591,5.825-18.5
		c3.249-4.593,7.9-8.125,14.339-10.528l5.067-1.459l18.601-3.347l0.387,0.071l19.717-0.741l3.55,0.259l0.387,0.071l0.457-0.315
		l19.259-0.425l4.079-0.444c8.616-1.199,16.286-3.772,23.155-8.495c11.232-6.709,20.505-15.78,28.665-27.454
		c8.301-12.448,13.582-25.854,15.844-40.22c3.308-22.164-0.378-43.227-10.534-63.892c-11.343-22.88-26.48-36.076-46.184-39.728
		l-4.252-0.787l-49.766,1.166l-51.729,9.593l-3.692,0.514l-25.168,2.129L743.512,147.462z"/>
	<path fill-rule="evenodd" clip-rule="evenodd" fill="#66CCFF" d="M211.396,109.98L211.396,109.98z M617.957,9.906L617.957,9.906z
		 M649.708,15.392l4.736,2.476l4.35,2.405l1.158,0.214c8.385,4.352,16.439,12.638,24.308,24.087
		c7.725,12.22,12.604,24.713,14.632,37.477c3.347,18.602,10.813,34.371,22.258,48.081l1.402,1.06l6.095,5.925l0.315,0.458
		l5.923,4.695c2.489,1.661,5.365,3.391,8.628,5.194l47.547,10.811l25.168-2.129l3.692-0.514l51.729-9.593l49.766-1.166l3.793,1.102
		c19.773,3.266,34.913,16.461,46.255,39.342c10.157,20.665,13.844,41.728,10.536,63.891c-2.264,14.365-7.544,27.771-15.845,40.221
		c-8.157,11.674-17.432,20.745-28.664,27.454c-6.87,4.723-14.611,7.683-23.229,8.881l-1.155-0.214l-2.465,0.344l-19.259,0.427
		l-0.457,0.313l-0.387-0.071l-3.55-0.259l-19.717,0.741l-0.387-0.071l-18.601,3.347l-5.067,1.459c-2.145,0.8-4.291,1.602-6.123,2.86
		l-5.426,3.391l0.315,0.457l-0.459,0.315l-1.371,0.944l-0.53,0.701l-1.132,1.788c-3.634,4.521-5.624,10.946-5.825,18.5l2.701,22.081
		l3.331,12.203l3.347,18.603c1.171,17.4-3.483,31.724-14.658,42.439l-1.444,1.328l-6.872,4.723l-4.504,2.763
		c-13.941,6.205-33.803,7.721-60.044,4.854l-0.386-0.071c-22.309-2.535-46.046-8.134-71.671-16.479l-40.263-13.457l-6.569-1.217
		l-47.39-5.188l-0.386-0.072c-8.786-0.028-17.858,1.486-26.902,5.005l-3.062,1.432l-5.281,2.617l-0.774-0.143
		c-14.993,7.611-26.559,18.255-34.615,31.546c-6.185,9.645-11.479,16.655-15.959,21.418c-6.382,6.408-14.024,10.986-22.925,13.731
		l-11.36,3.092l-18.389,2.186l-0.386-0.071l-24.169-3.28l-7.968-2.276c-16.813-6.313-36.872-18.821-59.863-37.068l-1.018-0.987
		l-22.262-15.716l-5.437-3.008l-21.205-6.325l-0.386-0.071l-9.918,1.759c-3.689,0.515-7.21,2.259-11.188,4.317l-4.895,2.691
		l-2.36,1.96l-6.941,5.107l-5.953,4.089l-1.374,0.944l-1.373,0.946l-2.433,2.347c-17.13,14.805-34.732,23.532-52.661,25.405
		l-12.406,0.097l-11.733-1.375l-18.844-8.288l-1.787-1.131l-16.439-12.636l-0.7-0.531c-7.04-7.298-13.69-25.313-19.882-54.434
		c-6.164-27.116-15.376-46.405-27.88-58.713l-22.92-18.634c-15.181-10.807-25.167-19.45-29.959-25.932
		c-9.172-10.894-13.734-22.927-13.303-36.033c0.032-19.574,7.79-37.716,22.43-54.185c8.573-9.599,22.67-20.973,42.746-34.436
		c11.448-7.868,24.858-24.164,40.159-48.501l16.529-24.508c5.826-7.712,11.077-12.333,16.601-14.106l9.602-2.218l20.333,4.568
		l0.457-0.315l1.474,0.673l1.475,0.674l0.386,0.071c7.826,3.048,13.936,4.581,18.258,4.982l10.017-0.142
		c2.99-1.043,5.667-2.546,8.027-4.507l14.382-12.917l6.513-2.79l0.771,0.144l5.624-0.156l1.474,0.672l0.772,0.143
		c8.041,1.889,15.825,7.328,24.123,16.46l5.465,5.007l5.536,4.624l95.694,31.322l2.776,0.115l0.387,0.071l21.765-13.948l15.17-6.38
		c11.09-5.937,23.453-14.433,36.319-25.636l25.214-15.308l6.526-7.182l9.847-12.161l1.302-0.559l10.189-9.699l4.193-3.22
		c17.588-15.122,34.073-26.452,50.229-33.847l1.688-0.487l1.376-0.944l6.438-2.404l9.358-3.06l25.384-3.288
		c10.789,0.001,21.293,1.548,31.364,5.414L649.708,15.392z"/>
	
		<path fill="none" stroke="#000000" stroke-width="7.0724" stroke-linecap="round" stroke-linejoin="round" stroke-miterlimit="10" d="
		M871.648,146.037l-51.729,9.593l-3.692,0.514l-25.168,2.129l-47.547-10.811 M804.566,464.874l4.504-2.763l6.872-4.723l1.444-1.328
		c11.175-10.716,15.829-25.039,14.658-42.439l-3.347-18.603l-3.331-12.203l-2.701-22.081c0.201-7.554,2.191-13.979,5.825-18.5
		l1.132-1.788l0.53-0.701l1.371-0.944l0.459-0.315l-0.315-0.457l5.426-3.391c1.832-1.259,3.979-2.061,6.123-2.86l5.067-1.459
		l18.601-3.347l0.387,0.071l19.717-0.741l3.55,0.259l0.387,0.071l0.457-0.313l19.259-0.427l2.465-0.344l1.155,0.214
		c8.617-1.198,16.358-4.158,23.229-8.881c11.232-6.709,20.507-15.78,28.664-27.454c8.301-12.449,13.581-25.855,15.845-40.221
		c3.308-22.164-0.379-43.227-10.536-63.891c-11.342-22.881-26.481-36.076-46.255-39.342l-3.793-1.102 M345.187,470.443l1.018,0.987
		c22.991,18.247,43.05,30.755,59.863,37.068l7.968,2.276l24.169,3.28l0.386,0.071l18.389-2.186l11.36-3.092
		c8.9-2.745,16.543-7.323,22.925-13.731c4.479-4.763,9.774-11.773,15.959-21.418c8.057-13.291,19.622-23.935,34.615-31.546
		l0.774,0.143l5.281-2.617l3.062-1.432c9.044-3.519,18.116-5.033,26.902-5.005l0.386,0.072l47.39,5.188l6.569,1.217l40.263,13.457
		c25.625,8.346,49.362,13.944,71.671,16.479l0.386,0.071 M267.537,456.051l2.36-1.96l4.895-2.691
		c3.979-2.059,7.499-3.803,11.188-4.317l9.918-1.759l0.386,0.071l21.205,6.325 M172.662,493.611l11.733,1.375l12.406-0.097
		c17.929-1.873,35.531-10.601,52.661-25.405l2.433-2.347l1.373-0.946l1.374-0.944l5.953-4.089 M251.106,89.768l-0.771-0.144
		l-6.513,2.79l-14.382,12.917c-2.36,1.961-5.037,3.464-8.027,4.507l-10.017,0.142c-4.322-0.401-10.432-1.934-18.258-4.982
		l-0.386-0.071l-1.475-0.674l-1.474-0.673l-0.457,0.315l-20.333-4.568l-9.602,2.218c-5.523,1.772-10.774,6.394-16.601,14.106
		l-16.529,24.508c-15.301,24.337-28.711,40.633-40.159,48.501c-20.076,13.462-34.173,24.836-42.746,34.436
		c-14.64,16.469-22.397,34.611-22.43,54.185c-0.432,13.106,4.131,25.14,13.303,36.033c4.792,6.481,14.778,15.125,29.959,25.932
		l22.92,18.634c12.504,12.308,21.716,31.597,27.88,58.713c6.191,29.121,12.842,47.136,19.882,54.434l0.7,0.531 M491.425,86.755
		l-25.214,15.308l-51.489,32.016l-21.765,13.948l-0.387-0.071l-2.776-0.115L294.1,116.518l-5.536-4.624l-5.465-5.007
		c-8.298-9.132-16.082-14.571-24.123-16.46l-0.772-0.143 M617.957,9.906L617.957,9.906l-25.384,3.288l-9.358,3.06l-6.438,2.404
		l-1.376,0.944l-1.688,0.487c-16.155,7.395-32.641,18.725-50.229,33.847l-4.193,3.22L509.1,66.854l-1.302,0.559 M649.708,15.392
		l-0.387-0.072 M649.708,15.392l4.736,2.476l4.35,2.405l1.158,0.214c8.385,4.352,16.439,12.638,24.308,24.087
		c7.725,12.22,12.604,24.713,14.632,37.477c3.347,18.602,10.813,34.371,22.258,48.081l1.402,1.06l6.095,5.925l0.315,0.458
		l5.923,4.695c2.489,1.661,5.365,3.391,8.628,5.194"/>
	<path fill-rule="evenodd" clip-rule="evenodd" fill="#66CCFF" d="M721.149,130.131c22.547,24.959,55.342,33.434,98.771,25.5
		l51.729-9.593c22.08-2.701,40.108-2.956,53.559-0.064c19.773,3.266,34.913,16.461,46.255,39.342
		c10.157,20.665,13.844,41.728,10.536,63.891c-2.264,14.365-7.544,27.771-15.845,40.221c-8.157,11.674-17.432,20.745-28.664,27.454
		c-6.87,4.723-14.611,7.683-23.229,8.881l-23.723,0.799c-10.329-0.317-18.343-0.203-23.653,0.411
		c-19.402,1.199-32.353,6.393-38.394,15.263c-3.634,4.521-5.624,10.946-5.825,18.5l2.701,22.081l3.331,12.203l3.347,18.603
		c1.171,17.4-3.483,31.724-14.658,42.439c-13.68,13.448-38.123,18.108-73.25,13.596c-22.309-2.535-46.046-8.134-71.671-16.479
		l-40.263-13.457c-17.558-4.453-35.544-6.588-54.345-6.477c-11.562-0.145-23.696,2.803-36.02,8.911
		c-14.995,7.609-26.559,18.255-34.615,31.546c-6.185,9.645-11.479,16.655-15.959,21.418c-6.382,6.408-14.024,10.986-22.925,13.731
		c-20.862,6.925-41.598,6.678-62.272-0.351c-16.813-6.313-36.871-18.821-59.862-37.068c-20.817-17.045-37.586-25.749-50.307-26.107
		c-12.793,0.025-28.247,7.951-46.436,24.161c-17.13,14.805-34.732,23.532-52.661,25.405c-22.395,2.242-42.926-5.562-61.91-23.864
		c-7.04-7.298-13.69-25.313-19.882-54.434c-6.164-27.116-15.376-46.405-27.88-58.713l-22.92-18.634
		c-15.181-10.807-25.167-19.45-29.959-25.932c-9.172-10.894-13.734-22.927-13.303-36.033c0.032-19.574,7.79-37.716,22.43-54.185
		c8.573-9.599,22.67-20.973,42.746-34.436c11.448-7.868,24.858-24.164,40.159-48.501l16.529-24.508
		c5.826-7.712,11.077-12.333,16.601-14.106c7.814-3.347,18.774-2.116,33.34,3.382l18.644,5.053
		c6.64,0.831,12.864-0.414,18.044-4.649l14.382-12.917c3.735-2.905,8.658-3.59,15.154-1.987c8.041,1.889,15.825,7.328,24.123,16.46
		c26.753,28.135,63.396,41.72,109.472,41.068c32.896-0.696,71.434-27.519,115.227-80.542c27.148-25.738,52.264-42.661,75.417-51.159
		c27.06-10.169,52.356-8.677,76.737,4.233c8.385,4.352,16.439,12.638,24.308,24.087c7.725,12.22,12.604,24.713,14.632,37.477
		C702.238,100.652,709.705,116.421,721.149,130.131z"/>
	<path fill-rule="evenodd" clip-rule="evenodd" fill="#98FCFB" d="M317.908,132.518c21.19,10.721,46.16,16.147,74.663,15.437
		l18.144-3.031l-1.131,1.789c-22.025,28.285-29.142,53.739-21.03,76.821c3.376,9.818,10.155,20.664,20.271,32.929l33.334,35.748
		c15.725,16.502,24.949,31.397,28.454,44.833c2.173,11.991-0.818,23.827-8.591,35.571c-6.427,8.801-17.461,18.743-33.63,30.531
		l-47.31,33.188c-15.57,10.703-26.647,23.037-32.774,36.687l-2.103-1.589c-13.492-11.292-25.311-18.678-35.384-22.542l17.588-15.121
		c19.35-15.995,32.815-28.284,39.872-36.17c11.29-13.49,16.044-26.195,13.869-38.187c-2.443-14.838-13.674-29.71-34.463-44.751
		l-44.968-35.506c-13.421-11.678-22.133-22.882-26.667-32.915c-5.864-11.477-7.193-23.712-4.301-37.161
		c3.278-13.379,11.451-29.446,24.06-47.889L317.908,132.518z M43.377,223.095c8.573-9.599,22.67-20.973,42.746-34.436l6.555-5.178
		l16.567,16.257l4.937,5.711c2.519-7.126,6.869-15.509,12.91-24.381c10.419-15.252,29.424-33.708,56.942-54.981l22.196-16.266
		l5.165,0.159c6.64,0.831,12.864-0.414,18.044-4.649l14.382-12.917c3.735-2.905,8.658-3.59,15.154-1.987
		c8.041,1.889,15.825,7.328,24.123,16.46c9.384,9.73,20.216,18.131,32.563,24.815l-13.152,12.747
		c-32.4,30.359-53.396,55.239-62.142,74.398c-13.024,27.156-11.325,54.642,5.413,82.921l15.105,21.98
		c4.722,6.869,7.269,12.536,7.782,16.227c1.072,4.993-0.244,9.946-4.022,15.238c-3.78,5.296-11.321,11.489-22.311,19.042
		l-21.65,11.173l-22.353,10.643c-17.604,8.726-28.636,18.67-33.031,29.442c-4.923,11.476-3.595,23.71,4.76,36.845l29.2,32.187
		l-2.461,0.345c-22.395,2.242-42.926-5.562-61.91-23.864c-7.04-7.298-13.69-25.313-19.882-54.434l-5.836-20.263l1.589-2.104
		l26.417-17.482l27.188-17.336c9.302-7.069,15.756-13.863,19.822-20.702c7.814-14.137,5.999-28.059-6.147-42.298l-19.056-17.918
		l-20.603-18.205l-0.702-0.528c-1.289,6.952-4.123,13.621-8.574,20.389c-6.813,8.727-17.988,19.444-33.773,31.304l-35.718,24.546
		c-12.62-9.531-21.204-17.114-25.366-22.681l-2.904-3.736l3.95-4.063c10.905-13.563,15.657-26.27,14.327-38.503
		c-1.757-9.915-7.522-19.776-17.294-29.579L43.377,223.095z M908.4,200c8.615-11.99,22.828-26.139,42.705-42.833
		c7.954,6.667,14.563,16.287,20.356,28.148c10.157,20.665,13.844,41.728,10.536,63.891c-2.264,14.365-7.544,27.771-15.845,40.221
		l-14.785,17.24l-10.228-9.489l-21.134-17.502c-15.937-15.342-24.435-27.708-25.735-37.938
		C892.268,230.978,896.851,217.042,908.4,200z M718.478,202.763c2.533-11.517,10.835-23.966,25.604-36.813l14.237-12.146l61.6,1.827
		l46.665-8.134c-21.213,26.038-35.553,47.357-42.493,63.252c-12.325,27.686-13.86,55.373-4.364,83.907
		c5.88,17.873,9.941,32.611,12.256,43.83l-3.492,3.749c-3.634,4.521-5.624,10.946-5.825,18.5l2.701,22.081l2.046,8.368
		c-3.438,7.756-8.801,15.152-15.473,23.107c-9.246,11.074-23.24,24.065-41.602,39.044l-18.332,16.98l-7.87-0.659
		c-16.827-1.92-34.914-5.672-53.486-11.11l19.766-24.709l32.157-41.992c10.104-15.709,16.832-30.445,19.867-44.67
		c2.766-17.069,1.137-34.156-4.885-51.254l-12.116-23.026l-14.262-22.224C719.817,232.182,715.584,216.212,718.478,202.763z
		 M686.49,60.569c7.838,20.235,9.924,37.005,6.332,49.926c-4.482,15.553-18.379,30.16-42.075,43.75l-30.452,15.535
		c-12.321,6.108-21.796,11.944-28.349,17.124c-18.29,14.592-25.646,28.414-21.828,42.308c1.83,9.529,10.785,21.579,26.724,36.922
		c17.97,17.315,29.315,29.408,33.507,36.978c8.841,14.826,8.823,30.008-0.751,45.016c-7.099,10.272-17.675,19.9-31.727,28.885
		l-36.307,21.246c-12.221,7.725-19.275,15.606-22.01,23.891c-2.305,5.967-1.976,12.82,0.142,20.805
		c-12.008,6.567-21.596,15.18-29.083,25.381l-15.308-14.426l-15.765-14.112c-4.235-5.181-6.152-9.929-5.607-15.022
		c0.758-6.253,4.581-13.938,12.236-22.908c4.552-5.15,10.792-10.787,18.72-16.911l21.766-13.948
		c17.401-11.96,28.021-23.975,31.784-35.668c3.954-14.853,0.979-28.988-9.235-42.869c-4.091-5.954-15.651-16.888-34.538-33.575
		c-14.679-13.51-23.706-25.173-27.081-34.989c-5.364-14.18-1.797-29.105,10.453-45.616c5.896-8.097,18.347-21.374,37.882-40.531
		c16.257-16.566,27.692-30.831,34.232-42.407c9.475-16.625,13.197-36.714,10.712-59.952l-2.788-17.299l5.139-1.847
		c27.06-10.169,52.356-8.677,76.737,4.233l8.486,5.969C675.431,36.144,681.298,47.62,686.49,60.569z"/>
	<path fill-rule="evenodd" clip-rule="evenodd" fill="#003AA8" d="M947.195,365.834l-8.33-82.265l-128.065,1.04l-86.711-6.48
		l-52.644,10.223l-70.157,3.381l-128.351-8.203l-108.849,3.003l-2.65,25.082l5.977,30.279l-12.9,52.354
		c8.771,4.422,17.228,8.389,25.298,12.28l127.361,9.22l107.604,1.562l96.601-8.068c-4.809-2.092-7.955-6.67-10.357-13.109
		c-2.158-5.594,2.32-10.358,13.365-13.908l12.021-0.168l6.867,6.067l12.937-0.798c5.035-3.463,8.729-3.978,11.919-1.788
		c8.099,5.896,9.727,12.192,4.82,19.274l5.621-0.155l161.707,7.191L947.195,365.834z"/>
	<path fill-rule="evenodd" clip-rule="evenodd" fill="#003AA8" d="M423.3,184.819c-10.702-4.781-18.987-7.514-25.769-7.574
		c-10.402,0.071-15.728,5.077-15.586,15.094c0.058,4.007,4.12,7.957,12.647,11.536l18.529,7.83c5.822,3.077,9.715,5.797,11.531,8.93
		c1.288,3.836,2.188,7.599,2.074,10.375c-0.015,4.392-1.36,7.339-4.181,9.615c-2.575,3.118-6.023,4.477-10.489,4.849l-34.584,1.182
		l0.475-15.497l21.005,3.094c12.406-0.099,18.675-3.731,18.875-11.287c-0.057-4.007-3.734-7.885-11.03-11.636l-16.669-7.085
		c-5.579-2.232-9.086-4.881-10.516-7.944c-1.917-4.75-3.062-9.357-3.046-13.75c0.058-6.784,2.148-11.589,6.584-13.963l13.923-1.817
		l26.942,3.396L423.3,184.819z M429.915,162.069l-32.81-4.083l-18.002,2.257l-0.071,0.386c-7.498,3.807-10.861,11.175-10.863,21.964
		c0.014,6.396,0.943,12.161,3.175,17.37c2.302,4.823,7.138,8.916,14.821,12.736l16.67,7.086l5.822,3.078
		c-0.744,1.86-3.663,2.517-9.674,2.602c-7.167-0.13-15.28-1.634-23.952-4.439l-5.723-1.46l-1.18,36.544l44.287-1.782
		c6.396-0.013,12.063-2.559,16.471-6.937c4.336-3.992,6.569-9.571,6.628-16.354c0.015-4.393-1.131-9-3.047-13.751
		c-2.231-5.208-7.381-9.76-15.522-13.266l-18.772-8.675c-3.02-0.959-5.194-2.161-6.911-3.677c0.259-3.55,2.62-5.51,6.625-5.566
		c6.784,0.057,15.769,3.322,27.803,9.548l6.208,3.149l1.353-35.315L429.915,162.069z"/>
	<path fill-rule="evenodd" clip-rule="evenodd" fill="#003AA8" d="M485.054,213.847l-0.059,6.783l-7.771,0.958l-3.863-0.717
		l-0.414-2.074l-1.102-6.997l0.645-3.478l7.384-1.029l5.022,0.931L485.054,213.847z M491.666,201.886
		c-2.346-2.433-6.451-3.994-11.688-3.765l-12.837,2.416c-2.746,1.887-4.236,5.608-4.08,11.231l0.429,8.472l2.017,6.368
		c3.048,2.962,6.769,4.451,11.619,4.152l11.146-1.931c4.223-1.216,6.312-6.022,6.026-15.266c-0.013-6.396-0.527-10.088-2.244-11.605
		L491.666,201.886z"/>
	<path fill-rule="evenodd" clip-rule="evenodd" fill="#003AA8" d="M452.131,190.962l-11.676,2.631l-1.445,1.331l0.267,35.214
		c0.254,18.029-0.277,29.519-0.821,34.613l-1.317,4.951l23.968,0.047l-0.381-32.438l20.762,2.249l17.615-2.331
		c2.918-0.657,5.107-3.848,5.652-8.942l0.674-12.261c0.074-11.177-1.799-18.315-6.078-21.107
		c-4.978-3.321-14.636-5.111-29.432-5.057L452.131,190.962z M469.817,199.035c12.019-0.171,20.203,0.947,24.554,3.353
		c1.787,1.129,2.545,5.665,2.273,13.607l-0.46,11.104l-1.132,1.789l-13.393,1.115l-24.697-2.58l-6.353-2.377l1.355,35.816
		l-4.394-0.016l0.877-30.606l-0.496-29.662l4.923-0.688L469.817,199.035z"/>
	<path fill-rule="evenodd" clip-rule="evenodd" fill="#003AA8" d="M524.047,197.497c-1.66,2.49-2.763,6.281-2.605,11.904l1.701,16.7
		c1.558,6.682,4.075,10.345,6.708,11.232c3.262,1.804,6.354,2.377,9.202,2.104c7.554,0.203,11.819-3.403,13.179-10.744l0.388,0.071
		l2.991-22.622c-0.184-7.626-3.088-11.361-8.711-11.205l-14.968-1.176C527.541,193.749,524.936,194.865,524.047,197.497z
		 M546.167,203.195l0.273,2.847l-2.853,21.85c-0.744,1.86-2.045,2.417-4.434,2.374l-5.41-1.002l-1.459-5.066l-1.6-15.081
		l0.371-6.325l7.943,0.273L546.167,203.195z"/>
	<path fill-rule="evenodd" clip-rule="evenodd" fill="#003AA8" d="M560.608,194.283c2.562,1.273,3.634,6.267,3.676,14.668
		c0.184,7.625-0.861,15.423-2.994,22.622c-1.748,7.268-3.908,12.462-7.4,16.21c-3.106,3.819-8.629,5.594-16.184,5.393l-10.889-1.619
		c-2.635-0.888-4.035-1.948-4.352-2.404l-3.559-17.443c-1.202-8.614-2.158-16.384-2.172-22.781
		c0.059-6.783,0.459-11.104,1.905-12.433c4.191-3.22,11.261-4.706,21.663-4.776l14.195,1.032L560.608,194.283z M540.334,182.933
		c-13.18-0.045-22.396,2.244-27.646,6.864c-3.349,2.977-5.268,9.014-5.125,19.03c-0.06,6.783,0.827,14.939,2.271,24.398l4.19,18.358
		c1.286,3.835,4.793,6.482,9.601,8.573l13.979,2.191c10.403-0.069,18.072-2.645,23.153-8.496c3.564-4.135,6.396-10.803,9.275-19.859
		c1.89-8.041,3.079-16.613,3.038-25.012c0.145-11.562-2.503-18.843-7.409-22.552l-9.902-2.633L540.334,182.933z"/>
	<path fill-rule="evenodd" clip-rule="evenodd" fill="#003AA8" d="M602.589,198.467l4.137-7.225l-29.292,4.961l0.185,7.625
		l-4.926,33.053l-5.871,31.679l34.412-2.414l0.307-38.305l6.854-0.328l0.84,32.123c0.129,3.621,3.005,5.352,8.628,5.196
		l12.621-1.257c2.917-0.657,4.551-5.15,5.739-13.721l2.178-20.376c0.145-11.562-2.115-18.774-6.007-21.491
		c-2.875-1.733-8.142-3.508-15.48-4.868l-14.122-1.419L602.589,198.467z M593.474,202.373l-0.273,7.941l5.166,0.157l16.97,1.149
		l11.376,3.307c1.716,1.517,2.403,6.438,2.445,14.837l-1.893,18.832l-0.832,6.639l-8.084,0.499l-1.783-33.498l-0.371-4.464
		l-20.634,1.371l-1.203,2.174c-1.13,1.788-1.674,6.883-1.946,14.824l-0.777,21.436l-13.779,1.042l4.109-20.017l5.286-34.985
		L593.474,202.373z"/>
	<path fill-rule="evenodd" clip-rule="evenodd" fill="#003AA8" d="M671.416,193.642l12.264,0.674
		c2.004-0.028,3.906-1.674,5.008-5.465l10.188,1.088l-1.445,12.118l-1.494,25.299l0.455,21.263l-1.605,17.286l-20.748,4.146
		l-20.461,2.601l-0.975-3.377l-1.113-13.394l0.5-2.704l5.798,1.075l3.862,0.715l-0.603,1.086l-1.344,2.948l-1.618,0.1l-0.4,4.322
		c-0.115,2.776,1.602,4.293,5.853,5.081l3.934,0.329c10.789,0.001,17.156-2.015,18.259-5.806c1.775-5.266,2.679-12.292,2.637-20.691
		c-0.157-5.622-1.658-8.298-4.821-8.486l-18.659-0.661l-10.503-1.547c-2.976-3.348-4.648-7.255-5.019-11.72
		c-0.158-5.622,2.262-14.365,6.558-26.755l4.219-1.216L671.416,193.642z M647.635,190.433c-4.438,13.165-7.071,23.064-7.058,29.462
		c-0.06,6.781,2.486,12.448,6.793,17.243c2.274,2.818,7.928,4.666,17.413,5.226l14.338,0.258l-1.778,16.055l-7.769,0.958
		l2.734-8.285l-0.127-3.621l-18.158-3.365l-9.001,1.129l-0.386-0.071c-1.203,2.174-1.848,5.651-1.933,10.431l1.141,15.397
		l2.36,8.829l3.576,2.261l25.456-3.674c16.069-2.616,24.899-4.975,25.715-7.222c2.891-2.662,4.322-10.388,4.611-22.722
		l-0.842-21.334l1.592-23.682l2.38-17.141l-0.201-3.234l-2.634-0.887l-20.763-2.25c-2.774-0.114-4.363,1.99-5.008,5.465
		l-19.917-2.491C653.388,183.107,648.954,185.482,647.635,190.433z"/>
	<path fill-rule="evenodd" clip-rule="evenodd" fill="#003AA8" d="M672.643,215.047c-0.012-6.396,0.704-10.258,2.148-11.59
		l2.848-0.27l0.527,20.875l0.029,2.004l-2.95-1.346l-1.474-0.672C673.043,221.515,672.773,218.668,672.643,215.047z
		 M668.068,196.616l-0.144,0.773c-2.434,2.347-3.965,8.456-4.067,17.628c0.229,5.238,0.601,9.702,1.888,13.537l0.802,2.146
		l0.7,0.531l4.422,2.018l11.588,2.148l0.774,0.143c2.776,0.115,4.292-1.603,4.093-4.837l-1.658-8.299
		c-0.514-3.691-0.528-10.088-0.04-19.189c0.257-3.548-0.013-6.396-0.959-7.769l-1.4-1.058l-2.003,0.027l-13.537,1.887
		L668.068,196.616z"/>
	<path fill-rule="evenodd" clip-rule="evenodd" fill="#003AA8" d="M729.467,195.209c-7.554-0.201-11.848,1.401-13.193,4.349
		l-1.002,5.409l0.271,2.847l0.171,1.23c0.658,2.921,1.459,5.066,2.404,6.44c1.573,2.291,5.364,3.392,10.601,3.163l11.005-1.157
		c5.522-1.773,8.271-3.662,9.088-5.909l1.36-7.34c0.113-2.776-1.145-4.607-2.935-5.739l-7.511-2.59L729.467,195.209z
		 M738.008,205.184l3.164,0.186l-0.502,2.705l-2.92,0.657l-9,1.129l-3.163-0.187l-1.215-4.222l-0.173-1.23l5.166,0.159
		L738.008,205.184z"/>
	<path fill-rule="evenodd" clip-rule="evenodd" fill="#003AA8" d="M761.676,200.38l1.902,9.143l-0.845,0.243l-0.071,0.386
		l-7.527,1.802l-24.469,2.658l-10.717-0.387l-0.329,3.934l-0.044,2.391c0.041,8.399,0.655,13.708,2.158,16.383l1.502,2.677
		l19.044,0.73l3.236-0.198l0.385,0.071c2.848-0.27,4.364-1.987,4.235-5.607l0.071-0.387l9.703-0.6l-2.992,11.833l-17.258,0.399
		c-12.018,0.17-19.045-0.734-20.689-2.637c-1.188-2.219-1.731-7.912-2.017-17.157l1.164-21.363l3.135-12.605
		c1.661-2.49,7.427-3.418,17.442-3.561l19.919,2.493L761.676,200.38z M770.362,198.792c-1.901-9.142-4.52-14.422-8.312-15.525
		l-23.324-3.524c-13.25,0.342-21.304,2.844-24.941,7.366c-1.802,3.262-3.191,8.6-4.236,16.397l-1.376,22.521
		c-0.146,11.562,0.883,18.946,3.086,22.15c3.535,4.652,12.735,6.757,28.302,6.844l24.498-0.654l6.701-27.528l-3.722-1.49
		l-6.567-1.217l-16.239,1.387c-2.776-0.116-4.295,1.601-4.553,5.15l0.631,0.917l-11.034-0.847l-0.713-6.926l2.003-0.028
		l26.929-3.001c7.985-2.116,12.665-3.646,14.183-5.363l0.071-0.386l0.958-3.019l-1.372-9.844L770.362,198.792z"/>
	<path fill-rule="evenodd" clip-rule="evenodd" fill="#003AA8" d="M802.831,189.626l0.844-0.244l1.014,11.776l-0.442,6.711
		l-2.849,0.27l-2.776-0.114l-0.257-18.029L802.831,189.626z M810.759,183.502c-1.188-2.218-3.821-3.105-7.826-3.049l-13.78,1.043
		l0.266,35.214l11.875,0.602c4.782,0.087,8.159-0.886,10.134-2.917c1.129-1.789,1.988-6.424,2.047-13.207
		c-0.285-9.245-0.827-14.938-2.33-17.615L810.759,183.502z"/>
	<path fill-rule="evenodd" clip-rule="evenodd" fill="#003AA8" d="M825.196,185.38l2.06,3.977l0.614,5.308l0.244,0.846l-1.233,10.96
		l-1.245,4.565c-8.2,3.275-14.109,4.978-17.657,4.719l-1.333,9.345l9.973,2.247l11.86,4.996c2.161,5.596,3.335,12.207,3.59,19.448
		l0.287,9.243l-48.868,4.929l1.658-84.41l20.634-1.368l12.72,0.359l2.877,1.731L825.196,185.38z M820.075,172.042l-14.267-0.645
		l-25.871,1.599l-3.835,1.287l-1.33,102.049l66.938-7.573l-0.785-17.327c-0.599-9.703-2.329-17.615-4.731-24.054l-0.56-1.304
		l-1.156-0.214l-9.401-5.337l5.451-1.388l0.988-1.016l0.143-0.772c2.049-2.418,3.392-5.366,4.107-9.23l0.99-11.805l-0.099-1.616
		l-0.715-6.926c-1.145-4.606-2.89-8.126-5.309-10.174l-4.206-3.178L820.075,172.042z"/>
	<path fill-rule="evenodd" clip-rule="evenodd" fill="#003AA8" d="M793.923,235.527l12.191,1.062l14.052,1.804l0.613,5.308
		l-0.357,1.932l-26.572,1.069L793.923,235.527z M804.152,255.805l21.863-1.543l4.534-0.758l-2.6-20.462l-0.555-1.301l-1.161-0.215
		l-18.787-4.279l-22.523-1.378l-0.275,29.52L804.152,255.805z"/>
	<path fill-rule="evenodd" clip-rule="evenodd" fill="#003AA8" d="M876.589,212.087l-2.376,17.143
		c-0.287,1.545-1.59,2.103-3.593,2.131l-5.869-0.688l-1.529-4.68l-0.698-11.318l0.544-5.094l0.458-0.315l13.034,0.818
		L876.589,212.087z M863.243,200.023c-4.008,0.057-6.61,1.172-7.813,3.347c-1.276,2.562-1.992,6.424-2.077,11.203
		c0.226,5.237,0.527,10.088,1.429,13.851c1.702,5.912,3.447,9.431,6.078,10.317l9.73,1.405c7.168,0.13,11.361-3.089,12.437-8.884
		l2.735-19.074c0.131-7.167-2.773-10.902-8.011-10.675L863.243,200.023z"/>
	<path fill-rule="evenodd" clip-rule="evenodd" fill="#003AA8" d="M850.891,204.128c3.277-2.59,10.274-3.69,20.291-3.832
		l13.421,0.889l5.724,1.462c2.248,0.814,3.534,4.65,3.478,11.433c0.082,6.01-1.134,12.577-3.122,19.002
		c-1.532,6.11-3.938,10.46-6.37,12.806c-3.035,3.432-8.172,5.278-15.727,5.077l-10.432-1.934c-1.932-0.358-3.404-1.03-3.718-1.487
		l-3.293-14.597l-1.727-18.701C849.259,208.62,849.903,205.144,850.891,204.128z M840.246,214.143l1.827,20.318
		c1.343,7.841,2.733,13.294,3.774,16.285c1.43,3.063,4.549,5.638,9.501,6.957l13.208,2.047c9.63-0.213,16.842-2.474,21.779-7.551
		c3.879-3.678,6.883-9.115,9.547-17.012c1.604-6.497,2.506-13.521,2.706-21.078c-0.068-10.402-2.858-16.913-7.524-19.776
		l-9.199-2.105l-14.651-0.718c-12.337-0.287-21.094,1.687-25.888,5.993C842.122,199.705,840.274,205.356,840.246,214.143z"/>
	<path fill-rule="evenodd" clip-rule="evenodd" fill="#003AA8" d="M939.804,235.392l-0.074,11.176l-9.458,1.443l-5.312,0.614
		l-0.197-3.233l1.089-10.188l5.307-0.614l8.259,0.73L939.804,235.392z M948.345,234.577l-0.102-1.617
		c0.116-2.775-2.23-5.208-6.793-6.454l-10.26-0.703l-8.157,0.886c-4.992,1.074-7.297,7.04-7.443,18.601l0.5,8.084
		c0.655,2.919,2.762,4.509,6.31,4.767l18.071-2.646c5.167,0.159,7.957-4.118,7.989-12.904L948.345,234.577z"/>
	<path fill-rule="evenodd" clip-rule="evenodd" fill="#003AA8" d="M956.142,257.202c-0.888,2.631-5.885,3.704-15.055,3.602
		l-26.241-2.864l-1.523-69.413l8.158-0.887l7.313-0.643l-1.164,10.574l-3.536,27.717l4.78,0.086l15.538-1.916l13.149-1.958
		l1.935,0.358l0.54,5.694l-1.219,17.357L956.142,257.202z M957.666,212.329l-15.155,1.986l-8.229,1.273l5.687-39.306l-37.087,3.914
		l1.07,4.996l2.384,53.989c-0.003,10.788-0.132,17.958-0.849,21.82l-1.246,4.564l4.707,0.473l32.037,3.94
		c13.177,0.044,21.377-3.231,23.755-9.584l3.036-14.223l1.818-18.444c-0.153-5.622-0.984-9.773-2.944-12.134
		C965.074,213.303,962.056,212.343,957.666,212.329z"/>
	<path fill-rule="evenodd" clip-rule="evenodd" fill="#FF33FF" d="M410.16,307.458l8.744,2.422l0.382,21.648l-15.253,0.369
		l-0.098-12.406l-7.24,0.256l-1.79-1.129l-0.817,13.034l22.594,11.779l4.561,22.823l-0.674,1.476l-0.574,13.878l-6.598,7.569
		l-23.052-0.676c-1.23,0.171-1.93-0.358-2.875-1.731l-8.113-1.505l0.019-25.97l16.34,0.23l0.829,14.938l8.57,1.189l-1.657-19.088
		l-12.806-6.37l-2.074,0.416l-6.28-2.764l-1.213-36.587l19.92-8.298L410.16,307.458z"/>
	<path fill-rule="evenodd" clip-rule="evenodd" fill="#FF33FF" d="M456.303,327.999l0.101,1.618l-0.114,2.774l-0.206,39.92
		l-5.595,2.16l-4.422-2.015l1.554-53.661l5.795,1.074l2.289-1.572L456.303,327.999z M450.556,302.957l-13.051,3.576l-6.847,49.88
		l0.414,2.075l-0.401,4.32l0.171,12.019l11.473,15.714l9.844-1.372l4.151-0.83l-0.645,3.479l1.688,10.304l8.829-2.361l5.379-1.002
		l-4.948-12.104l1.618-10.891l-0.029-2.003l2.09-4.807l4.11-20.02l-4.818-30.063l-3.718-12.276L450.556,302.957z"/>
	<polygon fill-rule="evenodd" clip-rule="evenodd" fill="#FF33FF" points="524.333,310.236 523.719,386.848 524.091,391.312 
		508.135,391.152 507.937,387.918 492.397,389.833 482.553,380.415 482.913,367.695 483.342,365.377 482.829,361.687 
		482.922,302.962 498.949,302.737 499.033,319.533 498.917,322.31 498.974,326.316 499.438,375.554 501.728,373.979 
		506.507,374.067 507.31,365.424 507.811,362.721 507.368,358.641 505.817,308.803 505.231,305.499 525.192,305.602 	"/>
	<path fill-rule="evenodd" clip-rule="evenodd" fill="#FF33FF" d="M550.11,356.572l2.774,0.117l5.84-1.316l0.111,18.803
		l-8.643-0.804l0.216-11.947L550.11,356.572z M558.43,307.366l-1.302,0.557l-21.207,4.463l0.199,14.022l22.25-1.472l0.413,12.866
		l-7.527,1.801l-1.129,1.787l-2.949-1.346l-6.153,0.86l-8.146,28.858l2.447,4.05l1.259,1.83l6.464,21.18l18.673-3.73l0.271,2.847
		l12.336,0.289l2.774,0.113l-1.342-18.63l-0.243-0.844l0.429-2.319l-0.764-54.088l-13.206-12.837L558.43,307.366z"/>
	<polygon fill-rule="evenodd" clip-rule="evenodd" fill="#FF33FF" points="599.554,305.398 599.74,313.024 605.307,308.861 
		616.409,309.321 624.538,317.22 623.886,353.065 608.562,353.821 608.907,345.492 609.378,340.784 608.965,338.713 
		608.038,322.154 604.733,322.742 601.355,323.714 602.906,384.34 603.348,388.418 604.42,393.413 587.308,393.038 586.083,350.054 
		587.357,347.493 586.141,343.271 585.317,306.755 596.177,306.37 	"/>
	<path fill-rule="evenodd" clip-rule="evenodd" fill="#FF33FF" d="M655.525,339.747l-8.47,0.428l1.661-2.487l1.031-14.195
		l5.866,0.687L655.525,339.747z M673.729,329.934l-9.942-21.822l-23.051-0.676l-7.846,22.921l-0.716,3.864l0.586,3.306l-0.744,1.861
		l1.455,37.431l6.895,8.07l1.646,1.904l0.558,1.303l4.408,6.41l22.104-0.697l-0.84-21.334l-2.92,0.655l-17.213-1.989l0.218-11.947
		l-1.188-2.219l4.464-0.371l15.712-0.685l1.217-6.568l0.572-3.09l0.959-3.02L673.729,329.934z"/>
	<path fill-rule="evenodd" clip-rule="evenodd" fill="#FF33FF" d="M704.834,349.686l-7.771,0.958l-0.324-28.433l7.698-0.573
		L704.834,349.686z M719.646,334.447l-1.431-3.063l0.673-1.473l-1.087-11.39l-11.272-12.479l-9.703,0.601l-2.604,1.116l-1.015-0.988
		l-12.937,0.798l0.91,31.738l-0.289,33.912l-1.793,20.446l19.332-0.811l-0.399-6.469l0.114-2.775l-0.112-18.803l2.417,2.047
		l9.531-1.83l10.678-18.801L719.646,334.447z"/>
	<path fill-rule="evenodd" clip-rule="evenodd" fill="#FF33FF" d="M742.638,341.908l3.092,0.571l6.295-1.631l0.111,18.803
		l-9.414-0.947l0.674-12.262L742.638,341.908z M754.967,292.643l-4.537,0.759l-21.665,4.774l0.728,13.321l21.865-1.541l0.727,13.322
		l-7.841,1.344l-1.132,1.788l-3.403-1.03l-6.082,0.47l-7.761,28.933l1.532,4.679l2.104,1.589l-0.359,1.931l6.822,19.247
		l18.287-3.804l0.73,2.533l12.263,0.674l3.161,0.188l-1.799-18.317l-0.173-1.229l0.816-2.246l-1.08-54.547L754.967,292.643z"/>
	<polygon fill-rule="evenodd" clip-rule="evenodd" fill="#FF33FF" points="829.599,306.076 829.585,310.469 829.221,333.978 
		829.131,381.913 829.887,386.448 819.627,385.746 817.625,385.774 805.22,385.874 800.116,357.355 799.215,353.592 
		792.696,317.618 793.49,362.918 792.929,372.407 793.202,375.254 793.644,379.332 793.542,388.504 780.292,388.847 
		780.602,328.964 782.019,325.63 780.66,322.182 778.904,301.476 790.923,301.304 793.384,300.962 805.791,300.862 811.88,339.155 
		811.979,340.771 817.326,370.136 815.905,302.338 830.387,301.825 	"/>
	<polygon fill-rule="evenodd" clip-rule="evenodd" fill="#FF33FF" points="870.419,342.412 859.944,342.869 861.07,373.447 
		861.368,378.3 866.191,375.995 865.263,359.44 864.536,356.907 877.642,357.337 877.553,362.116 877.053,364.822 877.464,388.473 
		862.266,392.85 855.986,390.088 845.554,388.152 845.363,352.553 844.202,341.55 837.977,342.794 838.039,325.222 844.749,325.667 
		844.51,303.244 862.925,303.061 860.105,326.915 876.516,326.76 876.285,343.1 	"/>
	<polygon fill-rule="evenodd" clip-rule="evenodd" fill="#FF33FF" points="926.495,335.224 911.629,335.665 911.285,322.414 
		904.359,323.128 902.573,321.997 901.614,335.808 923.888,347.129 928.452,369.951 928.62,371.183 927.732,384.602 
		920.921,393.331 905.624,396.09 894.608,390.853 887.338,389.104 887.427,362.748 902.853,363.608 904.138,378.233 
		909.375,378.003 912.324,379.35 911.123,359.947 898.321,353.577 896.629,354.063 889.575,351.157 888.68,315.028 908.67,306.345 
		917.828,310.841 926.498,313.645 	"/>
	<path fill-rule="evenodd" clip-rule="evenodd" fill="#FF33FF" d="M397.088,162.378l31.581,4.255l-1.106,25.368
		c-12.734-6.755-22.492-10.162-30.047-10.364c-7.241,0.256-10.732,4.006-10.791,10.789c0.029,2.002,3.534,4.65,9.744,7.8
		l18.529,7.829c6.981,3.293,11.503,6.927,13.562,10.906c2.062,3.979,2.891,8.129,2.488,12.449c0.229,5.238-1.403,9.731-4.752,12.707
		c-4.264,3.604-9.015,5.522-13.867,5.821l-39.435,1.483l0.718-25.441l25.257,3.88c9.629-0.212,14.379-2.129,14.395-6.522
		c0.115-2.776-2.617-5.281-8.583-7.584l-16.669-7.086c-6.597-3.222-10.73-6.784-12.019-10.619
		c-2.303-4.822-3.376-9.816-3.604-15.053c0.102-9.173,2.864-15.455,8.674-18.773L397.088,162.378z"/>
	<path fill-rule="evenodd" clip-rule="evenodd" fill="#FF33FF" d="M489.761,214.32c-0.059,6.782-0.704,10.26-2.005,10.816
		l-10.16,0.916c-3.62,0.128-6.252-0.761-7.97-2.277l-1.603-4.293l-0.256-7.24c-0.057-4.007,0.373-6.324,1.747-7.27l10.374-2.072
		c4.395,0.014,7.026,0.902,8.743,2.419C489.719,205.92,489.918,209.153,489.761,214.32z M496.632,198.81
		c-4.279-2.792-13.164-4.438-26.801-4.167l-17.329,0.783l-9.071,1.516l0.625,33.283c-0.104,19.961-0.32,31.909-1.35,35.315
		l13.563,0.115l-0.095-33.982l25.855,2.793l16.17-1l2.233-5.579l1.305-11.347C501.525,206.909,499.822,200.999,496.632,198.81z"/>
	<path fill-rule="evenodd" clip-rule="evenodd" fill="#FF33FF" d="M555.287,188.501l-14.583-1.104
		c-12.332-0.288-20.246,1.442-24.581,5.434c-2.361,1.959-3.751,7.297-3.781,16.083c-0.059,6.782,0.828,14.938,2.028,23.552
		c1.129,9.001,2.76,15.297,4.191,18.358c0.414,2.075,2.517,3.663,6.695,4.838l12.433,1.904c9.173,0.103,15.612-2.301,20.02-6.678
		c2.721-3.892,5.411-9.787,7.758-18.143c1.89-8.042,2.936-15.84,3.209-23.781c-0.142-10.016-2.158-16.383-5.349-18.572
		L555.287,188.501z M550.76,206.444l-2.921,22.235c-0.787,4.25-3.535,6.138-8.701,5.979l-7.799-1.044
		c-1.473-0.674-2.517-3.664-3.59-8.658l-1.214-15.01l1.161-10.575l4.22-1.216l15.355,1.249
		C549.661,199.448,550.849,201.664,550.76,206.444z"/>
	<path fill-rule="evenodd" clip-rule="evenodd" fill="#FF33FF" d="M629.36,211.42c2.733,2.505,4.049,8.344,4.189,18.36
		l-1.577,19.287l-2.319,10.359l-11.775,1.015c-2.776-0.116-3.864-0.717-4.179-1.174l-0.896-36.131l-14.479,0.512
		c-0.603,1.089-1.39,5.339-1.591,12.894l-0.517,17.886l0.184,7.626l-23.796,1.185l5.112-25.427l4.297-33.968l-0.129-3.621
		l16.601-3.317l-0.045,2.389l-0.056,6.783l18.057,1.748L629.36,211.42z"/>
	<path fill-rule="evenodd" clip-rule="evenodd" fill="#FF33FF" d="M671.357,200.423l10.69-1.615l0.057,4.006l0.599,20.491
		l1.029,7.384l-0.071,0.386l-10.361-2.32l-3.334-1.418l-1.33-12.233C668.137,207.019,669.069,201.998,671.357,200.423z
		 M703.912,186.476l-18.441-1.818c-0.917,0.628-1.52,1.715-1.348,2.948l-0.429,2.317l-11.806-0.988l-11.804-0.989
		c-4.778-0.087-7.455,1.415-7.957,4.12c-4.753,12.704-7.243,21.834-7.158,27.844c0.084,6.008,2.002,10.761,5.679,14.639
		c1.718,1.517,6.281,2.762,14.222,3.036l18.66,0.66l0.442,4.078c0.042,8.4-0.717,14.653-2.808,19.46l-13.222,2.345l-5.866-0.687
		l3.006-5.438l2.762-6.281l-9.271-1.718l-10.045-1.861c-1.374,0.944-1.804,3.262-1.433,7.725l1.743,14.31l1.03,7.385l24.996-3.359
		l22.969-5.334c2.361-1.959,3.192-8.599,3.337-20.161l-0.712-17.713c-0.487-12.479-0.385-21.652,1.147-27.761L703.912,186.476z"/>
	<path fill-rule="evenodd" clip-rule="evenodd" fill="#FF33FF" d="M720.052,205.052l0.645-3.477c0.6-1.087,3.519-1.745,8.686-1.587
		l9.557,0.173l5.579,2.234l1.188,2.217l-0.615,5.481c-0.602,1.086-2.747,1.889-6.125,2.86l-10.231,1.301
		c-3.618,0.128-5.938-0.302-6.882-1.675l-1.287-3.836L720.052,205.052z M713.798,204.293c-0.903,7.026-1.419,14.123-1.234,21.75
		c-0.001,10.789,0.784,17.327,2.358,19.617c2.203,3.206,10.63,5.167,24.653,4.97l21.336-0.84l4.566-20.333l-5.021-0.931
		l-15.469,1.528l-0.916,0.629l1.645,1.905l-0.043,2.389l-0.144,0.773l-3.232,0.198l-16.197-1.003
		c-1.574-2.29-2.333-6.826-2.202-13.996l-0.101-1.616l6.783,0.059l25.7-2.83c7.911-1.73,12.134-2.946,11.961-4.177l0.072-0.386
		l-2.173-11.99c-1.417-7.455-3.404-11.82-5.508-13.408l-21.533-2.393c-12.021,0.169-19.161,2.042-21.422,5.62
		C716.162,191.544,714.844,196.495,713.798,204.293z"/>
	<path fill-rule="evenodd" clip-rule="evenodd" fill="#FF33FF" d="M807.552,185.707l1.53,15.469
		c0.155,5.622-0.489,9.099-1.477,10.114l-6.224,1.245l-3.936-0.329l-3.235,0.199l-0.295-26.429l9.386-1.057L807.552,185.707z
		 M805.793,175.789l-25.098,1.741l-1.445,94.04l57.479-6.13l0.19-13.952c-0.358-8.856-2.16-16.383-4.706-22.05l-14.422-6.269
		l-9.129-2.491c4.078-0.443,10.833-2.389,20.262-5.835l2.979-7.44l0.529-11.491l-0.644-7.311l-3.876-7.113l-3.892-2.718l-4.35-2.404
		L805.793,175.789z M789.159,231.047l17.815,0.906l16.683,2.691l2.374,15.225l-21.478,1.615l-15.497-0.476L789.159,231.047z"/>
	<path fill-rule="evenodd" clip-rule="evenodd" fill="#FF33FF" d="M850.6,248.828c0.484,1.688,2.589,3.278,6.311,4.767l11.659,1.763
		c8.47-0.429,14.84-2.444,19.177-6.436c2.962-3.048,5.436-7.785,7.111-14.667c1.99-6.425,3.279-13.377,3.337-20.161
		c-0.04-8.399-1.885-13.535-5.534-15.411l-7.271-1.748l-14.194-1.031c-11.174-0.074-19.087,1.656-23.28,4.875
		c-2.288,1.574-3.076,5.824-2.894,13.451c-0.228,5.552,0.174,12.02,1.516,19.861L850.6,248.828z M859.776,205.774l3.378-0.973
		l14.581,1.104c2.39,0.042,3.648,1.875,3.636,6.269l-2.981,18.229c-0.645,3.475-3.392,5.364-7.856,5.735l-7.725-1.431
		c-1.091-0.601-2.275-2.818-3.493-7.04c-0.583-3.306-0.956-7.77-1.186-13.007L859.776,205.774z"/>
	<path fill-rule="evenodd" clip-rule="evenodd" fill="#FF33FF" d="M920.553,253.003l-0.569-7.699
		c0.104-9.171,1.346-13.736,3.494-14.538l8.155-0.885l8.186,1.118l4.036,1.946l0.597,9.703c0.087,6.009-1.188,8.57-3.963,8.456
		l-17.614,2.33L920.553,253.003z M909.664,262.173l31.338,3.412c11.561,0.145,17.999-2.259,19.174-6.437l2.892-13.45l1.75-18.058
		c0.086-4.778-0.573-7.698-1.587-8.686l-5.653-1.848l-14.379,2.131l-13.924,1.815l5.299-39.378l-26.084,2.76l2.624,54.831
		L909.664,262.173z"/>
	<path fill-rule="evenodd" clip-rule="evenodd" fill="#003AA8" d="M729.692,418.229l-0.429,2.319
		c2.273,2.817,4.062,3.948,6.138,3.533l4.235-5.607l-1.402-1.06l-0.101-1.616l-1.644-1.903c-1.089-0.601-3.308,0.587-6.511,2.789
		L729.692,418.229z M755.065,386.969c1.86,0.744,3.264,1.803,3.894,2.718l3.92,4.723l2.231,5.207l-1.676,6.883l-7.428,3.419
		l-7.912,1.73l-1.975,2.033l2.131,3.592l6.467-0.399l5.28-2.619l1.474,0.674l1.232-0.173c4.177,1.176,6.666,2.836,7.468,4.981
		c1.43,3.062,0.856,6.151-1.261,8.958l-1.903,1.644l-2.817,2.275l-0.603,1.087l-9.915,1.757l-3.68-3.876
		c-1.33-1.446-2.416-2.049-3.646-1.877l-0.702-0.528l-0.071,0.386l1.401,1.06l4.379,4.408l1.531,4.681
		c1.503,2.674,0.786,6.538-2.994,11.832c-1.129,1.788-5.036,3.461-11.332,5.092l-6.982-3.293c-1.23,0.172-2.317-0.43-2.489-1.658
		l-1.115-2.604l0.214-1.159l0.43-2.317l1.674-6.884c1.519-1.717,1.418-3.333,0.618-5.48l-0.172-1.23l-2.561-1.273l-5.854,5.707
		l-13.708,0.657l-6.525-3.605l-5.007-5.323l0.457-0.317l-1.572-2.287l-0.659-2.92c1.316-4.951,2.979-7.44,4.666-7.928l3.764-0.9
		l2.848-0.271l5.724,1.461l5.794,1.073l2.075-0.412l1.444-1.333c0.817-2.246-0.37-4.466-3.561-6.653l-5.121-2.548l-3.821-3.104
		l-3.29-3.808l-1.315-5.839l-0.271-2.847l1.875-3.649l5.18-4.235l1.617-0.1l1.616-0.099l0.774,0.143l2.774,0.115l7.342,1.36
		c3.963,2.332,6.309,4.767,7.04,7.298l-0.103,9.173c-0.116,2.774,1.143,4.606,3.003,5.352l1.831-1.259l0.645-3.477l0.961-3.02
		c-0.173-1.23-0.029-2.005,0.5-2.704l2.547-5.121c2.721-3.892,5.782-5.323,9.574-4.222L755.065,386.969z M753.192,390.614
		l-1.089-0.599l-1.859-0.744l-1.545-0.288c-2.92,0.659-5.21,2.231-6.169,5.252l-1.891,8.039l-1.028,3.406l-5.524,1.774l-1.402-1.059
		l-1.96-2.363l-1.044-2.99l-0.257-7.239l-3.076-4.967l-1.475-0.672l-1.858-0.744l-7.655-1.82c-3.69,0.517-5.98,2.089-6.939,5.109
		c-0.89,2.632-0.232,5.55,2.431,8.443l5.823,3.075l4.736,2.477l5.465,5.01l0.729,2.534c-0.113,2.774-1.389,5.335-4.521,7.153
		l-8.399,0.04l-1.088-0.601l-1.088-0.603l-10.645-0.772l-2.189,3.188c-0.96,3.021,0.398,6.469,4.533,10.033l4.277,2.789
		c3.578,2.263,6.668,2.836,9.272,1.719l2.29-1.572l1.975-2.033l5.925-6.094l5.652,1.848l1.802,7.526l0.101,1.618l-0.143,0.771
		l-2.421,8.742c1.431,3.063,3.991,4.336,7.54,4.595l5.065-1.459l3.806-3.289l-0.127-3.621l-0.344-2.462l-1.502-2.676
		c-1.787-1.13-3.747-3.493-5.179-6.554c-0.873-1.761-0.973-3.377,0.087-4.779c0.601-1.089,1.516-1.717,3.377-0.972
		c2.146-0.8,4.077-0.442,6.037,1.918l3.85,5.109l7.842-1.344l3.462-5.753l-0.585-3.306l-4.736-2.475l-2.003,0.027l-5.596,2.159
		l-7.483-0.585l-2.946-1.348l-1.919-4.75c-0.341-2.462,0.403-4.323,2.692-5.894l6.225-1.247l7.984-2.117l2.404-4.348l-4.576-7.643
		L753.192,390.614z"/>
	<path fill-rule="evenodd" clip-rule="evenodd" fill="#003AA8" d="M608.529,95.272l-2.146,0.801l-2.847,0.272l-2.29,1.572
		l-1.131,1.789l2.447,4.051l7.311-0.644l1.418-3.333l-1.962-2.361C608.242,96.817,607.928,96.36,608.529,95.272z M658.016,52.496
		l-11.52-2.535c-5.38,1.001-10.102,4.921-14.023,10.988l-8.703,16.768l-9.703,11.389c-4.122,2.833-8.729,3.977-14.066,2.588
		c-0.843,0.242-1.474-0.674-1.958-2.361c-1.647-1.904-1.533-4.68-0.114-8.014l1.045-7.798l0.345-8.328l-2.902-14.524
		c-2.86-6.124-6.753-8.844-11.216-8.472c-3.621,0.129-7.813,3.347-12.123,9.342l-0.572,3.09l-2.047,2.417
		c0.301,4.851,2.29,9.216,5.65,12.635l1.232-0.17l1.402,1.058l7.137,8.917c2.977,3.348,4.336,6.796,4.921,10.102l-2.647,3.506
		l-3.978,2.061c-4.078,0.442-8.643-0.802-14.224-3.037l-14.493-5.883l-21.678-1.619l-1.588,2.103
		c-6.412,4.407-8.645,9.986-6.7,16.74l9.958,6.642l7.341,1.361l5.165,0.157l4.15-0.829l2.218-1.187l1.473,0.673l20.522-9.384
		l5.452-1.387l7.84-1.344l4.708,0.472c2.202,3.205,2.789,6.513,1.372,9.844l-1.66,2.491l-1.832,1.258
		c-1.873,3.648-6.813,8.728-14.812,15.237c-6.939,5.107-12.65,10.042-16.43,15.336c-3.921,6.067-4.608,11.933-2.063,17.6
		c1.188,2.218,4.063,3.95,9.084,4.881l4.78,0.087c2.92-0.658,6.582-3.176,10.991-7.554l1.517-1.716l1.832-1.26l0.815-2.246
		l1.202-2.176c2.289-1.571,3.635-4.52,4.738-8.311l1.646-8.887l0.4-4.321l0.86-4.636l1.589-2.104l0.415-8.713l3.178-4.206
		l2.218-1.189l2.605-1.113c3.262,1.802,6.624,5.222,9.17,10.889l0.771,0.143c1.99,4.366,5.838,9.474,12.392,15.083l6.838,4.065
		c2.347,2.432,5.681,3.85,10.316,4.709c4.708,0.472,7.914-1.729,9.86-5.765c0.931-5.022-0.672-9.316-4.42-12.808l-11.604-8.545
		l-13.578-6.512c-5.437-3.006-8.798-6.426-9.172-10.891l0.99-1.015l0.601-1.086l0.672-1.475l1.975-2.033l2.048-2.417l5.952-4.091
		l7.283-2.645l1.446-1.333l1.302-0.558l6.653-3.561l6.025-4.479l0.989-1.015l1.759-0.872l1.444-1.33l1.589-2.105l3.608-6.524
		C662.179,58.063,661.063,55.458,658.016,52.496z M668.459,60.825c-1.847,5.651-4.781,10.703-8.659,14.379l-1.76,0.874l-0.601,1.087
		c-5.81,3.318-11.09,5.935-15.77,7.466l-6.268,3.633c-2.992,1.044-5.211,2.231-6.654,3.562c-3.378,0.972-5.496,3.776-5.896,8.099
		c1.574,2.289,4.307,4.793,7.953,6.667l11.09,4.853l10.029,6.254c7.855,5.053,11.417,11.707,10.442,19.119
		c-1.316,4.952-5.582,8.557-12.65,10.042c-8.543,0.815-17.313-3.608-26.626-13.724l-1.788-1.132l-1.646-1.903l-5.693-10.247
		l-7.455-9.374l-2.46,0.343c-1.518,1.718-2.333,3.963-2.447,6.739l-0.576,13.88l-1.904,1.646l0.029,2.003
		c-1.402,9.73-3.395,16.155-6.355,19.203l-9.774,11.773c-4.264,3.606-8.629,5.594-13.337,5.122
		c-6.926,0.714-11.59-2.148-14.522-7.888c-4.047-8.342-2.932-16.526,3.596-23.709l8.257-10.057l8.173-5.278l0.6-1.089l1.69-0.485
		l3.877-3.678c5.279-2.617,8.314-6.051,8.645-9.986c2.001-0.027,2.604-1.116,2.574-3.12l-2.689-4.894l-6.224,1.245l-6.296,1.63
		l-4.895,2.69l-6.052,2.475l-5.738,2.932l-5.453,1.388c-12.664,3.646-23.309,2.873-31.551-2.251
		c-3.604-4.265-4.892-8.1-4.104-12.349c0.717-3.863,2.662-7.898,6.228-12.033l1.902-1.646l2.047-2.417l7.284-2.646l0.699,0.529
		l9.631-0.213l1.859,0.745l2.391,0.042l14.95,5.569l14.639,5.11l1.617-0.101l3.377-0.972l1.659-2.49l-6.581-7.615
		c-0.915,0.631-1.688,0.487-2.632-0.886l-1.573-2.291c-10.188-11.878-13.177-21.623-9.425-28.919l2.431-2.347l1.06-1.402
		l1.061-1.401c4.692-5.924,11.061-7.94,18.573-5.35c6.98,3.292,10.617,9.56,11.042,18.032l1.417,7.455l0.171,1.229l0.101,1.619
		l-2.722,14.679l0.257,7.241c3.334,1.418,7.627-0.185,12.808-4.419l4.308-5.996l5.554-10.559l10.177-16.095l0.6-1.087l1.688-0.488
		l1.519-1.717l3.062-1.428l4.222-1.217l3.834-1.288c5.523-1.772,10.79,0.002,15.096,4.797
		C667.473,51.052,669.148,54.959,668.459,60.825z"/>
	<path fill-rule="evenodd" clip-rule="evenodd" fill="#F6F10F" d="M134.476,76.542c4.266-3.605,8.7-5.979,13.694-7.052l14.31-1.742
		l14.509,1.488l12.951-5.191l13.637-0.271l13.436-3.503c4.193-3.219,8.172-5.278,12.708-6.036c3.764-0.902,8.786,0.029,14.365,2.262
		l13.579-4.275l11.864-5.794l13.522,2.506l26.586-5.462l6.824,8.458l3.071,26.544l6.108,12.321l1.141,36.975l4.633,11.647
		l0.684,26.501l4.662,24.44l0.298,15.641l3.761,9.887l-1.06,12.192l6.173,55.09l3.919,15.512l1.041,13.779l-1.861,10.044
		l-13.479,5.895l-15.611,2.301l-23.725,0.798l-6.654,3.562l-20.406,6.608l-8.457,6.824l-24.813,10.984l-11.905,8.184l-49.098,21.27
		l-17.2,4.406l-13.349-1.278l-5.924-4.692l-3.018-11.748l-0.601-9.701l-3.86-22.295l-4.42-12.806
		c-0.199-3.232-1.486-7.069-3.474-11.435l-8.611-20.377l-4.748-19.66l-0.799-12.938l-7.625-10.602l0.431-13.108l-5.551-11.018
		c-4.52-3.635-7.109-6.913-8.227-9.519l-2.416-12.834L74.847,197.76l-3.347-7.814l5.584-19.345l-10.23-9.487l-0.942-12.164
		c-0.028-2.004-2.934-5.738-8.255-11.52l-2.416-12.835l17.29-30.762l10.817-8.784l10.204-3.303l15.297-2.759l12.02-0.17
		L134.476,76.542z"/>
	<path fill-rule="evenodd" clip-rule="evenodd" fill="#FFFF36" d="M398.18,244.897c6.424,1.991,7.954,6.669,5.048,13.724
		l-6.211,7.639c3.692-0.514,7.482,0.589,11.232,4.08c3.819,3.106,5.637,6.241,5.377,9.79c0.13,3.62-1.988,6.425-5.968,8.482
		l-16.97-1.146l5.651,12.636c0.856,6.151-1.934,10.432-9.289,13.464c-8.057,2.501-13.035-0.817-15.323-10.034
		c-1.002-5.38-2.16-5.594-3.722-1.488c-1.945,4.034-5.781,5.323-11.89,3.791l-7.54-4.595c-2.347-2.434-2.547-5.667-1.516-9.073
		c0.888-2.632,3.921-6.065,9.487-10.229l11.063-7.939c4.793-4.306,6.91-7.109,6.74-8.341c-0.515-3.692,2.348-8.355,7.742-13.75
		C387.949,246.2,393.158,243.967,398.18,244.897z"/>
	<path fill-rule="evenodd" clip-rule="evenodd" fill="#FFFF36" d="M39.01,350.158c7.411,0.974,15.18,0.017,23.065-3.716
		c-3.063,1.43-7.227,6.652-12.494,15.665c-5.41,9.787-6.871,15.509-4.523,17.943c2.975,3.349,7.612,4.209,13.205,2.047
		c4.824-2.301,8.101-4.891,9.903-8.153l4.066-6.838c1.272-2.564,1.63-4.494,1.604-6.498c1.1,6.999,3.331,12.207,6.164,16.329
		c2.762,4.507,6.408,6.383,10.875,6.01c7.911-1.73,11.477-5.865,10.689-12.403c-0.229-5.237-3.404-11.819-9.142-19.676
		c-5.491-7.014-9.169-10.893-11.486-11.321l-5.367-3.392l-2.931-5.738c-0.516-3.692-4.393-10.804-12.09-21.021
		c-3.919-4.723-8.655-7.199-14.278-7.042c-4.852,0.298-8.3,1.658-10.732,4.003c-2.188,3.192-2.977,7.441-1.977,12.82
		c0.857,6.154,3.231,10.59,6.494,12.395l-9.772,0.986c-3.448,1.358-5.038,3.46-5.224,6.622c-0.259,3.55,0.857,6.154,2.574,7.672
		L39.01,350.158z"/>
	<path fill-rule="evenodd" clip-rule="evenodd" fill="#003AA8" d="M215.989,298.645l9.891-3.762
		c-1.849,5.652-5.599,12.948-11.252,21.89c-2.246-0.816-3.892-2.718-4.936-5.709l-2.188-7.6
		C209.092,301.36,211.768,299.859,215.989,298.645z M278.995,279.951l9.674-2.603c-2.234,5.58-4.567,9.544-6.927,11.504
		l-1.918-4.751L278.995,279.951z M324.487,254.417c-8.084,0.499-18.217,3.417-30.536,9.524l-13.365,3.118l-11.948-0.216
		c-2.577,3.119-7.327,5.035-13.938,6.209c-7.455,1.414-12.592,3.259-15.026,5.607l-2.617-5.282c-2.219,1.188-2.89,2.661-2.791,4.279
		c-2.504,2.732-7.013,5.493-13.838,7.823c-8.37,2.046-13.966,4.206-16.327,6.165l-3.119-2.575
		c-4.722,3.921-13.065,7.968-25.414,12.073c-11.891,3.789-20.307,8.225-25.171,12.918l-1.175,4.177l25.643-6.835l24.626-7.825
		l3.791,11.893l5.521,9.017c2.591,3.276,5.682,3.85,8.814,2.032l16.804-32.45l7.854,5.052l7.298,3.751
		c-5.323,5.006-6.927,11.502-4.28,18.785l7.224,14.928l7.557-10.59l7.299-7.039c1.703-4.877,0.416-8.713-3.548-11.045l-8.584-7.588
		c-0.729-2.531-0.157-5.621,2.033-8.812l5.726-9.328c6.152-0.859,10.359,2.318,13.392,9.674l2.961,7.741l6.453,3.994l13.498-31.866
		l14.953-5.219c5.736-2.933,10.245-5.694,13.837-7.826L324.487,254.417z"/>
	<path fill-rule="evenodd" clip-rule="evenodd" fill="#003AA8" d="M288.517,43.154c-22.166,7.48-48.652,14.56-79.462,21.237
		l-12.176,5.336l-14.553,0.9c-34.958,7.506-70.332,12.938-105.876,17.14c0.946,1.373,3.65,1.874,7.198,2.132
		c3.621-0.128,6.324,0.374,7.655,1.818l61.917-8.504l61.042-10.265l7.842-1.344c4.149-0.829,7.142-1.873,9.286-2.675
		c11.291-2.703,29.864-8.05,55.408-16.505l5.853-5.707L288.517,43.154z"/>
	<path fill-rule="evenodd" clip-rule="evenodd" fill="#003AA8" d="M314.252,81.09c-3.631-17.057-4.675-30.836-3.756-42.255
		l-6.826,2.332l-3.465,5.751l7.535,47.751l5.846,48.235c1.043,2.992,2.287,9.215,3.874,17.902l5.961,45.46
		c2.63,22.465,4.83,36.46,7.234,42.899l5.788,33.441l7.191,45.289c-7.671,2.573-18.358,4.189-32.453,4.775l-33.11,1.854
		c-13.536,1.887-33.943,8.493-61.218,19.823c-25.899,10.383-46.479,15.763-62.188,16.447c-5.551-11.021-10.413-27.905-15.432-50.416
		c-5.434-24.583-10.225-41.854-13.672-51.285L103.25,206.22l-7.18-28.104c-0.615-5.309-9.696-31.768-27.389-78.604
		c4.461,21.208,10.352,45.476,18.062,72.878l32.736,107.965l13.785,48.512c6.294,19.946,10.068,36.232,10.868,49.164l-6.511,2.791
		l-6.366,2.016c-2.575-18.458-9.023-44.029-19.206-77.486l2.862-4.664l3.349-2.976l-0.857-6.152
		c-0.415-2.076-1.359-3.448-2.304-4.822l-3.777,5.294c-4.134-14.354-10.543-31.524-19.152-51.901l-24.646-58.914
		c-9.412-22.524-16.548-42.229-21.026-59.042c4.266-3.605,8.116-9.287,11.551-17.04l9.763-18.171
		c-4.995,1.071-9.259,4.678-12.794,10.815c-3.508,8.14-6.827,13.12-9.188,15.08l-3.649-1.876c-2.604,1.116-3.807,3.291-3.678,6.913
		l-0.03,8.784c1.688,10.303,6.735,24.026,14.304,41.413c7.009,16.084,11.399,26.888,12.4,32.268c1,5.381,2.847,10.518,5.392,16.185
		l7.925,15.455c12.301,30.65,20.239,52.501,23.429,65.481l1.474,0.672c-1.704,4.88-4.709,10.316-9.403,16.24L81.71,328.901
		l-4.123,2.833l-5.279,2.616l0.972,3.379l2.733,2.504l-1.903,1.646l10.043,12.652c4.766,4.478,7.068,9.301,6.594,14.008
		l-4.851,0.299c-3.476-0.645-6.266-7.155-9.067-20.062l-3.063,1.43l-3.162-0.186l-0.947,9.414l-1.646,8.885
		c-1.103,3.793-3.534,6.138-6.982,7.498l-8.113-1.503c3.635-4.522,6.784-10.731,9.303-17.855c1.989-6.425,2.776-10.676,2.821-13.066
		l-8.829,2.361l-11.99,2.173c-6.154,0.858-11.105-0.459-15.769-3.322c4.45-6.767,14.754-8.455,30.908-5.061
		c0.716-3.864-1.102-6.996-4.992-9.717l-8.972-7.656l-1.53-4.681l3.034-3.432c3.406,1.03,6.453,3.994,9.843,9.415
		c3.462,5.04,7.283,8.145,11.604,8.545l-6.28-13.551c-2.761-4.509-6.509-7.999-11.632-10.549c-5.336-1.388-8.642-0.802-9.672,2.603
		c-1.875,3.65-2.206,7.584-0.604,11.878s4.577,7.641,8.613,9.588l-12.063,2.559c-4.851,0.301-8.371,2.045-10.562,5.237
		c-3.034,3.434-2.835,6.668,0.671,9.315l27.372,1.076c0.802,2.146,0.086,6.009-2.92,11.447c-3.148,6.209-4.467,11.162-4.338,14.779
		c1.916,4.754,6.868,6.069,14.853,3.953c5.523-1.775,9.858-5.766,12.236-12.121c2.831,4.123,6.266,7.159,10.443,8.331l11.463-1.47
		c4.406-4.379,4.565-9.544,0.617-16.271l-13.477-15.685c-0.658-2.92,0.688-5.867,4.035-8.841l19.335-22.391
		c4.149,9.958,7.581,23.781,10.298,41.469l7.978,41.039c19.932-1.902,43.887-8.25,71.403-18.735
		c38.853-15.577,61.618-24.144,68.301-25.703l1.718,1.518c0.499,8.085,3.13,19.76,7.821,35.416
		c4.305,15.582,6.936,27.261,8.137,35.874c2.688,4.895,6.939,5.682,13.378,3.278l8.272-3.662l7.281-2.646l8.659-3.589l9.071-1.516
		c7.527-1.804,10.704-6.01,9.848-12.163c-6.884-1.676-15.427-0.86-26.015,2.372l-23.954,6.35c-0.858-6.152-4.02-17.129-8.709-32.783
		c-3.89-13.509-6.279-24.34-7.235-32.111l36.574-7.605l39.093-3.943l2.131,3.592l4.679-1.53l-11.381-52.86l-1.485-17.857
		c-0.715-6.926-0.486-12.476,0.688-16.656l13.735,12.138l10.888,12.406l4.793-4.306l5.324-5.008l14.868-11.229
		c2.147-0.802,2.776,0.115,2.032,1.975l-3.707,4.906l-14.025,10.987l9.802,1.019l9.703-0.601c5.192,2.162,8.24,5.125,8.683,9.202
		l-14.852-3.952c-5.725-1.458-11.347-1.303-15.954-0.158c-0.358,1.931,0.657,2.92,2.903,3.735l4.665,2.86
		c-3.063,1.433-4.193,3.22-2.548,5.124l3.532,4.652c1.632,6.295,1.688,10.302,0.314,11.246l-7.768-9.831
		c-2.446-4.051-3.347-7.814-2.246-11.605l-7.398,5.422l-5.124,8.241l-6.639-0.831l8.115-9.286c4.65-3.533,6.526-7.182,5.939-10.488
		l-12.578,9.657c-4.795,4.307-6.741,8.342-5.912,12.493l13.521,2.506c1.619-0.101,3.063-1.432,4.193-3.22l3.636-4.521
		c2.287,9.214,6.451,14.78,12.488,16.701c5.28-2.62,7.542-6.196,7.313-11.434l-2.645-7.281l-1.029-7.385l4.32,0.401
		c1.617-0.1,3.09,0.571,4.035,1.945l7.482,0.589c2.775,0.114,4.609-1.145,6.197-3.246c1.445-1.333,1.345-2.948,0.473-4.709
		l-1.603-4.292l-6.624-5.225l-8.813-2.031l2.718-3.893l3.178-4.206c2.691-5.895,2.178-9.587-1.615-10.691
		c-5.58-2.231-14.21,3.363-25.356,16.082c-1.604-4.294-6.539-10.003-14.809-17.131c-8.197-7.513-13.949-10.977-17.111-11.163
		l-9.049-56.822l-8.205-57.065C322.076,116.507,319.416,102.827,314.252,81.09z"/>
	<path fill-rule="evenodd" clip-rule="evenodd" fill="#003AA8" d="M257.071,102.861c4.251,0.788,7.898,2.662,11.646,6.156
		l9.1,11.275c2.689,4.894,3.232,10.59,2.087,16.771c-0.688,5.868-2.463,11.133-6.026,15.267c-5.711,4.937-10.676,8.011-15.427,9.93
		l-2.36-8.83c-1.359-3.45-3.318-5.811-6.193-7.543c-5.725-1.459-10.231,1.3-14.226,7.753l-2.404,4.35l-1.074,5.795
		c-1.173,4.177-4.093,4.835-8.829,2.359c-4.034-1.947-6.166-5.539-6.322-11.162c-0.571-7.698-1.257-12.62-2.975-14.136
		c0.432-13.109,5.141-23.424,14.128-30.949l13.237-6.738L257.071,102.861z M273.788,85.979c-3.264-1.803-5.481-0.615-7.284,2.647
		l-3.437,7.754l-8.813-2.033l-9.945-0.245l-2.317-11.22c-0.943-1.373-2.488-1.659-4.492-1.631l-5.622,0.157
		c2.518,3.664,3.861,11.505,3.716,23.067c-1.302,0.557-2.776-0.114-4.105-1.561l-8.129,2.89l-8.74-13.209
		c-1.331-1.445-2.491-1.66-4.007,0.058c-1.832,1.258-3.134,1.817-3.836,1.287l9.113,17.673l-10.707,16.797
		c-5.635-6.239-13.032-11.606-22.188-16.102l2.362-12.748l-6.567-1.217l-1.575,8.5c-0.26,3.548-1.776,5.265-4.236,5.608
		l-0.116,2.776c9.873,0.631,20.289,6.958,31.176,19.365c4.622,5.252,7.025,11.691,7.354,18.546
		c0.643,7.312-0.961,13.807-4.426,19.559c-10.704,16.797-26.617,25.037-46.965,24.861c-10.789-0.001-19.974-6.499-27.412-20.266
		l1.691-22.063c1.045-7.798,3.106-14.609,6.113-20.045c5.266-9.014,12.737-14.823,22.481-17.812
		c-2.848,0.271-5.58-2.232-8.198-7.512c-3.076-4.967-5.809-7.472-8.341-6.74c-1.66,2.488-1.316,4.95,0.257,7.238l3.633,6.269
		l-9.831,7.767l-6.338-6.769c-2.275-2.819-4.835-4.093-7.685-3.821c-2.574,3.119-1.988,6.425,1.76,9.917
		c4.765,4.479,7.425,7.371,7.984,8.672c-5.225,6.624-8.245,16.454-9.063,29.489c1.057,9.388,3.874,17.901,8.839,25.615
		c5.593,8.628,12.603,13.923,21.347,16.342c18.858,3.895,35.357-1.039,48.723-14.945c1.375-0.944,3.851-5.68,7.357-13.821
		c2.233-5.581,5.683-6.938,10.032-4.534c4.95,1.316,6.31,4.765,4.075,10.346l-6.439,13.192c5.107-3.849,9.486-10.229,13.066-18.757
		l9.419-20.633c3.762-0.9,5.938,0.303,7.368,3.364l0.913,10.16c-0.014,4.393-0.974,7.412-3.02,9.829
		c-4.666,7.928-9.891,14.551-15.672,19.873c-7.612,6.581-14.51,9.299-20.691,8.153l4.119,7.957
		c7.241-0.256,14.21-3.361,20.836-8.925c6.097-4.865,10.861-11.175,14.153-18.157c-0.228-5.237,1.718-9.271,5.525-12.563
		l11.305-7.095c5.667-2.546,9.33-5.064,11.306-7.097c3.492-3.748,5.511-8.168,5.282-13.406c4.28-18.787-0.868-34.127-15.376-46.406
		l3.68-6.912C274.931,90.586,274.974,88.197,273.788,85.979z"/>
	<path fill-rule="evenodd" clip-rule="evenodd" fill="#003AA8" d="M255.305,239.597l-7.141,1.874l-7.912,1.731l-2.26-7.213
		c1.616-0.101,4.221-1.216,7.283-2.647l7.428-3.418L255.305,239.597z M219.388,250.123c-1.518,1.717-3.663,2.518-6.969,3.105
		l-8.229,1.271l-3.789-11.891l12.72,0.36C218.36,242.74,220.318,245.102,219.388,250.123z M126.228,218.07l1.043,2.993L147.39,216
		c5.494,7.011,12.818,12.766,22.363,17.331l27.1,9.02c-0.244,9.943,1.026,18.171,3.43,24.61l23.068-3.716
		c4.363-1.989,5.853-5.709,3.935-10.459l-3.79-11.893c2.048-2.418,5.353-3.003,10.375-2.073l4.69,15.655l12.593-3.262l11.818-3.402
		c1.347-2.948,0.375-6.326-2.458-10.446c-2.833-4.122-3.734-7.885-2.774-10.904l23.226-19.672
		c8.358-8.441,13.869-16.609,16.531-24.508l1.087,0.602l1.088,0.601c1.788,1.13,3.02,0.958,4.393,0.015
		c1.373-0.944,1.589-2.103,1.488-3.72l-2.375-4.436l-11.346-1.305l-11.462,1.473c-7.527,1.802-9.717,4.993-6.64,9.958
		c1.788,1.131,4.563,1.246,7.554,0.201c3.448-1.358,6.297-1.629,8.014-0.113c-14.412,21.704-39.241,37.082-74.629,46.907
		c-27.388,3.316-47.963-2.096-61.726-16.235c2.676-1.501,3.734-2.903,3.178-4.207l-3.048-2.961
		c-11.978-2.219-20.734-0.246-26.659,5.847L126.228,218.07z"/>
	<path fill-rule="evenodd" clip-rule="evenodd" fill="#003AA8" d="M226.38,374.097c-1.159-0.214-2.918,0.657-5.209,2.231
		c2.217,20.391,7.521,41.354,15.46,63.203l-39.54,21.445l6.652,7.227c4.166-5.222,11.207-8.713,21.653-11.171
		c10.902-2.775,18.258-5.809,21.992-8.711L226.38,374.097z"/>
	<path fill-rule="evenodd" clip-rule="evenodd" fill="#003AA8" d="M189.395,161.847c3.063-1.431,4.938-5.079,4.854-11.089
		l-4.836-4.093l-6.253-0.76l-4.479,4.765c-0.816,2.246-0.788,4.25,0.399,6.468C181.526,161.188,184.86,162.604,189.395,161.847z"/>
	<path fill-rule="evenodd" clip-rule="evenodd" fill="#003AA8" d="M227.233,134.495c-4.465,0.371-6.268,3.633-5.41,9.785
		c1.359,3.449,4.307,4.794,9.613,4.18l1.204-2.176l1.444-1.331l0.059-6.782l-3.119-2.577L227.233,134.495z"/>
</g>
</svg>
