<?xml version="1.0" encoding="UTF-8" standalone="no"?>
<!-- Created with Inkscape (http://www.inkscape.org/) -->

<svg
   xmlns:dc="http://purl.org/dc/elements/1.1/"
   xmlns:cc="http://creativecommons.org/ns#"
   xmlns:rdf="http://www.w3.org/1999/02/22-rdf-syntax-ns#"
   xmlns:svg="http://www.w3.org/2000/svg"
   xmlns="http://www.w3.org/2000/svg"
   xmlns:sodipodi="http://sodipodi.sourceforge.net/DTD/sodipodi-0.dtd"
   xmlns:inkscape="http://www.inkscape.org/namespaces/inkscape"
   width="153.20987"
   height="200.30075"
   id="svg2"
   version="1.1"
   inkscape:version="0.48.4 r9939"
   sodipodi:docname="WGN Superstation.svg">
  <defs
     id="defs4" />
  <sodipodi:namedview
     id="base"
     pagecolor="#ffffff"
     bordercolor="#666666"
     borderopacity="1.0"
     inkscape:pageopacity="0.0"
     inkscape:pageshadow="2"
     inkscape:zoom="2.8284271"
     inkscape:cx="-2.8797846"
     inkscape:cy="133.55456"
     inkscape:document-units="px"
     inkscape:current-layer="g12"
     showgrid="false"
     inkscape:window-width="1366"
     inkscape:window-height="706"
     inkscape:window-x="-8"
     inkscape:window-y="-8"
     inkscape:window-maximized="1"
     fit-margin-top="0"
     fit-margin-left="0"
     fit-margin-right="0"
     fit-margin-bottom="0" />
  <metadata
     id="metadata7">
    <rdf:RDF>
      <cc:Work
         rdf:about="">
        <dc:format>image/svg+xml</dc:format>
        <dc:type
           rdf:resource="http://purl.org/dc/dcmitype/StillImage" />
        <dc:title></dc:title>
      </cc:Work>
    </rdf:RDF>
  </metadata>
  <g
     inkscape:label="Layer 1"
     inkscape:groupmode="layer"
     id="layer1"
     transform="translate(-57.39186,-822.10461)">
    <g
       id="g10"
       transform="matrix(1.25,0,0,-1.25,16.706215,1042.02)">
      <g
         id="g12"
         transform="matrix(0.1,0,0,0.1,-2.5455844,-0.56568542)">
        <path
           style="fill:#000000;fill-opacity:1;fill-rule:evenodd;stroke:none"
           id="path16"
           inkscape:connector-curvature="0"
           d="m 1566.24,1529.39 0,-1260.956 -1215.299,0 0,1260.956 1215.299,0 z m -20.76,-21.78 -1173.781,0 0,-1218.419 1173.781,0 0,1218.419" />
        <path
           style="fill:#ff7f2a;fill-opacity:1;fill-rule:evenodd;stroke:none"
           id="path18"
           inkscape:connector-curvature="0"
           d="m 482.742,1494.11 c 49.82,5.19 105.86,-18.68 131.809,-39.44 4.148,-5.19 10.375,-16.6 16.605,-17.64 10.375,-2.08 17.641,1.04 22.832,3.11 25.946,6.23 56.043,9.34 79.914,12.46 69.532,13.49 208.602,22.83 213.789,10.38 4.153,-13.5 12.457,-34.25 17.645,-52.93 3.113,-10.38 6.226,-19.72 9.34,-29.06 3.117,-9.34 3.117,-8.31 5.191,-14.53 1.035,-9.34 12.453,-33.21 13.488,-38.4 56.045,-17.65 95.485,-41.52 120.395,-94.45 2.07,-6.22 -70.58,15.57 -105.86,20.76 0,-6.23 3.11,-14.53 3.11,-20.76 -1.04,-8.3 2.08,-16.6 -1.04,-16.6 -91.327,20.76 -165.011,-28.02 -165.011,-28.02 l 56.043,-11.42 -12.457,-31.13 56.043,-12.46 -31.133,-61.23 c 0,0 31.133,-13.49 44.625,-18.68 -1.039,-17.64 -13.492,-37.36 -17.64,-50.85 5.187,3.11 35.285,26.98 42.55,33.21 7.262,6.22 14.528,6.22 21.79,11.41 9.34,6.23 17.65,15.57 25.95,20.76 1.04,-2.08 11.42,-8.3 12.45,-9.34 0,-2.08 11.42,-7.27 13.49,-8.3 12.46,-8.31 15.57,-29.06 17.65,-46.71 1.03,-20.75 -8.31,-8.297 -22.83,-5.184 -3.12,2.074 -9.34,5.184 -9.34,4.154 -2.08,-2.08 -2.08,-11.419 4.15,-21.798 3.11,-3.113 13.49,-10.379 16.6,-12.453 6.23,-6.231 4.16,-29.059 8.31,-38.399 -8.31,3.114 -17.65,8.301 -28.03,11.414 0,-128.687 -17.64,-238.699 -33.21,-349.746 -20.753,13.492 -25.944,5.188 -38.398,25.946 -19.718,-3.114 -19.718,-5.188 -37.359,-9.34 0,0 -4.152,0 -12.457,3.109 -6.223,3.117 -11.414,18.684 -2.074,26.985 13.492,11.417 25.945,29.062 28.019,50.855 4.153,39.437 18.684,69.535 15.571,108.973 -1.039,10.375 -5.192,37.363 -1.039,51.89 1.039,9.34 0,44.625 -5.192,39.442 -5.187,-4.157 -59.156,-42.555 -88.211,-63.313 -11.418,-8.305 -83.031,-63.308 -94.445,-72.648 -9.34,-8.301 -17.641,-18.68 -26.984,-24.907 -2.075,-2.074 -14.532,-16.605 -17.641,-17.644 -6.23,-2.074 -16.605,-4.148 -22.836,4.152 -9.34,17.645 -1.035,44.629 6.231,69.535 5.187,15.567 22.832,33.207 38.398,39.438 8.305,5.187 22.832,17.641 28.023,23.867 4.149,5.192 17.641,17.649 12.454,13.496 8.3,6.227 20.753,14.528 18.679,14.528 -6.226,1.039 -35.285,39.437 -44.625,48.777 -11.418,10.379 -41.512,70.574 -52.929,78.871 -9.34,8.31 -23.872,19.72 -36.325,25.95 3.114,-2.08 -22.832,-26.98 -22.832,-26.98 -17.64,-21.798 -67.461,-131.806 -70.574,-133.884 -8.301,-3.109 -33.211,-91.328 -38.398,-105.859 -5.188,4.152 -56.043,80.953 -62.274,98.597 -3.109,9.34 -23.867,133.879 -23.867,133.879 0,0 145.297,322.767 147.371,323.797 3.113,5.2 11.418,11.42 14.531,14.54 10.379,19.71 0,29.05 -5.191,40.47 -5.188,9.34 -15.566,24.91 -22.832,33.21 -18.68,20.76 -62.266,47.74 -103.781,44.63 -9.34,0 -25.946,-4.15 -30.098,-6.23 -3.113,-1.04 -11.414,-11.42 -14.531,-12.45 l 1.039,-5.19 c -18.68,-3.12 -24.91,14.53 -18.68,31.13 5.188,10.38 30.098,31.14 56.039,34.25 z m 819.888,-100.67 c -6.23,-6.23 -15.57,-18.68 -23.87,-20.76 -26.98,-6.22 -47.74,14.53 -74.72,11.42 -34.25,-2.08 -34.25,-30.1 -51.9,-40.48 -11.41,-6.22 -29.05,-9.33 -41.51,-15.56 -3.11,0 -20.75,-5.19 -21.79,-6.23 6.23,-2.08 21.79,-16.61 24.91,-19.72 11.41,-6.23 20.75,-12.45 32.17,-20.75 3.11,-3.12 12.45,-11.42 16.6,-12.46 3.12,-2.08 28.03,-20.76 36.33,-22.83 6.22,-1.04 15.56,5.19 12.45,9.34 -4.15,7.27 -10.38,14.53 -13.49,17.64 -7.26,7.27 -37.36,29.06 -35.29,31.14 4.16,0 13.5,-8.31 21.8,-13.49 44.63,-23.88 83.02,-44.63 141.14,-59.16 -11.41,-30.1 -9.34,-26.98 12.46,-41.51 -3.12,-6.23 -6.23,-11.42 -9.35,-18.68 17.65,-17.65 38.41,-43.59 52.94,-63.31 2.07,5.19 14.53,19.72 14.53,24.91 3.11,13.49 -3.12,39.43 -6.23,53.96 -3.11,11.42 -5.19,25.95 -6.23,35.29 -2.07,6.23 -2.07,9.34 -5.19,20.76 -2.07,8.3 -19.71,9.34 -46.7,19.72 -15.57,4.14 -35.29,12.45 -50.85,17.64 -11.42,3.11 -22.84,7.26 -32.18,12.45 -14.53,8.3 -37.36,32.18 -41.51,35.29 -5.19,5.19 -6.23,9.34 -6.23,12.45 0,2.08 7.27,11.42 15.57,11.42 33.21,0 55.01,-8.31 89.25,-12.45 13.49,20.75 25.95,36.32 43.6,52.92 3.11,3.12 38.39,38.4 23.86,36.33 -14.52,-1.04 -59.15,-25.94 -70.57,-35.29 z m -86.14,-355.98 c 0,0 75.76,-53.96 79.91,-57.073 0,0 5.19,9.34 6.23,14.527 5.19,14.526 14.53,15.566 8.3,24.906 -17.64,31.14 -44.62,66.42 -97.55,85.1 9.34,-3.11 -2.08,-53.96 3.11,-67.46 z m -423.435,-20.75 -6.227,-6.23 c -3.113,-1.04 -7.262,-6.23 -9.34,-9.34 -8.3,-26.98 15.567,-52.929 40.477,-47.742 10.379,1.04 33.207,7.266 21.793,39.442 -8.301,23.87 -33.211,25.94 -46.703,23.87 z m 417.205,-47.741 c 14.53,-11.414 35.29,-29.059 43.6,-26.985 6.22,3.114 12.45,20.754 15.56,36.325 -11.42,3.113 -41.51,17.644 -50.85,13.492 -14.53,-5.188 -8.31,-22.832 -8.31,-22.832 z m -43.58,-89.254 c 3.11,-7.266 9.34,-24.906 13.49,-29.059 23.87,9.34 50.85,26.985 69.53,39.442 -4.15,13.488 -13.49,34.242 -17.64,31.132 -12.45,-13.496 -60.19,-41.515 -65.38,-41.515" />
        <path
           style="fill:#000000;fill-opacity:1;fill-rule:evenodd;stroke:none"
           id="path20"
           inkscape:connector-curvature="0"
           d="m 503.504,1467.13 c 65.383,3.11 129.726,-50.86 155.672,-91.33 7.265,-15.57 17.644,-33.21 -5.188,-47.74 -3.113,-3.11 -12.457,-5.19 -18.683,-3.11 -22.832,4.14 -22.832,39.43 -32.172,59.15 -5.188,9.34 -22.828,32.17 -38.403,44.63 -19.714,14.53 -69.531,31.13 -101.703,14.53 -6.226,-3.12 -12.453,-12.46 -18.683,-14.53 -3.11,-1.04 -6.223,-1.04 -8.301,0 -1.039,2.07 -6.227,5.19 5.191,16.6 12.45,12.46 36.325,20.76 62.27,21.8" />
        <path
           style="fill:#000000;fill-opacity:1;fill-rule:evenodd;stroke:none"
           id="path22"
           inkscape:connector-curvature="0"
           d="m 492.086,1427.69 c 17.644,0 32.172,-5.19 41.512,-10.38 56.047,-35.29 29.058,-68.49 14.527,-122.46 -15.563,15.56 -35.281,33.21 -52.926,45.66 2.074,0 8.305,5.19 10.379,6.23 3.113,4.15 6.227,7.26 9.34,8.3 -14.527,11.42 -29.059,20.76 -48.777,31.14 0,0 10.379,6.22 11.418,6.22 11.414,3.12 16.605,3.12 29.054,4.15 -1.035,0 -20.754,20.76 -32.172,28.03 -1.039,1.03 6.227,3.11 17.645,3.11" />
        <path
           style="fill:#000000;fill-opacity:1;fill-rule:evenodd;stroke:none"
           id="path24"
           inkscape:connector-curvature="0"
           d="m 753.617,1297.96 c 1.039,0 3.117,-8.3 4.153,-13.49 -18.68,-14.53 -39.438,-26.99 -57.079,-42.55 -19.722,-16.61 -37.363,-35.29 -52.929,-55.01 -17.645,-20.75 -33.211,-41.51 -46.703,-68.49 -8.305,-16.61 -11.414,-29.06 -17.645,-46.71 -18.684,-61.23 -29.055,-128.687 -35.289,-206.526 -1.031,-20.754 -6.223,-75.762 -3.109,-87.176 2.078,-4.149 23.871,-28.02 26.98,-33.211 17.649,-22.832 24.91,-26.981 42.555,-49.817 1.035,-1.035 16.605,-22.832 16.605,-22.832 0,0 -10.379,0 -45.664,0 -34.25,2.075 -56.047,2.075 -97.558,-3.113 -5.192,11.418 -16.606,34.25 -19.719,43.59 -2.074,6.227 0,37.363 0,62.27 2.078,32.171 5.187,69.535 9.344,104.82 8.3,71.609 16.605,133.875 40.472,191.995 5.192,9.34 23.871,39.44 30.094,49.82 35.289,49.82 83.031,92.37 138.035,133.88 11.414,8.3 61.231,45.66 67.457,42.55" />
        <path
           style="fill:#000000;fill-opacity:1;fill-rule:evenodd;stroke:none"
           id="path26"
           inkscape:connector-curvature="0"
           d="m 761.922,1108.04 c 4.152,0 9.34,5.19 20.758,17.64 3.109,3.11 9.34,-14.53 15.566,-15.57 5.188,-2.07 12.453,0 25.945,-2.07 6.227,-23.87 23.871,-79.92 21.793,-77.84 -42.55,23.87 -89.25,26.98 -91.328,29.06 -4.148,9.34 -6.226,13.49 -12.453,26.98 -3.113,8.31 -8.301,18.68 -12.453,30.1 14.527,-3.11 24.906,-8.3 32.172,-8.3" />
        <path
           style="fill:#000000;fill-opacity:1;fill-rule:evenodd;stroke:none"
           id="path28"
           inkscape:connector-curvature="0"
           d="m 860.512,1111.15 c 20.761,-13.49 25.949,-18.68 37.363,-41.51 -8.301,-6.23 -11.414,-7.26 -17.641,-14.53 -5.191,-6.23 -14.531,-15.57 -16.605,-17.65 l -6.227,0 c 0,4.16 -1.039,14.53 -1.039,14.53 1.039,22.84 1.039,43.59 4.149,59.16" />
        <path
           style="fill:#000000;fill-opacity:1;fill-rule:evenodd;stroke:none"
           id="path30"
           inkscape:connector-curvature="0"
           d="m 639.457,1086.24 c 2.074,-8.3 16.605,-62.27 17.645,-72.65 0,0 -4.153,-10.37 -4.153,-14.524 -16.601,-48.777 -13.492,-129.73 -7.261,-185.769 5.187,-41.516 19.714,-105.859 19.714,-105.859 -2.074,-1.04 -8.3,-1.04 -12.453,-1.04 -2.074,0 -14.527,23.868 -14.527,26.985 -11.418,20.754 -17.645,32.172 -25.949,55.004 -5.188,9.34 -12.453,28.019 -15.567,39.437 -22.832,72.645 -19.718,167.09 17.645,224.166 4.148,10.39 18.679,25.95 24.906,34.25" />
        <path
           style="fill:#000000;fill-opacity:1;fill-rule:evenodd;stroke:none"
           id="path32"
           inkscape:connector-curvature="0"
           d="m 960.148,1055.11 c -8.304,-30.1 -40.476,-147.376 -40.476,-148.411 0,14.531 -17.645,83.028 -23.871,103.781 -3.11,6.23 41.515,34.25 64.347,44.63" />
        <path
           style="fill:#000000;fill-opacity:1;fill-rule:evenodd;stroke:none"
           id="path34"
           inkscape:connector-curvature="0"
           d="m 768.148,1039.54 c 9.34,-2.08 62.27,-14.53 73.684,-30.1 4.152,-5.19 56.043,-112.081 52.934,-125.573 -3.118,-11.418 -59.157,-62.269 -69.539,-74.726 -32.172,-35.282 -60.192,-70.567 -80.95,-117.274 0,0 -8.3,2.078 -8.3,0 -25.946,75.762 11.414,102.746 74.722,142.184 10.379,5.187 31.133,13.492 34.25,24.91 3.113,10.375 -3.117,52.926 -9.34,56.039 -11.418,7.266 -28.023,10.379 -37.363,20.758 -17.641,10.379 -26.984,24.906 -33.211,47.742 l -2.074,14.527 c 3.113,0 12.453,-2.074 14.527,0 2.078,-6.226 0,-14.527 2.078,-17.64 1.039,-5.192 9.34,-12.457 12.454,-14.532 11.414,-9.339 29.058,-8.3 38.398,-2.074 5.191,4.149 6.227,2.074 8.301,13.489 3.113,9.343 -7.262,20.757 -7.262,20.757 0,0 0,-19.718 -9.34,-22.832 -3.113,-1.035 -14.531,-3.113 -21.797,2.075 -7.265,1.039 -10.375,11.418 -11.414,14.531 -2.078,7.265 3.114,12.449 9.34,14.529 11.418,1.04 9.34,-10.377 17.641,-8.303 5.191,0 6.23,8.303 5.191,11.413 -2.074,1.04 -11.414,3.12 -16.605,4.15 -21.793,0 -32.172,-3.11 -60.196,6.23 -17.64,7.27 -13.492,24.91 -4.152,25.95 8.305,3.11 19.723,-3.12 28.023,-6.23" />
        <path
           style="fill:#000000;fill-opacity:1;fill-rule:evenodd;stroke:none"
           id="path36"
           inkscape:connector-curvature="0"
           d="m 679.934,1042.65 c 0,2.08 43.586,-30.09 43.586,-32.17 20.757,-42.55 63.308,-102.746 89.253,-123.5 3.114,-1.039 8.305,-6.226 9.344,-9.339 -17.644,-11.414 -33.211,-30.098 -50.855,-43.59 -17.645,-13.492 -40.477,-23.871 -49.817,-47.739 -6.222,-22.835 -12.457,-46.707 -14.531,-76.8 0,2.074 -14.527,-2.074 -14.527,-2.074 -4.153,21.792 -9.344,35.285 -14.532,55.003 0,3.114 -15.566,43.59 -4.152,58.118 21.797,23.871 35.285,15.57 53.969,21.793 5.187,2.078 19.719,8.304 23.871,9.343 l 23.871,14.532 c -23.871,-1.043 -56.043,3.109 -74.723,16.605 -29.062,18.68 -49.816,59.152 -29.062,147.368 2.074,7.26 3.117,11.42 8.305,12.45" />
        <path
           style="fill:#000000;fill-opacity:1;fill-rule:evenodd;stroke:none"
           id="path38"
           inkscape:connector-curvature="0"
           d="m 960.148,900.469 c 2.075,-2.074 5.188,-20.754 5.188,-29.055 6.226,-67.461 0,-138.031 -8.305,-194.074 -2.074,0 -11.414,2.074 -11.414,2.074 0,24.906 -3.113,45.664 -6.226,63.309 -6.227,48.777 -17.645,66.418 -17.645,66.418 -6.223,-10.375 -29.055,-61.227 -33.211,-66.418 -2.074,-1.039 -7.262,17.644 -7.262,17.644 -1.039,7.262 -7.265,28.02 -7.265,28.02 0,0 4.152,6.226 12.453,17.644 22.832,30.098 50.855,65.383 73.687,94.438" />
        <path
           style="fill:#000000;fill-opacity:1;fill-rule:evenodd;stroke:none"
           id="path40"
           inkscape:connector-curvature="0"
           d="m 785.789,704.32 c 1.039,2.078 17.645,-12.453 23.875,-20.758 1.035,-1.035 -9.344,-18.679 -12.457,-24.902 0,0 6.227,-8.305 24.91,-24.91 8.301,-6.227 35.285,-23.871 35.285,-20.754 5.188,16.602 22.832,34.246 25.946,35.281 3.113,0 22.832,-7.261 18.679,-12.453 -21.793,-32.168 -6.226,-67.457 -6.226,-67.457 -3.11,-3.113 -4.153,-11.414 -9.34,-9.34 -67.457,26.981 -128.691,71.61 -139.07,117.274 -2.075,3.113 24.91,20.758 38.398,28.019" />
        <path
           style="fill:#000000;fill-opacity:1;fill-rule:evenodd;stroke:none"
           id="path42"
           inkscape:connector-curvature="0"
           d="m 545.016,651.395 c 34.246,2.074 102.746,3.113 102.746,3.113 l 25.941,-30.098 c 0,0 -78.871,-11.414 -108.973,-17.644 -14.527,-3.11 -14.527,-3.11 -24.902,-4.153 -3.117,0 -13.492,-4.148 -15.57,-5.187 2.078,-5.188 9.34,-16.606 12.453,-22.832 0,0 -59.152,-21.797 -89.25,-38.399 -25.945,-12.453 -62.273,-35.289 -85.106,-47.742 0,9.344 0,29.059 0,38.402 0,5.184 37.364,25.942 75.766,41.512 36.32,14.531 71.609,25.949 80.949,30.098 -6.226,13.488 -13.492,34.246 -13.492,34.246 l -7.266,11.418 c 0,0 34.25,6.226 46.704,7.266" />
        <path
           style="fill:#000000;fill-opacity:1;fill-rule:evenodd;stroke:none"
           id="path44"
           inkscape:connector-curvature="0"
           d="m 732.859,620.258 c 4.153,1.035 14.532,-16.602 44.629,-34.25 19.719,-11.414 35.285,-18.68 56.047,-23.871 2.074,-2.075 2.074,-32.172 2.074,-32.172 -31.136,5.191 -42.554,11.418 -55.004,17.644 l -15.57,-9.339 C 748.43,529.965 735.977,526.855 715.223,514.398 705.879,509.211 695.5,504.02 686.16,499.871 679.934,496.758 666.441,486.379 660.215,483.266 596.906,446.941 543.977,406.465 487.934,358.723 c -7.266,-5.188 -51.891,-44.625 -69.536,-69.532 -3.113,-4.152 -8.3,-12.453 -8.3,-12.453 l -47.743,0 c 0,0 -1.035,114.16 0,132.84 0,3.113 30.098,25.949 35.29,28.024 19.718,12.453 41.511,28.019 62.269,39.433 40.477,23.871 78.871,43.59 125.578,64.348 29.059,12.453 45.664,20.754 80.949,32.172 4.153,0 21.793,6.23 29.059,9.343 8.305,2.075 14.531,5.188 19.723,5.188 -2.078,0 6.222,-17.645 6.222,-17.645 -124.539,-37.359 -215.867,-81.988 -300.972,-150.484 -3.11,-2.078 -25.946,-22.832 -25.946,-24.91 0,-14.531 0,-62.27 0,-62.27 0,0 19.723,17.645 47.743,38.399 46.703,34.254 119.351,81.992 168.128,108.976 48.778,25.946 123.504,64.344 129.727,67.457 7.266,3.114 22.836,8.305 21.797,11.418 0,3.11 -16.606,20.758 -17.645,21.793 -5.187,5.188 -20.757,34.25 -17.64,35.289 1.035,2.075 3.113,4.149 6.222,4.149" />
        <path
           style="fill:#000000;fill-opacity:1;fill-rule:evenodd;stroke:none"
           id="path46"
           inkscape:connector-curvature="0"
           d="m 786.828,511.285 c 2.078,1.039 5.192,4.153 8.305,0 2.074,-2.074 5.187,-8.301 6.226,-10.379 -35.285,-23.871 -64.347,-50.851 -92.371,-83.027 -5.183,-6.227 -16.601,3.117 -17.636,6.23 6.222,6.227 15.562,19.715 20.753,23.868 9.34,10.378 17.645,17.644 26.985,25.949 14.527,14.527 30.098,23.871 47.738,37.359" />
        <path
           style="fill:#000000;fill-opacity:1;fill-rule:evenodd;stroke:none"
           id="path48"
           inkscape:connector-curvature="0"
           d="m 1383.58,1222.2 35.29,-30.1 -11.42,-11.41 7.26,-22.83 -18.67,-23.88 -19.72,78.88 7.26,9.34" />
        <path
           style="fill:#000000;fill-opacity:1;fill-rule:evenodd;stroke:none"
           id="path50"
           inkscape:connector-curvature="0"
           d="m 863.629,521.664 c 8.301,0 14.531,7.266 14.531,14.531 0,8.301 -6.23,14.528 -14.531,14.528 -7.266,0 -14.531,-6.227 -14.531,-14.528 0,-7.265 7.265,-14.531 14.531,-14.531" />
        <path
           style="fill:#000000;fill-opacity:1;fill-rule:evenodd;stroke:none"
           id="path52"
           inkscape:connector-curvature="0"
           d="m 900.992,515.438 c 6.227,0 12.453,6.226 12.453,14.527 0,6.23 -6.226,12.457 -12.453,12.457 -8.301,0 -14.531,-6.227 -14.531,-12.457 0,-8.301 6.23,-14.527 14.531,-14.527" />
        <path
           style="fill:#000000;fill-opacity:1;fill-rule:evenodd;stroke:none"
           id="path54"
           inkscape:connector-curvature="0"
           d="m 916.559,485.34 c 8.304,0 14.527,6.226 14.527,14.531 0,7.266 -6.223,14.527 -14.527,14.527 -6.227,0 -12.454,-7.261 -12.454,-14.527 0,-8.305 6.227,-14.531 12.454,-14.531" />
        <path
           style="fill:#000000;fill-opacity:1;fill-rule:evenodd;stroke:none"
           id="path56"
           inkscape:connector-curvature="0"
           d="m 875.043,489.492 c 6.23,0 13.492,7.266 13.492,13.492 0,8.301 -7.262,12.454 -13.492,12.454 -6.223,0 -12.453,-4.153 -12.453,-12.454 0,-6.226 6.23,-13.492 12.453,-13.492" />
        <path
           style="fill:#000000;fill-opacity:1;fill-rule:evenodd;stroke:none"
           id="path58"
           inkscape:connector-curvature="0"
           d="m 940.43,514.398 c 7.261,0 13.492,4.153 13.492,10.375 0,8.309 -6.231,13.497 -13.492,13.497 -6.227,0 -12.457,-5.188 -12.457,-13.497 0,-6.222 6.23,-10.375 12.457,-10.375" />
        <path
           style="fill:#000000;fill-opacity:1;fill-rule:evenodd;stroke:none"
           id="path60"
           inkscape:connector-curvature="0"
           d="m 838.719,500.906 c 6.23,0 10.379,5.192 10.379,10.379 0,6.227 -4.149,10.379 -10.379,10.379 -5.184,0 -10.375,-4.152 -10.375,-10.379 0,-5.187 5.191,-10.379 10.375,-10.379" />
        <path
           style="fill:#000000;fill-opacity:1;fill-rule:evenodd;stroke:none"
           id="path62"
           inkscape:connector-curvature="0"
           d="m 633.23,672.148 c -3.113,0 14.532,-17.64 14.532,-17.64 0,0 79.91,-10.379 91.328,-13.492 1.035,0 -3.113,13.492 -3.113,13.492 0,0 -75.762,16.605 -102.747,17.64" />
        <path
           style="fill:#000000;fill-opacity:1;fill-rule:evenodd;stroke:none"
           id="path64"
           inkscape:connector-curvature="0"
           d="m 536.711,576.668 c -1.035,-2.074 17.648,-20.754 17.648,-20.754 32.168,14.527 88.211,36.324 136.993,39.434 1.035,2.078 -8.309,16.605 -11.418,16.605 -37.364,-3.109 -100.672,-17.637 -143.223,-35.285" />
        <path
           style="fill:#000000;fill-opacity:1;fill-rule:evenodd;stroke:none"
           id="path66"
           inkscape:connector-curvature="0"
           d="m 710.031,629.598 3.114,-14.528 -33.211,-3.117 -5.188,14.531 35.285,3.114" />
        <path
           style="fill:#000000;fill-opacity:1;fill-rule:evenodd;stroke:none"
           id="path68"
           inkscape:connector-curvature="0"
           d="m 1372.17,430.336 c -76.8,46.699 -158.79,90.289 -158.79,90.289 l 14.53,4.148 c 0,0 56.04,-26.976 59.15,-28.015 0,0 76.8,-40.477 89.26,-48.781 61.23,-33.207 122.46,-70.571 179.54,-108.969 0,13.488 0,48.773 0,48.773 0,0 -6.22,4.157 -10.38,7.266 -75.76,49.82 -160.86,91.332 -240.77,136.992 -22.84,12.457 -75.76,41.516 -76.8,42.555 4.15,3.113 12.45,5.191 12.45,5.191 0,0 160.87,-65.387 315.5,-163.98 0,10.379 0,38.402 0,38.402 0,0 -95.48,60.191 -192,102.746 -47.74,22.832 -97.55,43.586 -97.55,43.586 l 11.41,8.305 c 0,0 56.05,-25.946 73.69,-32.176 35.29,-16.606 59.16,-25.945 92.37,-41.512 37.36,-16.605 76.79,-38.398 112.08,-59.156 0,347.672 0,1044.05 0,1044.05 l -1194.54,0 0,-908.097 c 0,0 42.547,23.871 135.953,32.176 -3.109,7.266 -5.187,17.641 -9.339,24.906 -35.286,0 -63.305,-6.226 -91.329,-10.375 0,83.024 0,169.164 0,256.34 0,28.023 0,68.5 0,97.56 0,3.11 7.262,7.26 9.34,11.41 8.305,10.39 15.571,28.02 20.758,39.44 9.34,23.87 15.567,85.1 26.981,111.05 8.304,18.68 30.101,56.04 25.949,73.68 -2.074,4.16 -11.418,14.54 -14.531,17.65 -3.114,6.23 -5.188,11.41 -9.34,17.64 -16.606,32.18 -34.246,52.93 -43.586,91.33 -11.418,42.55 -6.231,80.95 23.867,100.67 5.191,3.11 11.418,3.11 17.641,6.23 55.007,20.75 121.429,-8.31 149.449,-29.06 7.265,-6.23 20.758,-18.68 28.023,-23.87 l 16.606,5.19 c 20.754,3.11 35.281,6.22 52.929,9.34 67.457,12.45 180.582,23.87 248.039,16.6 -3.113,7.27 -6.226,15.57 -9.339,24.91 194.069,0 391.259,0 584.299,0 0,-222.09 -1.04,-447.31 -1.04,-669.399 -38.4,11.414 -65.38,17.641 -111.05,5.188 5.19,-7.262 29.06,-35.286 29.06,-35.286 l -25.95,-25.945 19.73,-35.285 -38.4,-8.305 18.67,-52.929 -50.85,-3.114 19.72,-43.586 -37.36,-12.453 -67.46,16.602 79.92,65.383 10.37,38.402 15.57,53.965 16.61,49.816 -8.31,52.93 18.68,9.344 -9.34,45.66 c 0,0 23.87,15.566 26.99,20.758 2.07,3.113 -6.23,32.172 -9.34,39.437 -5.2,14.527 -12.46,23.867 -18.68,38.407 0,0 -7.27,13.48 -8.31,13.48 3.12,9.34 12.46,21.8 12.46,24.91 -3.12,19.72 -44.63,70.57 -56.04,87.18 -1.04,1.03 -11.42,11.42 -11.42,11.42 l 7.26,17.64 -21.79,20.76 c 0,0 7.26,12.45 10.38,23.86 -40.48,8.31 -56.05,17.65 -102.75,38.41 -8.3,3.11 -52.93,26.98 -65.38,33.2 -10.38,5.19 -14.53,5.19 -7.27,-3.11 14.53,-12.45 21.8,-20.75 39.44,-39.43 18.68,-20.76 -8.3,-10.38 -16.6,-2.08 -20.76,19.72 -56.05,43.59 -79.92,58.12 17.64,6.23 41.51,10.37 56.05,20.76 14.53,11.41 18.68,35.28 41.51,38.4 29.06,4.14 55.01,-16.61 79.91,-11.42 5.19,0 13.49,8.3 20.76,17.64 20.75,15.57 41.51,33.21 70.57,40.48 5.19,1.03 -29.06,-32.18 -41.52,-43.59 -3.11,-3.11 -26.98,-34.25 -26.98,-34.25 -22.83,-7.26 -115.2,32.17 -103.78,-15.57 0,-5.19 18.68,-20.76 21.8,-23.87 3.11,-5.19 12.45,-14.53 17.64,-17.64 14.53,-8.3 26.98,-9.34 44.62,-16.61 31.14,-9.34 64.35,-20.75 96.52,-31.13 8.31,15.56 11.42,26.98 17.65,44.62 -19.72,8.31 -9.34,11.42 -29.06,-11.41 -23.87,14.53 -70.58,46.7 -70.58,46.7 l 59.16,-6.22 -7.26,35.28 57.08,-10.38 c 0,0 19.71,-6.22 29.06,-7.26 5.18,69.54 -14.53,100.67 -53.97,115.2 -46.7,17.64 -102.75,-10.38 -138.03,-25.95 -3.12,-2.07 -19.72,-11.42 -23.87,-11.42 -13.5,2.08 -25.95,8.31 -37.36,11.42 -29.07,8.3 -58.12,15.57 -86.14,20.76 -46.71,8.3 -93.41,16.6 -146.34,16.6 2.079,-5.19 2.079,-5.19 2.079,-10.38 0,0 -6.231,2.08 -11.418,2.08 -25.946,-2.08 -56.043,0 -79.911,-3.11 -22.835,-2.08 -46.707,-8.31 -66.425,-13.5 l -13.489,-4.15 c 65.383,0 126.614,-11.41 185.77,-22.83 l -7.266,26.98 c 0,0 32.172,-6.22 43.59,-23.87 -12.453,-3.11 -21.793,-6.22 -33.211,-9.34 l 0,-8.3 c -22.832,6.23 -52.926,11.42 -70.574,11.42 -19.715,2.07 -46.703,6.22 -91.328,2.07 -20.758,-2.07 -48.777,-8.3 -55.004,-11.41 29.062,-6.23 64.344,-14.53 91.332,-23.87 11.414,-5.19 45.66,-16.61 52.926,-20.76 2.074,0 22.832,12.45 40.476,17.64 11.414,1.04 32.172,4.15 39.438,4.15 0,5.2 -1.039,8.31 -1.039,8.31 3.117,-5.19 14.531,-6.23 25.944,-12.46 l 53.97,17.65 38.4,-17.65 c 0,0 -57.08,-21.79 -78.88,-28.02 -3.11,3.11 -9.34,11.42 -12.45,14.53 -9.34,8.3 -23.867,13.49 -23.867,13.49 3.109,-7.26 9.34,-37.36 9.34,-37.36 0,0 -20.758,2.08 -35.289,3.12 -15.567,2.07 -47.739,3.11 -65.383,2.07 -26.981,-2.07 -58.117,-25.95 -75.762,-40.48 -39.437,-33.2 -77.84,-71.61 -108.972,-114.16 -6.227,-7.26 -33.211,-44.62 -35.286,-50.85 l 13.493,-15.57 14.527,-17.64 c 39.441,122.46 142.184,177.47 309.279,165.02 -3.12,26.98 -8.31,39.43 -14.533,60.19 50.853,-14.53 76.793,-33.21 105.863,-68.5 1.04,-3.11 10.38,-12.45 14.52,-17.64 -35.28,9.34 -63.3,17.64 -104.82,20.75 2.08,-11.41 5.19,-20.75 6.23,-32.17 -70.57,9.34 -98.594,5.19 -147.371,-17.64 -17.645,-8.3 -39.438,-25.95 -41.512,-26.98 26.981,0 49.813,-3.12 69.531,-9.34 -5.187,-7.27 -20.753,-29.06 -20.753,-31.14 9.339,0 48.777,-3.11 63.308,-14.53 -4.152,-10.38 -14.531,-28.02 -20.758,-50.85 35.285,14.53 67.457,26.98 115.195,32.17 -3.11,39.44 -9.34,74.72 -15.56,112.09 26.98,-8.31 47.74,-17.65 70.57,-30.1 11.42,-7.27 18.68,-13.49 29.06,-20.76 -7.26,-2.07 -22.83,-7.27 -32.17,-11.41 17.64,-13.5 39.43,-29.06 56.04,-45.67 11.42,-10.38 20.76,-21.79 32.17,-31.13 0,0 -13.49,-7.27 -13.49,-8.31 -4.15,-9.33 0,-32.17 -3.12,-30.09 -3.11,3.11 -20.75,30.09 -20.75,30.09 l -39.44,23.87 28.02,-40.47 -9.34,-42.55 c 0,0 -41.51,85.1 -46.7,86.14 -9.34,2.07 -21.79,0 -33.21,0 0,-12.46 0,-14.53 0,-23.87 0,-3.12 -40.478,-23.87 -47.74,-33.21 -2.078,-4.16 -10.378,-35.29 -16.605,-63.311 -6.227,-20.754 9.34,-18.68 11.418,-15.571 12.449,14.532 38.397,41.512 41.507,44.632 6.23,6.22 12.46,11.41 16.61,12.45 0,16.61 -2.08,28.02 -4.15,43.59 5.19,-1.03 31.13,-18.68 29.06,-18.68 5.18,-14.53 8.3,-25.95 11.41,-41.51 -15.57,4.15 -20.75,6.22 -36.32,10.37 0,-7.26 0,-17.637 0,-24.902 0,-2.075 -13.49,-8.301 -13.49,-8.301 -6.23,-6.227 -52.932,-43.59 -30.1,-47.742 6.227,0 39.44,20.753 44.63,23.871 2.07,1.039 0,20.754 0,24.906 0,2.078 14.53,-10.379 20.75,-15.567 l 8.3,-22.832 c -9.34,7.266 -20.75,8.301 -26.98,8.301 0,-74.722 -2.07,-124.539 -10.38,-214.828 -4.15,-44.629 -9.34,-71.613 -18.68,-139.07 9.34,-2.078 26.99,-3.11 38.4,0 11.42,3.113 23.87,18.683 23.87,18.683 l 17.65,-9.343 c -12.46,-15.567 -25.95,-25.946 -44.63,-35.286 0,-42.55 -6.23,-44.625 -31.14,-64.343 -3.11,-1.039 -6.22,-3.117 -9.34,-4.153 3.12,-3.113 34.25,-44.629 34.25,-44.629 14.53,-5.187 38.4,0 52.93,0 0,-2.074 1.04,-8.3 0,-14.531 -38.4,-10.375 -73.68,-8.297 -108.97,3.117 6.227,50.856 20.76,97.555 26.98,150.485 -11.413,5.187 -16.605,5.187 -22.827,12.453 -7.266,8.305 -9.34,19.719 -11.418,20.758 -4.153,2.074 -62.27,-18.684 -71.61,-21.793 0,0 49.817,-23.871 56.043,-28.024 -2.078,-12.453 -3.117,-24.906 -5.191,-33.211 0,-5.187 7.266,-12.453 7.266,-12.453 6.226,-16.605 15.57,-29.058 12.453,-31.136 -20.754,-21.793 -62.27,-28.02 -100.668,-23.868 -8.305,2.075 -34.25,8.301 -37.363,8.301 -3.11,0 -20.758,-12.453 -23.872,-14.527 -30.093,-20.758 -46.699,-41.516 -67.457,-71.614 -12.457,4.153 -25.945,7.266 -38.402,12.458 -11.414,-12.458 -26.98,-30.098 -44.625,-56.047 -5.187,3.113 -9.34,6.23 -14.527,8.304 14.527,20.754 29.058,36.325 43.59,57.082 -11.418,6.227 -19.723,11.418 -31.137,17.641 -3.113,2.074 -12.453,8.305 -14.527,9.34 -20.762,-13.488 -38.403,-24.906 -56.043,-39.438 -52.934,-38.398 -100.672,-83.023 -141.149,-134.914 298.895,0 600.904,0 899.804,0 -49.82,69.535 -104.83,121.426 -172.28,174.352 -4.15,5.191 -28.02,24.91 -33.22,25.945 -5.19,3.117 -6.22,2.078 -17.64,2.078 l 2.08,7.266 c 1.03,5.187 1.03,7.262 3.11,10.379 14.53,0 28.02,0 42.55,0 0,-7.266 0,-19.723 2.08,-19.723 6.23,-3.109 35.28,-26.98 41.51,-33.211 49.82,-43.586 112.08,-107.929 134.92,-132.84 l 26.98,-34.246 c 0,0 32.18,0 43.59,0 -56.04,67.457 -123.5,128.692 -190.96,181.617 -11.41,6.227 -19.72,15.571 -30.1,21.797 0,2.075 4.15,6.227 4.15,6.227 2.08,3.113 9.34,-3.113 14.54,-6.227 8.3,-3.117 47.73,-36.328 62.26,-47.742 7.27,-6.226 78.88,-72.648 105.86,-99.633 6.23,-8.3 52.93,-56.039 52.93,-56.039 l 115.2,0 0,17.641 c 0,0 -124.54,99.633 -183.69,135.957 z m -192,322.766 -11.42,41.511 60.2,41.516 3.11,-11.418 -51.89,-71.609 z m -8.3,123.5 c 18.68,7.265 44.62,23.867 59.15,39.437 0,0 9.34,-17.644 12.45,-23.867 -18.68,-14.531 -36.32,-23.871 -62.26,-35.289 -3.12,8.301 -6.23,12.453 -9.34,19.719 z m 121.42,39.437 14.53,-3.113 c 0,0 -20.76,-85.102 -33.21,-132.844 -11.41,-38.398 -28.02,-49.816 -32.17,-56.039 -2.08,17.641 -8.31,52.93 -8.31,52.93 2.08,0 25.95,17.64 29.07,26.98 4.14,9.344 30.09,112.086 30.09,112.086 z m 29.06,108.971 c 5.19,-3.11 18.68,-8.3 17.64,-14.53 0,-12.453 -2.07,-38.398 0,-56.042 5.19,-36.321 25.95,-71.606 18.69,-113.122 -3.12,-20.757 -36.33,-138.031 -36.33,-138.031 l -70.57,-72.648 -17.65,11.418 26.99,29.058 20.75,20.754 c 0,0 13.5,43.59 17.65,64.344 10.37,39.441 22.83,73.687 25.94,118.312 2.08,26.989 -5.19,44.629 -6.23,65.387 -2.07,29.059 0,59.156 3.12,85.1 z m -99.63,70.57 c 29.06,-14.53 37.36,-23.87 55,-43.59 7.27,-7.26 20.76,-24.9 28.02,-35.28 0,0 -10.37,-24.909 -10.37,-28.022 -11.42,6.226 -70.58,52.932 -72.65,56.042 -3.11,1.04 0,38.4 0,50.85 z m -97.56,-152.557 c 0,13.493 41.52,45.665 59.16,49.817 3.11,2.074 37.36,-4.152 44.63,-7.266 0,-2.074 32.17,-10.379 34.25,-10.379 1.03,-11.414 -9.34,-30.097 -9.34,-30.097 -17.65,11.418 -31.14,18.683 -48.79,30.097 3.12,-47.738 -7.26,-77.836 -62.27,-70.57 3.12,-23.871 5.2,-73.687 5.2,-73.687 l -24.91,14.531 c 0,0 0,79.91 2.07,97.554 z m -33.21,-218.98 -17.64,174.352 33.21,-17.641 0,-112.086 19.72,-14.531 -35.29,-30.094 z m 36.32,-373.621 11.42,43.59 40.48,-20.758 15.56,30.098 c 0,0 32.18,-38.399 36.33,-43.59 14.53,-17.645 28.02,-31.133 40.47,-48.778 -108.97,0 -327.952,0 -327.952,0 l 6.231,21.793 -19.723,23.871 -42.551,-28.019 -17.64,45.664 -43.59,-14.531 -3.114,38.402 -48.777,0 c 0,0 8.301,17.641 19.719,31.133 8.301,9.34 36.324,44.629 40.476,41.515 3.11,-2.074 31.133,-12.457 42.551,-16.605 32.172,-6.23 66.418,-7.266 101.707,-7.266 -7.265,-43.589 -25.945,-112.086 -25.945,-112.086 l 20.754,-20.757 41.514,42.55 37.36,-18.679 26.99,36.324 47.73,-23.871 z m -11.41,234.551 c -7.27,7.265 -11.41,7.265 -11.41,10.375 0,0 11.41,13.496 19.71,24.91 9.34,12.453 11.42,18.68 17.64,33.211 3.12,-6.227 9.34,-9.34 14.54,-14.531 -2.08,-3.114 -14.54,-22.829 -17.65,-26.985 -8.3,-9.34 -14.53,-17.637 -22.83,-26.98 z m 56.04,-19.719 c -12.45,-6.227 -45.66,-14.531 -45.66,-14.531 l 1.03,12.453 26.99,29.062 55,28.02 0,-29.059 c 0,0 -23.87,-19.719 -37.36,-25.945 z m -84.06,-50.856 c 0,-5.187 -4.15,-10.378 -8.3,-10.378 -6.23,0 -9.34,5.191 -9.34,10.378 0,4.153 3.11,9.344 9.34,9.344 4.15,0 8.3,-5.191 8.3,-9.344 z m -10.38,-29.058 c 0,-5.188 -4.15,-8.305 -9.34,-8.305 -3.12,0 -8.3,3.117 -8.3,8.305 0,4.152 5.18,9.34 8.3,9.34 5.19,0 9.34,-5.188 9.34,-9.34 z m 29.06,4.152 c 0,-4.152 -3.11,-7.265 -6.23,-7.265 -5.18,0 -8.3,3.113 -8.3,7.265 0,4.149 3.12,7.266 8.3,7.266 3.12,0 6.23,-3.117 6.23,-7.266 z m 12.45,29.059 c 0,-6.227 -4.15,-11.414 -9.34,-11.414 -5.18,0 -9.34,5.187 -9.34,11.414 0,5.191 4.16,10.379 9.34,10.379 5.19,0 9.34,-5.188 9.34,-10.379 z m -63.31,-9.34 c 0,-3.113 -3.11,-8.305 -8.3,-8.305 -5.19,0 -8.3,5.192 -8.3,8.305 0,5.187 3.11,9.34 8.3,9.34 5.19,0 8.3,-4.153 8.3,-9.34 z m 38.41,43.586 c 0,-5.188 -3.12,-8.301 -8.31,-8.301 -3.11,0 -6.22,3.113 -6.22,8.301 0,3.117 3.11,6.23 6.22,6.23 5.19,0 8.31,-3.113 8.31,-6.23 z m 49.81,-23.867 c 3.12,-4.157 4.15,-2.075 7.26,-2.075 14.54,6.227 31.14,17.641 40.48,25.942 3.11,0 6.23,0 11.42,-5.188 -5.19,-5.187 -31.14,-30.097 -34.25,-32.171 -1.04,-1.04 -11.42,6.226 -12.45,6.226 -6.23,0 -9.34,0 -12.46,-4.152 -2.08,-2.074 -4.15,-2.074 -5.19,-2.074 -5.19,0 -8.3,3.113 -8.3,8.304 0,3.113 3.11,6.223 8.3,6.223 1.04,0 3.11,0 5.19,-1.035" />
        <path
           style="fill:#000000;fill-opacity:1;fill-rule:evenodd;stroke:none"
           id="path70"
           inkscape:connector-curvature="0"
           d="m 1187.43,975.195 c 0,0 16.61,-35.285 -6.22,-49.816 -17.65,-12.453 -36.33,-3.113 -47.75,10.379 0,1.039 17.65,12.453 20.76,17.64 1.04,-2.074 8.3,-13.488 18.68,-5.187 7.27,3.113 2.08,12.453 -1.03,17.644 0,2.075 12.45,8.305 15.56,9.34" />
        <path
           style="fill:#000000;fill-opacity:1;fill-rule:evenodd;stroke:none"
           id="path72"
           inkscape:connector-curvature="0"
           d="m 1466.61,1484.77 110.01,193.03 -42.55,0 -41.52,-75.75 c -13.49,-22.84 -28.02,-32.18 -28.02,-32.18 -4.15,-3.11 -7.26,-1.03 -7.26,-1.03 -3.11,1.03 -2.08,4.14 -2.08,7.26 l 8.31,13.49 c 30.09,52.93 30.09,57.08 30.09,57.08 11.42,17.64 16.61,31.13 16.61,31.13 l -38.4,0 c 0,0 -11.42,-21.79 -13.5,-24.9 l -41.51,-68.5 c -12.45,-20.76 2.08,-32.17 2.08,-32.17 4.15,-3.11 10.38,-5.19 20.75,-5.19 9.34,0 18.68,7.26 24.91,10.38 l -39.44,-72.65 41.52,0" />
        <path
           style="fill:#ffffff;fill-opacity:1;fill-rule:evenodd;stroke:none"
           id="path74"
           inkscape:connector-curvature="0"
           d="m 1492.55,1529.39 -25.94,-44.62 -41.52,0 23.87,44.62 43.59,0" />
        <path
           style="fill:#000000;fill-opacity:1;fill-rule:evenodd;stroke:none"
           id="path76"
           inkscape:connector-curvature="0"
           d="m 1425.09,1484.77 -10.38,-15.57 c -3.11,-5.19 -9.33,-20.75 0,-31.13 7.27,-6.23 16.61,-6.23 16.61,-6.23 9.34,0 15.57,0 26.98,6.23 9.34,7.26 22.84,21.79 30.1,34.25 l -7.26,6.22 c -16.61,-20.75 -22.84,-25.94 -22.84,-25.94 -1.03,-3.12 -4.14,-3.12 -6.22,-1.04 0,0 -3.12,3.11 -2.08,6.23 l 8.3,12.45 8.31,14.53 -41.52,0" />
        <path
           style="fill:#000000;fill-opacity:1;fill-rule:evenodd;stroke:none"
           id="path78"
           inkscape:connector-curvature="0"
           d="m 1370.09,1660.16 c 2.08,-2.07 -1.04,-11.41 -1.04,-11.41 l -34.25,-58.12 c -7.26,-12.45 -17.64,-20.76 -17.64,-20.76 -3.11,-3.11 -4.15,-5.19 -6.23,-5.19 0,0 -1.04,-1.04 -6.22,-1.04 0,0 -3.12,1.04 -3.12,3.12 0,2.08 0,3.11 0,6.22 0,3.12 12.46,44.63 49.82,85.11 0,0 3.11,5.19 7.27,6.22 2.07,2.08 4.15,2.08 5.18,2.08 0,0 6.23,0 6.23,-6.23 z m 56.04,17.64 -41.51,0 -4.15,-11.41 c -2.08,6.23 -8.3,11.41 -8.3,11.41 -5.19,3.12 -13.49,4.16 -23.87,1.04 -2.08,0 -5.19,-1.04 -8.31,-1.04 0,0 -23.87,-10.37 -43.59,-34.24 -18.68,-23.88 -29.06,-47.74 -29.06,-47.74 -6.22,-14.53 -4.14,-26.98 -1.03,-34.25 1.03,-7.27 9.34,-12.45 9.34,-12.45 6.22,-3.12 16.6,-6.23 30.09,0 10.38,5.18 19.72,12.45 22.83,17.64 0,-19.72 19.73,-20.76 19.73,-20.76 0,0 18.68,-2.07 32.17,12.46 12.45,11.41 23.87,31.13 23.87,31.13 l -10.38,4.15 c 0,0 -6.23,-14.53 -15.57,-23.87 -5.19,-5.19 -9.34,-3.11 -11.41,-1.03 0,0 -1.04,1.03 2.07,6.22 l 57.08,102.74" />
        <path
           style="fill:#000000;fill-opacity:1;fill-rule:evenodd;stroke:none"
           id="path80"
           inkscape:connector-curvature="0"
           d="m 1328.57,1764.98 -43.58,0 c -7.27,-13.49 -101.71,-177.46 -103.78,-182.66 -9.34,-15.56 2.07,-28.02 2.07,-28.02 6.23,-7.26 17.64,-7.26 17.64,-7.26 7.27,0 15.57,0 24.92,7.26 11.41,6.23 20.75,17.65 31.13,33.22 l -8.31,6.22 c -14.53,-17.64 -20.75,-23.87 -20.75,-23.87 -3.12,-3.11 -6.23,0 -6.23,0 -2.07,2.08 -2.07,3.11 -2.07,6.23 l 108.96,188.88" />
        <path
           style="fill:#000000;fill-opacity:1;fill-rule:evenodd;stroke:none"
           id="path82"
           inkscape:connector-curvature="0"
           d="m 888.535,1660.16 c 1.039,7.27 -7.262,21.8 -29.055,20.76 0,0 -20.761,-2.08 -38.402,-22.83 -2.074,19.71 -17.644,26.98 -37.363,17.64 0,0 -21.793,-8.3 -41.512,-41.52 l 9.34,-6.22 c 10.379,18.68 23.871,30.1 23.871,30.1 4.152,2.07 7.266,0 7.266,0 3.109,-2.08 -2.075,-6.23 -2.075,-6.23 l -59.16,-102.74 44.629,0 41.512,75.76 c 13.492,24.91 28.023,33.21 28.023,33.21 4.149,3.11 7.266,2.07 7.266,2.07 3.109,-2.07 3.109,-5.19 2.074,-8.3 l -6.23,-11.41 c -32.172,-55.01 -34.246,-59.16 -34.246,-59.16 -11.418,-17.65 0,-29.06 0,-29.06 5.191,-6.23 16.605,-6.23 16.605,-6.23 9.34,-2.07 15.567,0 26.984,6.23 9.34,6.23 18.68,16.61 30.098,33.21 l -9.34,5.19 c -12.457,-15.57 -19.722,-21.79 -19.722,-21.79 -4.149,-4.16 -6.223,-2.08 -6.223,-2.08 -1.043,2.08 -3.117,3.11 -1.043,8.3 l 38.402,65.39 c 6.227,12.45 6.227,11.41 8.301,19.71" />
        <path
           style="fill:#000000;fill-opacity:1;fill-rule:evenodd;stroke:none"
           id="path84"
           inkscape:connector-curvature="0"
           d="m 588.602,1660.16 c 1.043,7.27 -6.223,21.8 -26.981,20.76 -17.644,-2.08 -32.176,-14.53 -37.363,-20.76 -1.035,6.23 -5.188,20.76 -26.985,20.76 0,0 -22.832,0 -41.511,-22.83 -2.078,19.71 -16.606,26.98 -37.364,17.64 0,0 -20.753,-8.3 -41.511,-41.52 l 9.34,-6.22 c 11.418,18.68 23.871,30.1 23.871,30.1 4.152,2.07 7.265,0 7.265,0 3.11,-2.08 0,-6.23 0,-6.23 l -60.195,-102.74 43.59,0 41.512,70.56 c 11.414,26.99 29.058,38.41 29.058,38.41 5.192,3.11 8.305,2.07 8.305,2.07 1.035,-2.07 3.109,-4.15 1.035,-8.3 l -59.152,-102.74 44.625,0 43.589,75.76 c 14.528,23.87 26.981,33.21 26.981,33.21 3.117,3.11 7.266,2.07 7.266,2.07 3.117,-2.07 3.117,-5.19 1.039,-8.3 l -6.231,-11.41 c -32.172,-55.01 -33.207,-59.16 -33.207,-59.16 -10.379,-17.65 0,-29.06 0,-29.06 4.152,-6.23 15.567,-6.23 15.567,-6.23 9.343,-2.07 15.566,0 26.98,6.23 9.344,6.23 19.723,16.61 31.137,33.21 l -8.301,5.19 c -14.527,-15.57 -20.758,-21.79 -20.758,-21.79 -5.187,-4.16 -6.226,-2.08 -6.226,-2.08 -2.075,2.08 -4.149,3.11 -2.075,8.3 l 40.477,65.39 c 4.148,12.45 4.148,11.41 6.223,19.71" />
        <path
           style="fill:#000000;fill-opacity:1;fill-rule:evenodd;stroke:none"
           id="path86"
           inkscape:connector-curvature="0"
           d="m 1193.66,1677.8 -41.52,0 -6.22,-11.41 c -1.04,6.23 -6.23,11.41 -6.23,11.41 -5.19,3.12 -12.45,4.16 -23.87,1.04 -3.11,0 -5.19,-1.04 -8.3,-1.04 0,0 -23.87,-10.37 -43.59,-34.24 -18.68,-23.88 -28.02,-47.74 -28.02,-47.74 -7.27,-14.53 -5.19,-26.98 -2.08,-34.25 2.08,-7.27 9.34,-12.45 9.34,-12.45 6.23,-3.12 16.61,-6.23 31.14,0 9.34,5.18 18.68,12.45 21.8,17.64 0,-19.72 19.71,-20.76 19.71,-20.76 0,0 17.64,-2.07 32.18,12.46 12.45,11.41 23.87,31.13 23.87,31.13 l -9.35,4.15 c 0,0 -8.3,-14.53 -17.64,-23.87 -5.19,-5.19 -8.3,-3.11 -10.38,-1.03 0,0 -1.04,1.03 0,6.22 l 59.16,102.74 z m -56.05,-17.64 c 2.08,-2.07 -1.03,-11.41 -1.03,-11.41 l -34.25,-58.12 c -7.26,-12.45 -17.64,-20.76 -17.64,-20.76 -3.12,-3.11 -4.15,-5.19 -6.23,-5.19 0,0 -3.12,-1.04 -6.23,-1.04 0,0 -3.11,1.04 -3.11,3.12 -2.07,2.08 -2.07,3.11 0,6.22 0,3.12 12.45,44.63 49.81,85.11 0,0 3.12,5.19 6.23,6.22 3.11,2.08 5.19,2.08 6.23,2.08 0,0 6.22,0 6.22,-6.23" />
        <path
           style="fill:#000000;fill-opacity:1;fill-rule:evenodd;stroke:none"
           id="path88"
           inkscape:connector-curvature="0"
           d="m 1096.11,1764.98 -41.52,0 -53.97,-98.59 c -5.19,18.68 -32.171,12.45 -32.171,12.45 0,0 -28.019,-5.19 -51.89,-35.28 -18.684,-23.88 -28.024,-47.74 -28.024,-47.74 0,0 -8.301,-23.87 1.039,-40.48 14.531,-17.64 37.364,-6.22 37.364,-6.22 9.339,5.18 20.753,12.45 23.871,17.64 -2.079,-19.72 17.64,-20.76 17.64,-20.76 0,0 18.684,-2.07 33.211,12.46 12.45,11.41 23.87,31.13 23.87,31.13 l -11.42,4.15 c 0,0 -6.22,-14.53 -15.563,-23.87 -5.192,-5.19 -9.34,-3.11 -11.414,-1.03 0,0 -1.043,1.03 2.074,6.22 l 106.903,189.92 z M 992.32,1658.09 c 0,0 -2.078,-2.08 -2.078,-5.19 l -3.109,-6.23 -32.176,-56.04 c -6.227,-12.45 -15.566,-20.76 -15.566,-20.76 -11.418,-8.3 -9.34,-6.23 -12.453,-6.23 -4.153,0 -7.266,3.12 -5.192,9.34 0,3.12 12.457,51.9 49.816,85.11 l 6.231,5.19 c 2.074,1.03 3.109,3.11 6.223,3.11 3.117,0 6.226,-2.08 6.226,-3.11 l 2.078,-5.19" />
        <path
           style="fill:#000000;fill-opacity:1;fill-rule:evenodd;stroke:none"
           id="path90"
           inkscape:connector-curvature="0"
           d="m 747.391,1677.8 -41.512,0 -5.188,-11.41 c -2.074,6.23 -8.304,11.41 -8.304,11.41 -4.153,3.12 -11.418,4.16 -23.871,1.04 -2.075,0 -5.188,-1.04 -8.301,-1.04 0,0 -21.793,-10.37 -42.551,-34.24 -19.719,-23.88 -28.019,-47.74 -28.019,-47.74 -6.231,-14.53 -4.153,-26.98 -3.118,-34.25 3.118,-7.27 10.379,-12.45 10.379,-12.45 6.227,-3.12 17.645,-6.23 30.098,0 9.344,5.18 20.758,12.45 23.871,17.64 -2.078,-19.72 17.641,-20.76 17.641,-20.76 0,0 19.718,-2.07 33.211,12.46 13.496,11.41 24.91,31.13 24.91,31.13 l -10.383,4.15 c 0,0 -7.266,-14.53 -17.637,-23.87 -4.156,-5.19 -9.344,-3.11 -10.383,-1.03 0,0 -2.074,1.03 1.039,6.22 l 58.118,102.74 z m -56.039,-17.64 c 1.035,-2.07 -2.079,-11.41 -2.079,-11.41 l -33.211,-58.12 c -7.265,-12.45 -17.64,-20.76 -17.64,-20.76 -2.074,-3.11 -5.192,-5.19 -7.266,-5.19 0,0 -1.039,-1.04 -6.23,-1.04 0,0 -3.11,1.04 -3.11,3.12 0,2.08 0,3.11 0,6.22 0,3.12 13.489,44.63 49.813,85.11 0,0 5.191,5.19 8.305,6.22 1.035,2.08 3.109,2.08 4.152,2.08 0,0 7.266,0 7.266,-6.23" />
        <path
           style="fill:#000000;fill-opacity:1;fill-rule:evenodd;stroke:none"
           id="path92"
           inkscape:connector-curvature="0"
           d="m 388.305,232.109 c 0,1.039 0,5.192 0,8.305 l 11.414,0 c 17.644,0 24.91,-8.305 24.91,-16.609 0,-9.34 -7.266,-18.68 -26.984,-18.68 -5.192,0 -6.227,0 -9.34,1.039 l 0,25.945 z m -14.532,-56.043 c 0,-6.226 -2.074,-6.226 -9.339,-8.3 l -7.266,-1.039 0,-2.075 46.699,0 0,2.075 -6.222,1.039 c -8.305,2.074 -9.34,2.074 -9.34,8.3 l 0,25.95 c 6.222,-2.078 11.414,-2.078 15.562,-2.078 17.649,0 37.367,8.3 37.367,23.867 0,9.343 -8.304,20.761 -37.367,20.761 l -46.699,0 0,-1.043 7.266,-2.074 c 7.265,-1.035 9.339,-3.113 9.339,-9.34 l 0,-56.043" />
        <path
           style="fill:#000000;fill-opacity:1;fill-rule:evenodd;stroke:none"
           id="path94"
           inkscape:connector-curvature="0"
           d="m 530.488,232.109 c 0,6.227 -3.117,8.305 -11.418,9.34 l -6.226,2.074 0,1.043 46.703,0 0,-1.043 -6.231,-2.074 c -6.222,-1.035 -9.339,-3.113 -9.339,-9.34 l 0,-56.043 c 0,-6.226 3.117,-6.226 9.339,-8.3 l 6.231,-1.039 0,-2.075 -46.703,0 0,2.075 6.226,1.039 c 8.301,2.074 11.418,2.074 11.418,8.3 l 0,56.043" />
        <path
           style="fill:#000000;fill-opacity:1;fill-rule:evenodd;stroke:none"
           id="path96"
           inkscape:connector-curvature="0"
           d="m 724.562,225.883 -1.042,0 c -7.266,11.418 -13.489,15.566 -31.133,15.566 -26.985,0 -39.438,-15.566 -39.438,-36.324 0,-20.754 12.453,-37.359 39.438,-37.359 19.718,0 26.984,6.226 31.133,16.605 l 1.042,1.035 2.075,0 0,-22.832 -2.075,0 c 0,2.078 -1.042,4.153 -5.191,4.153 -4.148,0 -12.457,-4.153 -26.984,-4.153 -35.285,0 -56.039,17.645 -56.039,42.551 0,23.867 23.867,41.516 56.039,41.516 8.304,0 13.492,-2.075 17.644,-2.075 5.192,-1.043 8.301,-1.043 9.34,-1.043 2.074,0 4.149,1.043 4.149,3.118 l 1.042,0 0,-20.758" />
        <path
           style="fill:#000000;fill-opacity:1;fill-rule:evenodd;stroke:none"
           id="path98"
           inkscape:connector-curvature="0"
           d="m 841.832,232.109 c 0,1.039 0,5.192 0,8.305 l -22.828,0 c -4.152,0 -6.231,-2.078 -12.457,-13.496 l 0,-3.113 -2.074,0 0,20.761 88.218,0 0,-20.761 -1.043,3.113 c -7.265,11.418 -8.3,13.496 -13.488,13.496 l -21.797,0 c 0,-3.113 0,-7.266 0,-8.305 l 0,-56.043 c 0,-6.226 3.117,-6.226 9.34,-8.3 l 6.227,-1.039 0,-2.075 -46.703,0 0,2.075 6.23,1.039 c 8.301,2.074 10.375,2.074 10.375,8.3 l 0,56.043" />
        <path
           style="fill:#000000;fill-opacity:1;fill-rule:evenodd;stroke:none"
           id="path100"
           inkscape:connector-curvature="0"
           d="m 977.793,232.109 c 0,6.227 -3.117,8.305 -11.418,9.34 l -6.227,2.074 0,1.043 46.702,0 0,-1.043 -6.23,-2.074 c -7.265,-1.035 -10.378,-3.113 -10.378,-9.34 l 0,-38.398 c 0,-17.645 14.528,-23.871 31.138,-23.871 17.64,0 30.1,6.226 30.1,23.871 l 0,38.398 c 0,6.227 -3.12,8.305 -11.42,9.34 l -6.23,2.074 0,1.043 40.48,0 0,-1.043 -7.26,-2.074 c -6.23,-1.035 -9.35,-3.113 -9.35,-9.34 l 0,-37.359 c 0,-21.793 -14.53,-32.176 -39.43,-32.176 -32.18,0 -40.477,13.492 -40.477,32.176 l 0,37.359" />
        <path
           style="fill:#000000;fill-opacity:1;fill-rule:evenodd;stroke:none"
           id="path102"
           inkscape:connector-curvature="0"
           d="m 1172.9,208.238 0,23.871 c 0,1.039 0,5.192 0,8.305 l 13.49,0 c 14.53,0 28.02,-3.113 28.02,-16.609 0,-9.34 -9.34,-15.567 -23.86,-15.567 l -17.65,0 z m -12.45,-32.172 c 0,-6.226 -3.11,-6.226 -9.34,-8.3 l -6.23,-1.039 0,-2.075 45.67,0 0,2.075 -7.27,1.039 c -7.26,2.074 -10.38,2.074 -10.38,8.3 l 0,26.985 17.65,0 c 10.37,0 17.64,-1.035 20.75,-11.414 l 3.11,-20.758 c 2.08,-4.152 4.16,-6.227 8.31,-6.227 l 19.72,0 0,2.075 -3.12,0 c -3.11,1.039 -7.26,3.113 -8.3,6.23 l -5.18,18.68 c -1.05,8.301 -7.27,13.488 -23.88,14.527 l 0,0 c 14.53,2.074 29.06,6.227 29.06,19.719 0,15.566 -19.72,18.683 -37.36,18.683 l -48.78,0 0,-1.043 6.23,-2.074 c 6.23,-1.035 9.34,-3.113 9.34,-9.34 l 0,-56.043" />
        <path
           style="fill:#000000;fill-opacity:1;fill-rule:evenodd;stroke:none"
           id="path104"
           inkscape:connector-curvature="0"
           d="m 1330.65,232.109 c 0,6.227 -3.11,8.305 -10.38,9.34 l -6.22,2.074 0,1.043 85.1,0 0,-17.648 -2.08,0 -4.15,8.309 c -2.07,3.109 -3.11,5.187 -9.34,5.187 l -38.4,0 c -2.07,-3.113 -2.07,-7.266 -2.07,-8.305 l 0,-23.871 33.21,0 c 4.15,0 5.19,1.039 8.3,4.153 l 3.11,7.261 2.08,0 0,-28.015 -2.08,0 -3.11,6.222 c -3.11,4.157 -4.15,5.192 -8.3,5.192 l -33.21,0 0,-25.946 c 0,-1.039 0,-4.148 2.07,-7.265 l 38.4,0 c 7.27,0 9.34,1.039 13.49,7.265 l 4.16,7.266 1.03,0 0,-19.719 -88.21,0 6.22,3.114 c 7.27,2.074 10.38,2.074 10.38,8.3 l 0,56.043" />
        <path
           style="fill:#000000;fill-opacity:1;fill-rule:evenodd;stroke:none"
           id="path106"
           inkscape:connector-curvature="0"
           d="m 1489.44,185.406 1.04,0 c 6.22,-12.449 14.53,-17.64 30.09,-17.64 16.61,0 25.95,6.226 25.95,16.605 0,20.754 -53.97,12.453 -53.97,39.434 0,14.531 17.65,22.836 35.29,22.836 6.23,0 10.38,-2.075 13.49,-2.075 5.19,-1.043 8.31,-1.043 8.31,-1.043 2.07,0 5.18,0 6.22,3.118 l 0,-20.758 -1.04,0 c -5.18,9.344 -9.34,15.566 -25.94,15.566 -12.45,0 -23.87,-4.148 -23.87,-15.566 0,-19.719 56.04,-13.492 56.04,-40.477 0,-11.414 -12.46,-22.832 -38.4,-22.832 -16.61,0 -22.83,4.153 -26.98,4.153 -2.08,0 -3.12,-2.075 -5.19,-4.153 l -1.04,0 0,22.832" />
      </g>
    </g>
  </g>
</svg>
