<svg viewBox="0 0 1000 1000" xmlns="http://www.w3.org/2000/svg"><path d="M679 472.61a25.63 25.63 0 0 1-13.07-23.71 1.11 1.11 0 0 0-1.4-1.06 4.15 4.15 0 0 1-5.1-1.59c-1.38-2.47 1.09-5 3.07-6.11 4.17-2.4 11.13-5 14.23.21.55.91 2.1.32 1.76-.74-1-3.15-4.7-4.57-7.77-4.4a18.55 18.55 0 0 0-6 1.58 20.11 20.11 0 0 0-4.75 2.49c-2.45 1.91-4.12 5.44-2.25 8.32a6.35 6.35 0 0 0 7.42 2.37l-1.4-1.07c-.71 10.23 5.23 20.61 14.6 24.87.77.35 1.44-.73.68-1.16zM657 421.66a20.53 20.53 0 0 1 10.86-.25 21 21 0 0 1 4.95 1.92 33.63 33.63 0 0 1 4.56 3.29.8.8 0 0 0 1.13-1.13c-2.42-2.93-6.61-4.76-10.22-5.6a22.11 22.11 0 0 0-11.64.44c-.84.27-.49 1.59.36 1.33zM682.5 423.13c5.65 3.66 8.8 10.05 10.61 16.34a62.4 62.4 0 0 1 2.19 11.72c.19 2 .27 4.09.26 6.14s-.36 4.12-.26 6.14a1 1 0 0 0 1.87.25 27.82 27.82 0 0 0 .41-6.39 63.6 63.6 0 0 0-.33-6.61 64.56 64.56 0 0 0-2.42-12.32c-2-6.54-5.4-13.09-11.67-16.41a.66.66 0 0 0-.66 1.14z" fill="#7a7058" class="fill-000000"></path><g fill="#daa520" class="fill-18c4ff"><path d="M846.12 663.77c-17.13 9-37.25 9.59-56.58 10-10.72.23-21.75.42-31.78-3.37-11.83-4.47-21-14-28.36-24.32-19.61-27.51-28.33-61.09-36.67-93.83l-13.11-51.48c-2-7.69-3.92-15.45-4.15-23.38a7.85 7.85 0 0 1 .71-4.22 8.6 8.6 0 0 1 3.86-3c6-3 13-6.07 19-3.21 3.44 1.63 5.76 4.89 8 8 27.67 39.33 49.92 82.64 83 117.56 1.82 1.92 12-2.08 14.58-1.36"></path><path d="M845.74 663.11c-15 7.73-32.15 9.06-48.76 9.54-8.59.24-17.31.67-25.88-.24a48.24 48.24 0 0 1-22.93-8.29 73.25 73.25 0 0 1-16.2-16.3 148.6 148.6 0 0 1-12.82-20.67c-7.57-14.6-13-30.2-17.56-46-4.87-16.74-9-33.72-13.25-50.62l-7-27.43c-2.2-8.66-5-17.7-4.79-26.73a5 5 0 0 1 3-4.74 55.53 55.53 0 0 1 5.5-2.64c3.69-1.55 7.94-2.8 11.92-1.65s6.37 4.38 8.59 7.5c2.41 3.4 4.76 6.83 7.08 10.28 9.38 13.92 18.24 28.17 27.31 42.29s18.21 27.9 28.31 41.15c5 6.59 10.28 13 15.81 19.22 1.42 1.59 2.85 3.16 4.31 4.72a4.14 4.14 0 0 0 2.59 1.6c2.34.32 4.88-.42 7.15-.92 1.77-.39 4.4-1.36 6.1-.94 1.45.36 2.07-1.88.62-2.23-2.09-.52-4.6.33-6.63.78-1.34.3-2.67.61-4 .83a8.73 8.73 0 0 1-3 .19c-.5-.1-.48-.22-.87-.62l-2.25-2.42q-2.24-2.43-4.41-4.92-4.18-4.8-8.18-9.77a511.72 511.72 0 0 1-29.85-42.07c-9.34-14.38-18.37-29-27.85-43.25q-3.6-5.43-7.3-10.78c-2.21-3.2-4.33-6.69-7.17-9.39a13.72 13.72 0 0 0-10.28-3.91c-4.17.2-8.12 1.83-11.83 3.63a19.08 19.08 0 0 0-4.89 2.88 6.76 6.76 0 0 0-2 4.79 56.64 56.64 0 0 0 1.47 13.47c1.82 9.24 4.45 18.35 6.77 27.47 4.57 17.9 9 35.85 13.78 53.69 4.39 16.29 9.35 32.48 16.24 47.9a168 168 0 0 0 11.86 22.18 104.17 104.17 0 0 0 14.76 18.69 53 53 0 0 0 19.11 12.31c8.42 3 17.51 3.25 26.35 3.12 16.9-.24 34.44-.45 50.66-5.74a72.67 72.67 0 0 0 11.15-4.69c.87-.45.1-1.75-.77-1.31zM744.81 859.11s50.11-98.61 54.4-105.78 130.85-15.89 136.93-19.93 45.69 62.78 37.86 125.71"></path><path d="M746.46 860.07 756 841.4q10.15-19.92 20.35-39.84 9.42-18.39 18.93-36.74c1.69-3.22 3.35-6.45 5.12-9.63a10.56 10.56 0 0 0 .56-1c-.22.51-.23.34 0 0-.5.53-.11.08.18-.08s.42-.2.63-.31c.41-.21-.25.09-.06 0l.52-.2c.68-.26 1.38-.47 2.08-.67a116.53 116.53 0 0 1 13.2-2.7c6.41-1.05 12.59-1.88 18.92-2.68 15.49-2 31-3.6 46.54-5.25 13.32-1.42 26.66-2.75 39.94-4.52 3.85-.52 7.75-1 11.52-1.88a6.56 6.56 0 0 0 2.71-1c.24-.23-.52.16-.2.08s-.62 0-.17 0-.57-.06-.18 0a3.24 3.24 0 0 1 .41.13c-.65-.14 0 0 .35.24l.36.25c.3.21-.37-.3-.08-.06l.32.26a23 23 0 0 1 2 2c.37.42.72.85 1.07 1.28.08.09.54.69.32.39l.73 1a93.81 93.81 0 0 1 5.33 8.22 177.68 177.68 0 0 1 11.6 24.36c8.48 21.52 13.89 44.63 14.09 67.82a140.69 140.69 0 0 1-1 18.24A1.92 1.92 0 0 0 974 861a2 2 0 0 0 1.92-1.92c3-24.32-.74-49.23-8-72.48a213.44 213.44 0 0 0-11.44-29 118.07 118.07 0 0 0-11.21-19.24 32.06 32.06 0 0 0-4.54-5.19c-1.25-1.08-2.89-2.25-4.65-1.83a4.1 4.1 0 0 0-.87.36c-.33.17-.4.14 0 0-.42.12-.83.28-1.25.39-1.44.38-2.91.64-4.37.88-5.1.86-9.12 1.33-14.3 2-6.71.81-13.43 1.54-20.15 2.26-15.77 1.7-31.54 3.33-47.29 5.17-12.95 1.52-26 3-38.79 5.55-3.22.65-6.86 1.24-9.77 2.87-2 1.15-3 3.79-4 5.76-5.63 10.58-11.07 21.27-16.55 31.93Q768 809.42 757.3 830.34q-6.75 13.24-13.49 26.5l-.66 1.3c-1.12 2.19 2.19 4.14 3.31 1.93z"></path></g><path d="M851.8 487.43a140 140 0 0 1-9.4-16.56c-2.79-5.82-4.9-11.83-7.21-17.84-.42-1.08-2.09-.68-1.77.49a98.26 98.26 0 0 0 7.21 17.87 138.68 138.68 0 0 0 9.88 16.8c.54.78 1.83.05 1.29-.76zM61.67 140.89h23A36.67 36.67 0 0 0 48 177.56v531.5a36.67 36.67 0 0 0 36.67 36.67h-23A36.67 36.67 0 0 1 25 709.06v-531.5a36.67 36.67 0 0 1 36.67-36.67z" fill="#7a7058" class="fill-000000"></path><path d="M61.67 142.81h23V139c-19.16.22-35.78 14.48-38.26 33.62a68.47 68.47 0 0 0-.33 8.83V708.3a38.61 38.61 0 0 0 38.59 39.35v-3.84H68.54c-6.82 0-13.42.1-19.9-2.51a35.21 35.21 0 0 1-21.72-32.74v-529.3c0-9 2.5-17.66 8.57-24.56a35.26 35.26 0 0 1 26.18-11.89c2.47 0 2.47-3.86 0-3.84-20.12.23-37.14 15.89-38.5 36.08-.16 2.35-.09 4.73-.09 7.09v524.69c0 7.36 1.24 14.5 4.88 21a39 39 0 0 0 21.15 17.7c6.44 2.24 13 2.09 19.7 2.09h15.88c2.47 0 2.47-3.81 0-3.84A35.13 35.13 0 0 1 49.94 709V178.93c0-9.33 2.89-18.2 9.36-25.1a35.2 35.2 0 0 1 25.39-11c2.46 0 2.47-3.84 0-3.84h-23c-2.49.01-2.5 3.82-.02 3.82z" fill="#7a7058" class="fill-000000"></path><rect fill="#daa520" height="604.84" rx="36.67" width="316.58" x="48.02" y="140.89" class="fill-18c4ff"></rect><path d="M327.93 139h-226.6c-6.85 0-14-.52-20.8.24-19.91 2.2-34.38 19.31-34.43 39.09v526.09c0 9.25 1.15 18.17 6.52 26.11a39.09 39.09 0 0 0 32.07 17.12h239.55a65.32 65.32 0 0 0 9.17-.4 38.82 38.82 0 0 0 29.8-22.58c3.07-7 3.3-14 3.3-21.37V177.96A39.07 39.07 0 0 0 327.93 139c-2.47 0-2.48 3.81 0 3.84 19.8.22 34.72 16.33 34.75 35.82v524.71c0 7.46-.23 14.59-3.8 21.51a35.15 35.15 0 0 1-31 18.93H89.14c-2 0-4.09.06-6.13 0a35 35 0 0 1-31.12-23.21c-2.08-6-2-11.92-2-18.09V178.32c0-19.4 15.21-35.34 34.81-35.51 6.59-.06 13.19 0 19.78 0h223.4a1.92 1.92 0 0 0 .05-3.81z" fill="#daa520" class="fill-18c4ff"></path><path d="M327.93 139H94.54c-3.14 0-6.29-.05-9.44 0h-.41c-2.47 0-2.48 3.84 0 3.84h233.38c3.15 0 6.3.06 9.44 0h.42a1.92 1.92 0 0 0 0-3.84z" fill="#7a7058" class="fill-000000"></path><path d="M316.06 353.57H98.81c-3.09-.09-5-2.69-5-5.61V204.47a5.31 5.31 0 0 1 5.2-5.54h216.04a11.6 11.6 0 0 1 1.77 0c2.87.42 4.43 2.91 4.44 5.63V348a5.32 5.32 0 0 1-5.2 5.54c-2.47.06-2.48 3.89 0 3.83a9.19 9.19 0 0 0 9-9.16V204.56a9.28 9.28 0 0 0-4.72-8.36 10.3 10.3 0 0 0-5-1.11H98.26A9.18 9.18 0 0 0 90 204.3V348a9.21 9.21 0 0 0 5.3 8.58c2.3 1 4.84.82 7.31.82h213.5a1.92 1.92 0 0 0-.05-3.83z" fill="#ffffff" class="fill-ffffff"></path><path d="M256.32 240.29c.21 7.52.41 15.12-1.16 22.47s-5.11 14.54-11.16 19.06l2.67-2.73a51.58 51.58 0 0 1-10.59 2.55c.3 4.59-3 8.91-2.43 13.47.43 3.5 3 6.31 5.43 8.86 1.82 1.9 3.86 3.91 6.47 4.19 3.63.39 7-3.57 6-7.09 2.46 2.68 7.49.65 8.54-2.83s-.77-7.23-3.24-9.9a8.6 8.6 0 0 0 3.17-15.18 7.46 7.46 0 0 0 1.98-13.49c3.6-2.6 3.19-9-.71-11.16 1.68-.53 1.46-3 .79-4.61a47.88 47.88 0 0 0-5.42-9.87" fill="#7a7058" class="fill-000000"></path><path d="M255.65 240.29c-.15 14 .25 31.16-12.15 40.61l1.29 1.68 2.68-2.73c.72-.73 0-2.16-1.05-1.8a52.1 52.1 0 0 1-10.3 2.49 1.12 1.12 0 0 0-1.1 1.1c.18 4.39-2.63 8.27-2.51 12.67.11 4.18 2.93 7.45 5.67 10.33 2.54 2.67 6 5.78 10 4.35a7.18 7.18 0 0 0 4.61-8.23l-2 1.14c2.8 2.84 7.46 1.47 9.6-1.49 3-4.14.36-9.63-2.6-12.94l-.54 2a9.85 9.85 0 0 0 3.75-17.22l-.57 2.15a8.78 8.78 0 0 0 2.2-15.88v2.29c4.36-3.31 4.16-10.65-.69-13.47l-.33 2.48c2.82-1.13 2.55-4.32 1.58-6.7a50.58 50.58 0 0 0-5.38-9.78c-1-1.43-3.39-.06-2.37 1.39a48.47 48.47 0 0 1 4.14 7A20 20 0 0 1 261 245c.12.41.53 2-.08 2.22a1.38 1.38 0 0 0-.32 2.49c2.94 1.71 3.52 6.68.71 8.83a1.35 1.35 0 0 0 0 2.29 6.23 6.23 0 0 1-1.53 11.11c-.83.27-1.38 1.51-.57 2.15a7.36 7.36 0 0 1-2.59 13.09 1.24 1.24 0 0 0-.54 2c2.13 2.35 4.43 6.34 2.61 9.5-1.16 2-4.35 3.41-6.21 1.53a1.18 1.18 0 0 0-2 1.14 4.76 4.76 0 0 1-4.57 5.64c-3.27-.15-6-3.77-8-6-2.35-2.74-3.68-5.71-2.87-9.34.74-3.35 2.32-6.49 2.17-10l-.81 1.06a54.09 54.09 0 0 0 10.6-2.58l-1-1.8-2.67 2.74c-.81.83.3 2.44 1.3 1.68 12.94-9.95 13.4-27.6 12.41-42.46a.67.67 0 0 0-1.34 0zM183.72 237.68c-.47 4.24-4.1 7.36-7.63 9.75s-7.46 4.76-9.16 8.68.53 9.71 4.8 9.63c-3.23 1.09-6.39 3.3-7.25 6.6s1.79 7.41 5.17 6.94c-3.29 1.84-6.47 4.68-6.87 8.43s3.63 7.74 7 6.06a4.37 4.37 0 0 0 6.95 5.23c-.58 2 1.49 4.15 3.6 4.09a5.5 5.5 0 0 0 4.65-3.74c.31-.85.57-1.86 1.4-2.22a10 10 0 0 1 1.75-.23c1.46-.31 2-2 2.36-3.5l4.65-21a54.18 54.18 0 0 0 1.59-10.18 27.93 27.93 0 0 0-11.67-23.27" fill="#7a7058" class="fill-000000"></path><path d="M183.09 237.5c-1.49 7.95-11.29 9.87-15.75 15.68a9.42 9.42 0 0 0-1.72 8.75c.89 2.77 3.07 5 6.11 5.05l-.33-2.43c-3.84 1.33-8 4.16-8.34 8.57-.33 3.7 2.6 7.87 6.59 7.49l-.68-2.48c-3.86 2.2-8.19 6.11-7.49 11 .58 4.17 4.87 7.63 9 5.79l-1.89-1.89a5.76 5.76 0 0 0 9.13 6.92l-2.32-1.36a4.9 4.9 0 0 0 3.7 5.69c2.52.6 4.92-.85 6.32-2.88a7.42 7.42 0 0 0 .88-1.73c.19-.48.27-1.13.78-1.37s1.2 0 1.72-.22a3.62 3.62 0 0 0 1.55-1.06 6.62 6.62 0 0 0 1.35-3c.39-1.7.69-3.42 1.06-5.12 1.47-6.64 3.09-13.26 4.39-19.94 1.11-5.7 1.2-11.37-.74-16.92a29.43 29.43 0 0 0-10.71-14.27c-1.31-.94-2.56 1.23-1.26 2.15a26.83 26.83 0 0 1 10.91 24.3c-.56 5.67-2.19 11.29-3.41 16.84-.64 2.87-1.25 5.74-1.9 8.61-.29 1.27-.57 2.55-.93 3.8-.24.85-.53 1.92-1.5 2.09-1.26.21-2.19.2-3 1.33-.69.95-.84 2.17-1.54 3.13a3.58 3.58 0 0 1-2.89 1.64c-1.12-.07-2.35-1.14-2.09-2.34a1.41 1.41 0 0 0-2.33-1.35 3 3 0 0 1-4.77-3.56 1.4 1.4 0 0 0-1.89-1.89c-2.65 1.2-5.15-2.38-5-4.7.28-3.42 3.45-5.87 6.19-7.44 1.08-.62.68-2.61-.67-2.48-2.66.26-4.44-2.69-4-5.11.6-3 3.67-4.95 6.37-5.91a1.24 1.24 0 0 0-.33-2.43c-2.68 0-4.08-2.85-4.17-5.22-.12-3.14 2.05-5.65 4.33-7.55 4.74-4 11.91-7 12.49-14a.66.66 0 0 0-1.29-.18zM314.07 353.57H109.6c-2.75 0-5.51-.06-8.27 0H101c-2.46 0-2.47 3.83 0 3.83h204.44c2.75 0 5.52.07 8.27 0h.36a1.92 1.92 0 0 0 0-3.83z" fill="#7a7058" class="fill-000000"></path><rect height="158.48" rx="7.12" width="231.31" x="91.87" y="500" fill="#7a7058" class="fill-000000"></rect><path d="M316.06 656.56H98.81c-3.09-.1-5-2.69-5-5.61V507.46a5.31 5.31 0 0 1 5.2-5.54h216.04a13 13 0 0 1 1.77 0c2.87.43 4.43 2.92 4.44 5.64V651a5.32 5.32 0 0 1-5.2 5.55c-2.47.06-2.48 3.89 0 3.83a9.19 9.19 0 0 0 9-9.16V507.55a9.28 9.28 0 0 0-4.72-8.36 10.3 10.3 0 0 0-5-1.11H98.26a9.18 9.18 0 0 0-8.26 9.21v143.7a9.21 9.21 0 0 0 5.3 8.58c2.3 1 4.84.82 7.31.82h213.5a1.92 1.92 0 0 0-.05-3.83z" fill="#7a7058" class="fill-000000"></path><g fill="#ffffff" class="fill-ffffff"><path d="M192.94 533.11a14.3 14.3 0 0 0 .84 21 21.5 21.5 0 0 1 3.49 3.09c2 2.68 1.55 6.41 1 9.71l-2.66 15.37c-.76 4.41-1.5 9.06.06 13.25 2.5 6.7 10.18 10.09 17.32 10.54a35.07 35.07 0 0 0 19.01-4.28 2.76 2.76 0 0 0 1.19-1 3.17 3.17 0 0 0-.08-2.32 21.6 21.6 0 0 1-.14-11.09 17.53 17.53 0 0 1 1.55-3.7c.56-.62 2.88-.07 3.67-.32 10.15-3.19 17.34-10.53 16.91-21.15-.12-2.94.37-6.74.28-9.68s-.51-5.65-.54-8.68c0-4.47-1.16-11.21-1.68-15.64s-1.16-8.72-1.41-13.31a19 19 0 0 0-4.59-11.63 17.87 17.87 0 0 0-10.66-6 33.76 33.76 0 0 0-12.43.31c-8.15 1.5-16.12 4.77-22.28 10.31s-10.35 13.51-10.35 21.8M192.94 230a14.3 14.3 0 0 0 .84 21 22 22 0 0 1 3.49 3.09c2 2.68 1.55 6.41 1 9.71l-2.66 15.37c-.76 4.41-1.5 9.06.06 13.25 2.5 6.7 10.18 10.09 17.32 10.54a35.07 35.07 0 0 0 19.01-4.32 2.76 2.76 0 0 0 1.19-1 3.17 3.17 0 0 0-.08-2.32 21.6 21.6 0 0 1-.14-11.09 17.53 17.53 0 0 1 1.55-3.7c.56-.62 2.88-.07 3.67-.32 10.15-3.19 17.34-10.52 16.91-21.15-.12-2.94.37-6.74.28-9.68s-.51-5.65-.54-8.68c0-4.47-1.16-11.21-1.68-15.64s-1.16-8.72-1.41-13.31a19 19 0 0 0-4.59-11.63 17.92 17.92 0 0 0-10.66-6 33.76 33.76 0 0 0-12.43.31c-8.15 1.51-16.12 4.77-22.28 10.31s-10.35 13.51-10.35 21.8"></path><rect height="158.48" rx="7.12" width="231.31" x="340.25" y="372.64"></rect><path d="M564.44 529.19H347.2c-3.1-.1-5-2.7-5-5.61V380.1a5.31 5.31 0 0 1 5.2-5.55h216.03a13 13 0 0 1 1.77.05c2.87.42 4.44 2.92 4.44 5.63v143.42a5.31 5.31 0 0 1-5.2 5.54c-2.47.06-2.47 3.9 0 3.84a9.19 9.19 0 0 0 9-9.17V380.18a9.3 9.3 0 0 0-4.71-8.36 10.32 10.32 0 0 0-5-1.1H346.68a9.17 9.17 0 0 0-8.35 9.17v143.73a9.24 9.24 0 0 0 5.3 8.59c2.31 1 4.85.82 7.31.82h213.5a1.92 1.92 0 0 0 0-3.84z"></path><rect height="158.48" rx="7.12" width="231.31" x="340.25" y="372.64"></rect><path d="M564.44 529.19H347.2c-3.1-.1-5-2.7-5-5.61V380.1a5.31 5.31 0 0 1 5.2-5.55h216.03a13 13 0 0 1 1.77.05c2.87.42 4.44 2.92 4.44 5.63v143.42a5.31 5.31 0 0 1-5.2 5.54c-2.47.06-2.47 3.9 0 3.84a9.19 9.19 0 0 0 9-9.17V380.18a9.3 9.3 0 0 0-4.71-8.36 10.32 10.32 0 0 0-5-1.1H346.68a9.17 9.17 0 0 0-8.35 9.17v143.73a9.24 9.24 0 0 0 5.3 8.59c2.31 1 4.85.82 7.31.82h213.5a1.92 1.92 0 0 0 0-3.84z"></path></g><path d="M569.64 443V521.93a7.27 7.27 0 0 1-7.2 7.25H349.7a7.45 7.45 0 0 1-6.07-2.83 8.11 8.11 0 0 1-1.46-5.13V385.39c0-3.5-.31-7.11 3-9.47 2.19-1.58 4.67-1.37 7.18-1.37H562.8c4.18.17 6.84 3.75 6.84 7.71v35.88a1.92 1.92 0 0 0 3.84 0v-36.25a11.15 11.15 0 0 0-8.81-11 15.37 15.37 0 0 0-3-.23H349.68a11.05 11.05 0 0 0-11.35 11.45v139.37A11.25 11.25 0 0 0 349.62 533h209a46.17 46.17 0 0 0 4.85-.06 11.16 11.16 0 0 0 10-11V443c0-2.46-3.84-2.47-3.84 0z" fill="#7a7058" class="fill-000000"></path><path d="M443.27 426.44c-.75 3.91 0 9.69-1.17 13.49-1.62-7.52-6.62-15.92-8.24-23.44a154.39 154.39 0 0 1-2.17-15.58c-.6-10.73 6.68-17.16 15.29-23.6 1.36-1 3.54-1.84 4.55-.47 1.14-3.9 4.81-6.53 8.54-8.15 10.63-4.63 22.82-3.49 34.25-1.53 2.83.49 5.87 1.14 7.77 3.29s1.69 6.27-1 7.21c1.61 1.2 3.33 2.54 3.86 4.49s-.95 4.47-2.94 4.14c1.19 1.25 2 3.28 1 4.66-.92 1.22-2.73 1.22-4.26 1.08a141.9 141.9 0 0 1-36-8.24 5.12 5.12 0 0 1 .7 9.46c-2.3 1.13-5 .41-7.58.34a2.57 2.57 0 0 0-1.87.41 3.85 3.85 0 0 0-.86 1.68c-1.3 3.37-5.8 5-6.34 8.55-.34 2.19.86 4.9-.78 6.39a4.9 4.9 0 0 0-5.52-3.56 5.92 5.92 0 0 0-4.12 3.74c-.71 1.8-1.58 5.41-1.27 7.32.72 4.42 3.92 7 7.32 9.87" fill="#daa520" class="fill-18c4ff"></path><path d="M442.63 426.27c-1.05 4.4-.12 9.06-1.42 13.42H443c-1.16-5.49-3.6-10.61-5.64-15.8a59.41 59.41 0 0 1-3.39-13.1c-.6-4-1.39-8.12-1.19-12.14a19.87 19.87 0 0 1 5.43-12.21 47.91 47.91 0 0 1 5.83-5.38q1.67-1.35 3.39-2.61c.78-.57 2.4-1.73 3.25-.75a1.22 1.22 0 0 0 2-.53c1.13-3.55 4.41-5.79 7.66-7.26a37.66 37.66 0 0 1 12.37-3 68.45 68.45 0 0 1 12.8.28 62.34 62.34 0 0 1 12.15 2.05c1.7.55 3.56 1.53 4.15 3.33.42 1.25.34 3.28-1.11 3.85a1.33 1.33 0 0 0-.31 2.39c1.23.92 2.89 2.1 3.25 3.71.24 1.11-.38 2.59-1.67 2.46s-1.63 1.49-.94 2.26c.83.93 1.8 2.78.14 3.39-1.34.49-3.21 0-4.58-.13q-5.76-.63-11.46-1.76a143.54 143.54 0 0 1-22.09-6.23l-.72 2.6a3.8 3.8 0 0 1-.48 7.27c-3.25.8-8.12-1.87-9.75 2.26-1.09 2.78-3.67 4.18-5.38 6.53a6.74 6.74 0 0 0-1.31 3.83c0 1.37.77 3.64-.28 4.75l2.2.58a6.27 6.27 0 0 0-6.79-4.46c-3.37.52-5.1 3.54-5.91 6.55s-1 6 .4 9 4.21 5.24 6.7 7.39c1 .88 2.52-.61 1.49-1.49a26.61 26.61 0 0 1-5.37-5.28 8.83 8.83 0 0 1-1.33-6.86c.39-2.16.92-4.83 2.83-6.18a3.52 3.52 0 0 1 5.45 2.05 1.33 1.33 0 0 0 2.19.58c1.41-1.43 1.36-3.27 1.22-5.14a5.13 5.13 0 0 1 1.26-4.34c1.13-1.26 2.49-2.28 3.56-3.58a8.75 8.75 0 0 0 1.2-1.83 7.06 7.06 0 0 1 .53-1.38c.41-.48.9-.37 1.5-.34 2.11.09 4.23.52 6.33 0a6.49 6.49 0 0 0 .48-12.49c-1.64-.6-2.33 2-.72 2.6a143.46 143.46 0 0 0 26.72 7c2.28.37 4.56.69 6.86.95a18.14 18.14 0 0 0 5.5.21 3.94 3.94 0 0 0 3.29-3.19 6 6 0 0 0-1.78-4.74l-.94 2.26c2.52.25 4.34-2.23 4.37-4.56 0-2.93-2.51-4.94-4.63-6.52l-.32 2.39c3.48-1.39 4.1-5.89 2.06-8.78-2.61-3.71-8-4.11-12.09-4.73-10.05-1.52-20.77-2.21-30.42 1.58-4.55 1.78-9.08 4.61-10.6 9.53l2-.53c-1.76-2-4.55-.8-6.31.53-2.13 1.6-4.23 3.26-6.21 5.06-3.63 3.3-6.89 7.22-8.38 12-1.39 4.45-.81 9-.21 13.49a74 74 0 0 0 2.65 13.62c2.18 6.59 5.71 12.72 7.29 19.52a.93.93 0 0 0 1.78 0c1.25-4.46.4-9.19.94-13.74.08-.74-1.13-.89-1.3-.17z" fill="#daa520" class="fill-18c4ff"></path><path d="M233.7 159.41h-54.79a19.09 19.09 0 0 1-15.71-8.24l-7.11-10.28h100.43l-7.1 10.28a19.12 19.12 0 0 1-15.72 8.24z" fill="#7a7058" class="fill-000000"></path><path d="M233.7 157.49h-49.06c-4.53 0-9.1.34-13.3-1.75-3.78-1.89-6.07-4.94-8.39-8.3l-5.2-7.51-1.66 2.88h96.32a37 37 0 0 0 3.94 0h.17l-1.66-2.88-6.36 9.2a20.33 20.33 0 0 1-4.52 5 17.52 17.52 0 0 1-10.28 3.4c-2.47 0-2.47 3.86 0 3.84a21.67 21.67 0 0 0 17.79-9.79l6.69-9.68a1.94 1.94 0 0 0-1.66-2.89h-88.1c-4 0-8.12-.16-12.15 0h-.18a1.93 1.93 0 0 0-1.65 2.89l4.6 6.66c1.89 2.73 3.66 5.62 6.23 7.78a21.51 21.51 0 0 0 13.7 5h54.73a1.92 1.92 0 0 0 0-3.85zM752.6 361.75c-1.47 9.45-1.4 19.08-2.63 28.56a57.44 57.44 0 0 1-3.16 13.69 40.63 40.63 0 0 1-3.49 6.54c-1.32 2.13-3 4.19-4.13 6.44a6.39 6.39 0 0 0 1.23 7 10.17 10.17 0 0 0 5.49 2.75l-.82-1.07c.58 12.63 1.23 25.63 5.25 37.72 1.57 4.74 3.48 9.28 7.63 12.32 3.79 2.77 8.57 3.78 13.17 4.18a105 105 0 0 0 18.86-.58c1.2-.11 1.24-1.95 0-1.9-5.35.19-10.71.64-16.07.42-4.55-.19-9.34-.77-13.35-3.1-4.3-2.5-6.26-6.68-7.82-11.23a85.39 85.39 0 0 1-3.69-16.27c-1-7.14-1.38-14.37-1.73-21.57a1.15 1.15 0 0 0-.82-1.07 8 8 0 0 1-4.52-2.18 4.65 4.65 0 0 1-1.19-2.85c0-1.33.82-2.36 1.52-3.41 2.58-3.89 5.17-7.91 6.71-12.36 3-8.52 3.25-17.9 3.73-26.83.26-4.95.46-9.93 1.15-14.84.12-.85-1.17-1.23-1.31-.36z" fill="#7a7058" class="fill-000000"></path><path d="M762.73 404.76a1.61 1.61 0 0 1 0-.31v-.07l.16-.26a1.4 1.4 0 0 1 .16-.26c-.07.07-.07.09 0 0l.11-.11c.11-.11-.11.07 0 0s-.22.05 0 0h-.28c.09 0-.21-.13-.09 0l-.12-.1v.05c.06.07-.13-.23-.05-.08a2.12 2.12 0 0 0 .11.21v-.1a.58.58 0 0 1 0 .14 5.47 5.47 0 0 1 .13.55l.06.34v-.05a.88.88 0 0 0 0 .17 3.3 3.3 0 0 1 0 .7v-.29a1.65 1.65 0 0 1-.07.32s-.08.22 0 .06l-.06.1c.11-.2.12-.16 0-.08s.22-.13.07-.06l.17-.07h-.1.3-.11.3c-.15 0 .1.06.11.07-.15-.07.17.15.09.06s.12.2.08.1l-.07-.12.12.26a2.5 2.5 0 0 1-.13-.54 1.54 1.54 0 0 0-.16-.47 1.44 1.44 0 0 0-.52-.52 1 1 0 0 0-1.07 0 1.09 1.09 0 0 0-.52.91 2.38 2.38 0 0 0 .1.75 3.4 3.4 0 0 0 .25.74 1.69 1.69 0 0 0 1.42.93 1.75 1.75 0 0 0 1.5-.88 2.85 2.85 0 0 0 .38-1.37 4.63 4.63 0 0 0-.14-1.34 6.06 6.06 0 0 0-.31-1.05 2.08 2.08 0 0 0-.81-1 1.44 1.44 0 0 0-1.52 0 2.33 2.33 0 0 0-.89 1.3 2.07 2.07 0 0 0 0 .7 4.37 4.37 0 0 0 .06.72.65.65 0 0 0 .73.48.67.67 0 0 0 .57-.65z" fill="#7a7058" class="fill-000000"></path><path d="M761.54 409.52a3.05 3.05 0 0 0 1.22-.55l.26-.12.14-.06c-.07 0-.07 0 0 0l.53-.2a8.67 8.67 0 0 1 1.11-.3l.28-.05h.14a5.69 5.69 0 0 0 .7-.12.74.74 0 0 0 .53-.82.76.76 0 0 0-.73-.65 4.41 4.41 0 0 0-1.35.15 7.75 7.75 0 0 0-1.16.35 8.55 8.55 0 0 0-1.18.57c-.18.1-.35.21-.52.32a1.41 1.41 0 0 0-.62.68.65.65 0 0 0 .62.82zM760.85 386.43a6.18 6.18 0 0 1 1.27-.45 4.72 4.72 0 0 1 1.3-.15H764.3l.4.08a4.77 4.77 0 0 1 .65.17l.34.13.18.08c.24.12.47.27.72.38a1.09 1.09 0 0 0 1.31-.31c.6-.82-.07-1.46-.68-1.76-.27-.12-.55-.24-.83-.34a6.75 6.75 0 0 0-3-.36 6.67 6.67 0 0 0-3.25 1.23.76.76 0 0 0-.27 1 .74.74 0 0 0 1 .26zM759.1 438.76l4.15-1.37a3 3 0 0 1 1.65-.22c1 .26 1.37 1.36 1.52 2.34a11.05 11.05 0 0 1-1.53 7.44c-.55.89-1.48 1.79-2.5 1.54a1.94 1.94 0 0 1-1.28-1.3 6 6 0 0 1-.23-1.89q-.06-3.14-.41-6.26l-.16.35" fill="#7a7058" class="fill-000000"></path><path d="M759.31 439.51c1-.25 1.9-.48 2.84-.75l1.36-.4c.35-.1.83-.3 1.17-.12s.57 1 .64 1.42a9.55 9.55 0 0 1 0 2.39 9.29 9.29 0 0 1-1.69 4.57c-.21.28-.7.84-1 .7-.54-.22-.54-1.17-.56-1.64 0-1.09-.07-2.19-.14-3.29a24.67 24.67 0 0 0-.37-3.65 1.14 1.14 0 0 0-2.17 0l-.12.36c-.39 1.19 1.35 1.85 2 .83l.2-.33-2.09-.56c0 1.29.21 2.61.27 3.91s0 2.45.16 3.65a3.55 3.55 0 0 0 1.71 2.81 2.93 2.93 0 0 0 3.24-.47c1.66-1.34 2.5-3.79 2.8-5.83s.36-4.59-1-6.17a3.06 3.06 0 0 0-3.51-.53c-1.37.51-2.73 1-4.08 1.6-.91.37-.58 1.77.41 1.5z" fill="#7a7058" class="fill-000000"></path><g fill="#daa520" class="fill-18c4ff"><path d="m769.8 414.76.49-.45a.57.57 0 0 0 .15-.23.46.46 0 0 0 .06-.28.45.45 0 0 0-.06-.27.57.57 0 0 0-.15-.23l-.14-.11a.74.74 0 0 0-.36-.09h-.19a.75.75 0 0 0-.31.18l-.45.5a.7.7 0 0 0 0 1l.13.11a.7.7 0 0 0 .35.09h.18a.78.78 0 0 0 .3-.18zM772.75 412.72l1-.47a.7.7 0 0 0 .2-.18.55.55 0 0 0 .12-.24.81.81 0 0 0-.07-.53.68.68 0 0 0-.41-.31h-.18a.62.62 0 0 0-.35.1l-1 .48a.47.47 0 0 0-.19.18.46.46 0 0 0-.12.23.5.5 0 0 0 0 .27.46.46 0 0 0 .08.25.65.65 0 0 0 .4.31h.19a.69.69 0 0 0 .34-.09zM772.89 417.31h.71a.51.51 0 0 0 .25-.06.51.51 0 0 0 .35-.35.51.51 0 0 0 .06-.25v-.17a.81.81 0 0 0-.17-.3.73.73 0 0 0-.47-.19h-.71a.66.66 0 0 0-.46.19.49.49 0 0 0-.14.21.43.43 0 0 0 0 .25v.17a.66.66 0 0 0 .17.29.64.64 0 0 0 .46.19zM746.71 373.86A304.25 304.25 0 0 0 765 346.52c3.32 8.89 7.08 17.71 12.49 25.51s12.6 14.6 21.35 18.28a3.7 3.7 0 0 1 1.61 1 3.58 3.58 0 0 1 .21 2.9l-3.45 15.92c1-3.32 2.06-6.84 4.69-9.09s7.32-2.42 9.09.55a8 8 0 0 1 .88 3.81c.39 8.16-3.13 17.73-11.06 19.7 1.6-.38 6.58 15.92 7.2 17.72 2.48 7.27 5.79 14.64 11.85 19.64 18.49 15.25 46.67-1.73 56.67-19.21 4.47 3.25 10.62-.18 14.9-3.67q8.31-6.78 16-14.24c2.87-2.78 5.85-6 6.11-10 .34-5.12-3.81-9.25-7.13-13.16-1.61-1.89-3.15-4.57-1.88-6.7a11.48 11.48 0 0 1 1.82-1.94c2.25-2.32 2.65-6 1.71-9.08a21.26 21.26 0 0 0-5.24-8.06C892 365 877.31 358.12 863 351.53L842.38 342c-18.78-8.66-39-17.54-59.42-14a23.53 23.53 0 0 0-8.66 3 61 61 0 0 1-5 3.49 27.1 27.1 0 0 1-5.45 1.76 40.33 40.33 0 0 0-24.19 18.88c-1.68 3-3 6.33-2.64 9.72.68 6.29 6.8 10.57 12.8 12.57l.86-11.37"></path><path d="M747.33 374.22A317.29 317.29 0 0 0 765.85 347l-1.9-.25c3.53 9.66 7.68 19.29 13.84 27.59a57.42 57.42 0 0 0 9.36 10 47.71 47.71 0 0 0 5.57 4c1 .6 1.95 1.15 3 1.67a34.36 34.36 0 0 1 3.26 1.5c1.34.86.5 2.75.22 4l-1 4.58-2.11 9.65a1.15 1.15 0 0 0 2.22.61c.89-3.06 1.88-6.64 4.53-8.67 1.82-1.4 5.22-1.94 6.84.08 1 1.22 1 3 1 4.53a25.23 25.23 0 0 1-.33 4.34 21.19 21.19 0 0 1-2.82 7.77 11.84 11.84 0 0 1-7 5.38c-1.64.43-.9 2.68.67 2.46-.66.09-.37-.07-.72-.07-.56 0 0-.19-.06 0s.08.08.16.2a9.53 9.53 0 0 1 .67 1.21 32.2 32.2 0 0 1 1.43 3.43c1 2.8 2 5.64 2.88 8.48 2.24 6.89 4.63 13.83 9.18 19.59A27.82 27.82 0 0 0 836 469.82c8 .17 16-2.76 22.77-6.91a54.94 54.94 0 0 0 19-18.91l-1.93.5c4.12 2.84 9.22 1.1 13.08-1.32a56.89 56.89 0 0 0 6.29-4.85q3.38-2.82 6.65-5.78t6.44-6a30.17 30.17 0 0 0 4.87-5.65c2.67-4.33 2.16-9.1-.55-13.25a52.15 52.15 0 0 0-4.41-5.53c-1.33-1.54-3.86-4.29-2-6.31a24.28 24.28 0 0 0 2.27-2.49 9.34 9.34 0 0 0 1.32-3.22 12.32 12.32 0 0 0-.62-6.95c-1.88-4.78-5.86-8.6-9.64-11.93a88.7 88.7 0 0 0-12.31-9c-9.16-5.61-19-9.93-28.77-14.41-10.83-4.93-21.46-10.13-32.46-14.47-10.44-4.12-21.5-7.33-32.8-7.45-5.4-.06-11.28.39-16.33 2.41-2.57 1-4.53 2.66-6.78 4.2s-4.8 2-7.36 2.77a41.89 41.89 0 0 0-22.36 16.35c-2.83 4.13-5.39 9.16-4.47 14.31.77 4.33 4 7.72 7.64 10a28.62 28.62 0 0 0 5.92 2.73 1.22 1.22 0 0 0 1.54-1.17q.42-5.69.85-11.37c.12-1.55-2.3-1.54-2.42 0q-.42 5.68-.86 11.37l1.54-1.17c-3.88-1.33-7.89-3.53-10.21-7-2.88-4.34-1.61-9.23.79-13.48a39.11 39.11 0 0 1 19.81-17.06c2.18-.83 4.42-1.32 6.65-2a21.41 21.41 0 0 0 6.55-3.68c4.23-3.13 9.58-4 14.72-4.35 10.63-.73 21.15 1.7 31.12 5.22 10.26 3.62 20.09 8.37 30 12.92 9.45 4.36 19 8.52 28.24 13.36 8.51 4.47 16.73 9.68 23.45 16.63 3.17 3.28 6.7 7.57 5.72 12.48a6.73 6.73 0 0 1-1.13 2.69c-.67.91-1.66 1.54-2.31 2.47-1.32 1.88-1 4.19 0 6.12 2.08 4 6.18 6.67 7.91 11 1.9 4.72-1 8.69-4.19 11.94-3.81 3.82-7.85 7.44-11.94 11-3.65 3.13-7.5 6.92-12.24 8.3a6.65 6.65 0 0 1-5.88-.72 1.42 1.42 0 0 0-1.93.51 51.69 51.69 0 0 1-16.16 16.77c-6.53 4.34-14.22 7.58-22.16 7.67a25.19 25.19 0 0 1-20.82-10.49c-4.09-5.6-6.19-12.14-8.34-18.64-1-3.12-2.15-6.21-3.42-9.24-.66-1.6-1.67-5.05-3.93-4.74l.67 2.46c6.89-1.82 10.62-8.65 11.64-15.27.51-3.29 1-7.93-1.18-10.7-2.09-2.59-5.93-2.65-8.75-1.32-4.08 1.94-5.59 6.78-6.76 10.79l2.22.61 1.86-8.69c.58-2.7 1.33-5.42 1.72-8.15a4 4 0 0 0-.49-2.86 5.85 5.85 0 0 0-2.75-1.74 40.93 40.93 0 0 1-6.28-3.48C784 380 777.87 371.76 773.25 363a151.52 151.52 0 0 1-7.25-16.76 1.06 1.06 0 0 0-1.91-.25 301.79 301.79 0 0 1-17.99 27.51c-.54.74.68 1.44 1.23.72z"></path></g><path d="M804.55 407.92a7.49 7.49 0 0 0-2.51 5l1.53-.42a2.42 2.42 0 0 0-.34-.45.83.83 0 0 0-1-.12.81.81 0 0 0-.37.91 2.57 2.57 0 0 0 .27.49.82.82 0 0 0 1.53-.41 6 6 0 0 1 .05-.61c0-.13 0 .12 0 0v-.14c0-.05 0-.21.07-.32s.1-.39.16-.59l.09-.27.06-.13c0-.12-.07.15 0-.06a6.25 6.25 0 0 1 .58-1 3.64 3.64 0 0 1 .3-.41c.14-.16.29-.32.44-.47a.65.65 0 0 0-.92-.92z" fill="#7a7058" class="fill-000000"></path><path d="m762.48 445.55.31-.3.15-.13.09-.07s.1-.08 0 0l.15-.11c.06 0 .15-.11.21-.17s-.12.09 0 0l.07-.05.18-.13a6 6 0 0 1 .73-.42l.18-.09h.11-.06l.55-.24a.69.69 0 0 0 .35-.45.77.77 0 0 0-.93-.93 5.39 5.39 0 0 0-1.73.86 5.53 5.53 0 0 0-.79.66 9.89 9.89 0 0 0-.64.81.65.65 0 0 0 .17.85.67.67 0 0 0 .87-.05z" fill="#daa520" class="fill-18c4ff"></path><path d="M750.67 370.83c2.77-3.87 5.5-7.78 8.11-11.76q1.92-2.94 3.8-5.91c.65-1 1.29-2.05 1.93-3.07a13.33 13.33 0 0 0 1.64-3 .9.9 0 0 0-1.49-.86 14 14 0 0 0-1.87 2.84c-.62 1-1.24 2.07-1.87 3.1q-1.83 3-3.7 6c-2.54 4-5.08 8-7.7 12-.48.72.66 1.36 1.15.67zM788 477.52c1.55.37 2 2.48 2.44 3.75q.95 2.58 1.88 5.17c1.28 3.56 2.44 7.2 3.86 10.71.47 1.16 2.34.73 2-.54-1.28-4.18-3-8.27-4.55-12.35-.72-1.88-1.35-3.85-2.22-5.67-.6-1.23-1.64-2.59-3.17-2.4-.71.08-1 1.14-.19 1.33z" fill="#7a7058" class="fill-000000"></path><path d="m770.9 531.11-29.1-23.95a3.84 3.84 0 0 1 1.67-6.15 603.15 603.15 0 0 1 117.67-26.93c2.2-.28 4.67-.5 5.91 2.62a8 8 0 0 1 .32 4.63c-2.17 10.1 7.73 16 14.76 20.89 42.68 29.66 36.48 86.37 46.54 131.32 4.21 18.8 11.36 36.08 17.8 54.14 3.19 8.94 6.09 29.3-4.69 39.86-4.55 4.45.75-8.43-.65-2.23-.75 3.37 7.71 6.71 5.71 9.52-1.42 2-3.8 3.09-6.07 4-44.11 18.51-87.79 30.32-135.61 29.24-6.42-.15-13.2-.59-18.52-4.17s-8.32-11.42-4.6-16.65c-12.9-8.44-8.71-24.61-9.63-39.11-1-15.26-7.27-40.1-13-54.29-6.31-15.74-11.49-21.73-13.28-38.75-1.86-17.64 2.73-34.53 10.41-50.1 2.94-6 11.38-28 14.32-33.93" fill="#7a7058" class="fill-000000"></path><path d="m771.41 530.59-25.58-21.29a34.42 34.42 0 0 1-3.36-2.78 2.88 2.88 0 0 1-.65-2.31c.25-1.65 1.56-2.2 3-2.67q5.07-1.68 10.16-3.29 20.25-6.37 40.92-11.31t41.62-8.41q10.68-1.77 21.43-3.15c2.16-.28 5.49-1.29 6.87 1 1.62 2.72 0 5.91.31 8.84.93 9.94 11.77 14.83 18.72 20.22A76.54 76.54 0 0 1 904.28 528c10 17.41 13.51 37.65 16.14 57.27 1.35 10.05 2.44 20.13 3.9 30.16a225.26 225.26 0 0 0 7.3 33.4c4 13.27 9.26 26.13 13.83 39.22a49.85 49.85 0 0 1 2 25.87c-1 4.72-3 9.42-6.48 12.8-.07.07-.7.5-.72.6s-.08 0-.07 0a2.8 2.8 0 0 1 .64.21c.41.21 0 .44.15.07a3.19 3.19 0 0 0 .06-.53c.15-.91.68-1.72.85-2.58.07-.35.13-.09.09-.17s-2-.37-1.73-.6v.2a4.55 4.55 0 0 0-.27 2c.1 1.7 1.5 3.07 2.67 4.17.66.62 1.35 1.21 2 1.84.42.42 1.38 1.19 1.38 1.86 0 .88-1.43 1.79-2.08 2.22a26.68 26.68 0 0 1-4.5 2.18c-24.83 10.37-50.5 19-77 24a276.66 276.66 0 0 1-40 4.64c-6.74.29-13.52.39-20.25.08-5.87-.27-12.63-1.13-17-5.53-3.44-3.49-5.23-9.2-2.29-13.53a1.12 1.12 0 0 0-.4-1.51c-6.17-4.12-8.41-10.79-8.89-17.91s.29-14.46-.3-21.68a159.24 159.24 0 0 0-3.63-22.11 241.05 241.05 0 0 0-6.43-23.29 209.25 209.25 0 0 0-8.71-21.09 79.89 79.89 0 0 1-6.83-21c-2.95-18.76 1.72-37 9.85-53.88 4.9-10.17 8.52-20.94 13.08-31.26.36-.82.73-1.63 1.12-2.43.64-1.29-1.29-2.43-1.93-1.13-5 10.24-8.61 21.17-13.23 31.6-1.36 3.07-2.89 6.05-4.2 9.14a106.42 106.42 0 0 0-4.7 13.44 83.28 83.28 0 0 0-3 27.74 72.83 72.83 0 0 0 5.44 23.36c3 7.25 6.64 14.22 9.36 21.6a215.32 215.32 0 0 1 6.84 22.82 185.86 185.86 0 0 1 4.44 23.51c.82 7.29.28 14.55.46 21.86.17 6.81 1.26 13.93 6 19.16a22 22 0 0 0 4.11 3.47l-.39-1.52c-3 4.47-1.9 10.33 1.16 14.47 3.56 4.81 9.42 6.78 15.15 7.52 6.94.88 14.1.65 21.07.46 7.21-.19 14.42-.68 21.59-1.45 28.32-3 56-10.48 82.58-20.47 6.7-2.51 13.45-5 20-8 2-.9 5.14-2.48 5.59-4.88.33-1.73-1.16-3.2-2.3-4.28s-3.51-2.56-3.71-4.23c-.12-1 .9-2.51-.3-3.23-1.92-1.15-2.87 3.25-3 4.35s0 2.37 1.24 2.57c1.5.24 2.94-1.68 3.75-2.64a28.16 28.16 0 0 0 6-13.52c1.65-9.45.19-19.18-3-28.13-5.06-14-10.58-27.92-14.6-42.3a247.1 247.1 0 0 1-6.55-33.9c-2.82-21.22-4.51-42.91-11.29-63.35a94 94 0 0 0-14.09-27.6 76.21 76.21 0 0 0-10.77-11.51c-4.08-3.54-8.66-6.34-13-9.6-3.92-3-8.06-6.91-8.41-12.14-.21-3 1.06-5.75-.19-8.7a5.25 5.25 0 0 0-5.51-3.25c-3.31.19-6.64.82-9.91 1.28-3.72.52-7.42 1.08-11.13 1.67q-11.24 1.78-22.41 4-22.22 4.41-44 10.47-11.1 3.09-22.09 6.59l-4.83 1.57a45.73 45.73 0 0 0-5.36 1.83 4.8 4.8 0 0 0-2.63 5.19c.37 2 1.88 2.91 3.32 4.09l7.18 5.84 16.75 13.64 3.1 2.53c.72.58 1.76-.43 1-1z" fill="#7a7058" class="fill-000000"></path><path d="M805.74 517c-26.34-2-49.69 15.58-70.24 32.19l-79.69 64.41-32.69-132.77c-.67-2.71-1.38-5.51-3.08-7.72-4.69-6.11-14-5-21.53-3.27-4 .91-8.18 1.92-11.2 4.68-4 3.64 1.12 2 .34 7.35-5.26 36-4.08 70.8-4.94 107.15-.44 18.61-.27 37.49 4.54 55.48s14.75 35.24 30.33 45.44c15.25 10 34.58 12.36 52.63 9.72s69.49-36.22 108.86-76.2c25.82-26.22-3.58 10.52 25.23-12.37 5-4 10.4 9.67 6.62 4.49" fill="#7a7058" class="fill-000000"></path><path d="M805.74 516.32c-21.89-1.73-41.68 9.84-58.6 22.47-9.53 7.11-18.68 14.75-27.95 22.21q-15.08 12.15-30.14 24.33l-34 27.49 1.84.49-21.16-86q-5.28-21.43-10.58-42.88c-1.37-5.54-2.32-11.94-7.75-15-4.45-2.52-9.94-2.21-14.81-1.44-5.32.85-11.51 2-15.72 5.56-1.09.93-2.72 2.4-2 4 .52 1.08 1.58 1.53 1.74 2.83a19.5 19.5 0 0 1-.5 4.68c-.24 1.71-.46 3.43-.66 5.15q-.65 5.33-1.13 10.67c-.66 7.22-1.12 14.47-1.44 21.72-.64 14.15-.76 28.33-.91 42.5-.14 14.36-.78 28.75-.43 43.12.6 25 5.26 51.14 21.95 70.71a63.35 63.35 0 0 0 28.73 19.2c11.78 3.82 24.49 4.47 36.72 2.85 6.13-.81 11.84-3.26 17.37-5.95a219.79 219.79 0 0 0 23.76-13.71 425.18 425.18 0 0 0 56.43-44q7-6.44 13.65-13.19c2.69-2.72 5.38-5.49 8.32-7.94a11.07 11.07 0 0 1 1.83-1.3c.26-.14 0 .13.07 0s.44.24-.07 0a2.1 2.1 0 0 1-.64-.39c-.54-.76 0-.05-.06-.1s0-.33 0-.08v.6c0-.47 0 .18-.06.33s-.09.5-.13.76a5 5 0 0 0 .18 3.25c.77 1.32 2.4 1.21 3.66.76a30.75 30.75 0 0 0 7.58-4.59c.88-.64 1.74-1.3 2.6-2s1.6-1.56 2.58-1.73 2.14.74 2.84 1.48a10.52 10.52 0 0 1 1.95 3 4.26 4.26 0 0 0 .17.48c.16.27-.07 0 .06-.18.32-.44 1.52-.85 1.6-.65s-.05 0-.09-.1c-.14-.22-.37-.42-.53-.64-.93-1.25-3.07 0-2.12 1.24.64.87 1.76 2.47 3 1.52 1-.73.43-2 0-2.91-1.06-2.32-3.1-5-5.74-5.59-1.89-.39-3.2.61-4.61 1.71-1.76 1.39-3.55 2.74-5.41 4a31.87 31.87 0 0 1-3.63 2.2 5.36 5.36 0 0 1-1.08.47l-.45.14c-.3.09-.31.07-.22 0-.24.06-.25-.07-.22 0s.18 0 0 0 0 .07.1.06-.65-.08 0 0c-.26 0 .16 0 0 0s.09.22 0 0-.07-.47 0 0a3.32 3.32 0 0 1 0-.63v-.44c0-.07.07-.47.11-.71a14 14 0 0 0 .24-1.58c.07-1.26-.64-2.44-2.06-2.14-1.58.33-3 1.87-4.16 2.89-3.37 3-6.48 6.28-9.67 9.47q-6.74 6.74-13.79 13.14-14 12.71-29 24.18c-8.83 6.75-17.91 13.18-27.29 19.14a198.06 198.06 0 0 1-23 12.88 71.18 71.18 0 0 1-8.78 3.47 50 50 0 0 1-11.16 1.77c-12.27.88-24.93-.61-36.25-5.58-22.43-9.84-35.17-32.46-40-55.57-2.91-13.79-3.36-28-3.2-42 .17-14.43.45-28.85.63-43.27.17-14.16.48-28.31 1.44-42.44.49-7.12 1.14-14.22 2-21.3.23-1.86.48-3.71.74-5.57a12.33 12.33 0 0 0 .24-3.83 4.6 4.6 0 0 0-.87-2.06 13 13 0 0 1-1-1.17s-.1.19.06 0 .44-.57.7-.84a13.58 13.58 0 0 1 3.86-2.64 39.2 39.2 0 0 1 8.37-2.44c4.86-1 10.52-2 15.28 0 6.06 2.51 6.78 9.68 8.16 15.3l5.24 21.32q10.53 42.9 21.12 85.77l5.14 20.84a1.11 1.11 0 0 0 1.84.48q29.73-24 59.46-48.09c9.4-7.62 18.71-15.37 28.26-22.81 8.56-6.67 17.5-13 27.21-17.88 10.61-5.34 22.27-8.66 34.22-7.92.88.05.87-1.29 0-1.36z" fill="#7a7058" class="fill-000000"></path><path d="m563.51 429.19 8.39 10.1c1.42 1.71 3.13 3.27 3.13 5.64 0 1.86-.13 3.71-.11 5.57.1 7.14 1.46 14.55 5.92 20.33 2.14 2.78 5.75 6 9.53 5.79a1.1 1.1 0 0 0 .3-2.15 16.19 16.19 0 0 1-4.58-1.87 15.81 15.81 0 0 1-3.68-3.62 25.82 25.82 0 0 1-4.24-9.49 51.27 51.27 0 0 1-1.25-10.62 28.5 28.5 0 0 0-.19-5.47c-.39-1.76-1.72-3.07-2.86-4.37l-9.43-10.77c-.56-.65-1.46.29-.93.93zM573.72 421.6c3.28 4.1 6.43 8.31 9.47 12.58.58.81 1.94 0 1.35-.79q-4.74-6.51-9.89-12.73c-.54-.65-1.45.28-.93.94zM583.19 415.13a46.24 46.24 0 0 1 8.35 9.57c.52.77 1.76.06 1.26-.74a42.32 42.32 0 0 0-8.67-9.78c-.65-.55-1.6.38-.94.95zM594 407.57a50.38 50.38 0 0 1 18.73 26.87 1 1 0 0 0 1.89-.52 48 48 0 0 0-19.91-27.56c-.76-.5-1.43.69-.71 1.21zM617.82 427.06c5.13 5.52 6.64 13.61 6.09 20.92a50.05 50.05 0 0 1-2.77 12.3c-.7 2-1.48 4-2.3 6s-2 4.17-2.7 6.33a1.14 1.14 0 0 0 2.08.88 58.32 58.32 0 0 0 2.89-6.58c.88-2.11 1.7-4.25 2.43-6.43a50.28 50.28 0 0 0 2.71-13.06c.44-7.8-1.83-15.71-7.5-21.27a.66.66 0 0 0-.93.93z" fill="#7a7058" class="fill-000000"></path><g fill="#daa520" class="fill-18c4ff"><path d="M641.6 625.92c2.43-2.19 4.95-4.28 7.58-6.23s5.33-3.66 8-5.45a.74.74 0 0 0-.74-1.28 87.62 87.62 0 0 0-15.83 12c-.65.59.31 1.54 1 1zM641.88 616.44l5.73-3.28a.69.69 0 0 0-.69-1.19l-5.72 3.32a.67.67 0 0 0 .68 1.15zM756.24 648a29.13 29.13 0 0 0 3.39-2.68c1.1-1 2.18-1.94 3.22-3a65.23 65.23 0 0 0 5.81-6.51c.58-.74-.45-1.79-1-1a77.72 77.72 0 0 1-5.74 6.43c-1 1-2 2-3.09 2.92s-2.27 1.83-3.32 2.82a.64.64 0 0 0 .77 1z"></path></g><g fill="#ffffff" class="fill-ffffff"><path d="m772.19 808.54 6.22 2.81 3.12 1.41a8.5 8.5 0 0 0 2.49 1c1.58.13 2.42-2 3.11-3l3.74-5.85c1.25-2 2.51-3.89 3.73-5.86 1-1.55.75-2.66-1-3.41-2.1-.92-4.22-1.81-6.32-2.71a60.57 60.57 0 0 0-6.17-2.6.94.94 0 0 0-.72 1.7 49.61 49.61 0 0 0 5.13 2.22l5.15 2.18 1.18.5a4.48 4.48 0 0 1 1.19.5c.25 0 .3.13.14.31l-.35.55-.8 1.29-2.88 4.6-2.87 4.6-1.49 2.39c-.22.35-.38.86-.85.92-.27 0-.81-.33-1-.43l-10.24-4.27c-.69-.29-1.19.9-.51 1.2zM804 846.8a59.94 59.94 0 0 1-6.83-12.34l-.37.92c4.43-2.17 8.85-4.38 13.27-6.59l3.09-1.54a7.5 7.5 0 0 1 1.77-.88c.86-.13.91.58 1.21 1.21 1 2.13 2 4.26 3 6.4s2 4.28 2.94 6.44c.32.74.9 1.59.14 2.29a4.62 4.62 0 0 1-1.47.65c-.88.31-1.78.53-2.68.77a16 16 0 0 0-5.31 2.12c-1.36 1-3.56 3.76-5.36 2.16a.85.85 0 0 0-1.2 1.2c2.92 3.24 6.53-1.61 9.06-2.72 1.85-.8 3.87-1.1 5.78-1.74 1.38-.46 3.11-1.07 3.34-2.72a5 5 0 0 0-.66-2.69c-.49-1.12-1-2.22-1.51-3.33q-1.53-3.33-3.09-6.64l-1.47-3.08a4 4 0 0 0-1.35-2 2.24 2.24 0 0 0-2.06.07c-1.2.51-2.35 1.17-3.51 1.75-4.93 2.48-9.86 5-14.76 7.47a.82.82 0 0 0-.29 1.11 60.65 60.65 0 0 0 7.15 12.39c.51.67 1.66 0 1.16-.68zM753.44 844.23a26.65 26.65 0 0 1 6.25 9.35.8.8 0 0 0 .95.53.77.77 0 0 0 .54-.94 28.46 28.46 0 0 0-6.78-9.9c-.64-.6-1.59.35-1 1zM819.79 773.57c.42 2 .83 4.06 1.26 6.09a58 58 0 0 0 1.28 5.88c.56 1.67 2 1.69 3.55 1.6 2-.12 4-.33 5.93-.61s4-.68 6-1.15c1.44-.34 3.23-.59 3.28-2.43a20.27 20.27 0 0 0-.28-2.8l-.34-3-.67-6.08c-.13-1.17-2-1.18-1.84 0l1.17 10.27c.06.54.41 1.51-.06 1.91a3.32 3.32 0 0 1-1.18.31l-1.3.32c-1.62.37-3.25.68-4.88.94s-3.38.48-5.08.62c-.59.05-1.84.36-2.38.08s-.62-1.49-.75-2.07q-1.18-5.1-2.39-10.2c-.2-.87-1.5-.49-1.33.37zM801.34 782.11l1.43-1a.77.77 0 0 0 .33-.42.75.75 0 0 0-.08-.55.73.73 0 0 0-.42-.33.71.71 0 0 0-.55.08l-1.43.94a.77.77 0 0 0-.33.42.75.75 0 0 0 .08.55.7.7 0 0 0 .42.33.75.75 0 0 0 .55-.07zM806.21 802.42l.47-.48a.41.41 0 0 0 .14-.21.43.43 0 0 0 .06-.27.4.4 0 0 0-.06-.26.48.48 0 0 0-.14-.22l-.13-.1a.71.71 0 0 0-.35-.1h-.18a.75.75 0 0 0-.3.17l-.47.48a.7.7 0 0 0 0 1l.13.11a.7.7 0 0 0 .35.09h.18a.92.92 0 0 0 .3-.18zM775.74 834.19a.84.84 0 0 0 0-1.68.84.84 0 0 0 0 1.68zM860.46 811.75c-3.64-.18-7.28-.17-10.92 0a.9.9 0 0 0-.85.64 48.94 48.94 0 0 0-1.42 18 1 1 0 0 0 1 1 68.89 68.89 0 0 0 10.94.1 42.29 42.29 0 0 0 5.14-.56 3.13 3.13 0 0 0 2.64-2.45 32.27 32.27 0 0 0 .4-5l.36-5.56c.09-1.49.56-3.36-.11-4.75-.5-1-1.62-1.64-2.56-.73-.7.69.24 2 1.08 1.4-.34-.17-.44-.17-.31 0a.73.73 0 0 1 .15.29 2.26 2.26 0 0 1 0 .82l-.15 2-.29 4.27-.3 4.26c-.06.87.16 2.75-.72 3.29a3.87 3.87 0 0 1-1.55.32l-2 .22c-1.46.13-2.91.21-4.37.27a81 81 0 0 1-8.39-.15l1 1a51.14 51.14 0 0 1 1.17-17.52l-.84.64a107.57 107.57 0 0 1 10.92-.35.69.69 0 0 0 0-1.38zM837.73 816.81l.93-1a.83.83 0 0 0 .23-.56.64.64 0 0 0-.07-.31.63.63 0 0 0-.16-.26.81.81 0 0 0-1.13 0l-1 .93a.65.65 0 0 0-.17.27.68.68 0 0 0-.07.32.71.71 0 0 0 .07.32.65.65 0 0 0 .17.27.85.85 0 0 0 1.18 0zM888.37 770.36l-7.32 2.64c-1.83.64-3.16 1.34-2.52 3.52.75 2.54 1.76 5 2.64 7.54l1.32 3.77a4.63 4.63 0 0 0 1.31 2.38 3 3 0 0 0 2.55.22l3.83-.86 7.66-1.72 3.83-.85a2.53 2.53 0 0 0 2-1.31 5.35 5.35 0 0 0-.25-2.82c-.27-1.23-.6-2.44-1-3.64a34.43 34.43 0 0 0-3-7c-1-1.73-2.59-3.33-4.75-3.23-1.23 0-1.24 2 0 1.91 1.57-.07 2.57 1.34 3.27 2.58a32.59 32.59 0 0 1 2.15 4.83 39.85 39.85 0 0 1 1.47 5 2.61 2.61 0 0 1 .14 1.35c-.15.5-.52.44-1 .55l-2.93.66-11.48 2.59c-.49.11-.94.33-1.37.06s-.5-.8-.66-1.25l-1-2.88-2-5.55a16.24 16.24 0 0 1-1.09-3c-.09-.74.26-.85.86-1.1l1.49-.58 6.18-2.43c.82-.32.49-1.65-.37-1.35zM861.09 789.24l.48-.47a.79.79 0 0 0 .18-.29.81.81 0 0 0 .08-.34.85.85 0 0 0-.08-.35.75.75 0 0 0-.18-.28l-.18-.14a.89.89 0 0 0-.45-.12h-.24a.86.86 0 0 0-.39.23l-.48.47a.64.64 0 0 0-.18.29.68.68 0 0 0-.08.34.69.69 0 0 0 .08.35.57.57 0 0 0 .18.28l.18.14a.89.89 0 0 0 .45.12h.24a.86.86 0 0 0 .39-.23zM911.93 753.16a31.67 31.67 0 0 0 1.7 5 21.9 21.9 0 0 0 2.57 4.67c1.12 1.4 2.48.85 3.89.22 1.77-.77 3.53-1.58 5.26-2.44s3.46-1.74 5.15-2.66c1.31-.71 3.26-1.38 3.71-3 .82-2.94-1-6.49-3.14-8.41-.89-.81-2.23.52-1.33 1.33A8.18 8.18 0 0 1 932 751c.37.94 1.06 3 .28 3.88a6.92 6.92 0 0 1-1.76 1l-1.97 1.12q-2 1.08-4.08 2.12c-1.31.66-2.63 1.3-4 1.92-.66.31-1.32.65-2 .92-1 .41-1.42-.62-1.85-1.35a32.68 32.68 0 0 1-3.4-7.81.7.7 0 0 0-1.34.38zM903.82 820.33c1.32-2.08 2.7-4.11 4.16-6.09.69-.94 1.4-1.86 2.12-2.77s1.68-2.58 3-2.65a8.65 8.65 0 0 1 3.28 1c1 .41 1.93.86 2.85 1.36a31 31 0 0 1 9.61 8c.32.4.8.84.71 1.4a7.21 7.21 0 0 1-.72 1.67c-.49 1-1 2.06-1.6 3.06a40.47 40.47 0 0 1-4 5.84 5.32 5.32 0 0 1-1 1.08c-.57.36-1.2 0-1.78-.2-1.21-.48-2.39-1-3.55-1.61a46.19 46.19 0 0 1-6.49-4c-.87-.65-5.9-4-3.67-5.36a1 1 0 0 0-1-1.64c-2.1 1.14-1.71 3.76-.37 5.33a30 30 0 0 0 6.88 5.36 46 46 0 0 0 7.84 3.93 3.12 3.12 0 0 0 3.3-.22 16.46 16.46 0 0 0 2.65-3.16 42.25 42.25 0 0 0 4.6-7.81c.45-1 1.13-2.1.74-3.21a10.85 10.85 0 0 0-2.36-3.13 32.45 32.45 0 0 0-13-8.78c-1.36-.48-3-1.08-4.34-.33-1.21.65-2 2-2.85 3.09a103.29 103.29 0 0 0-6.23 9.12c-.48.78.74 1.49 1.23.72zM889.24 815.2l1-1.9a.86.86 0 0 0 .08-.63.78.78 0 0 0-.37-.48.82.82 0 0 0-1.11.29l-.95 1.9a.86.86 0 0 0-.08.63.84.84 0 0 0 .37.48.82.82 0 0 0 .63.08.78.78 0 0 0 .48-.37zM924.71 789.9a.81.81 0 0 0 0-1.62.81.81 0 0 0 0 1.62zM954.45 783l-7.61 3.24c-1.82.78-4.17 1.4-4.84 3.51s.29 4.12 1.06 6c1 2.44 2.07 4.87 3.11 7.31.67 1.57 1.31 4.41 3.39 4.63 1.11.11 2.18-.61 3.14-1.08l3.61-1.76 3.61-1.75a10.14 10.14 0 0 0 2.93-1.72c1.53-1.6.87-4 .36-5.83a48.29 48.29 0 0 0-2.84-7.81c-.83-1.8-2-5.36-4.55-4.82-1 .21-.73 1.71.24 1.75s1.28 1.34 1.6 2c.45.88.88 1.77 1.28 2.68A44.75 44.75 0 0 1 961 795c.41 1.41 1.59 4.12.07 5.2a36.77 36.77 0 0 1-5.18 2.58c-1.8.87-3.59 1.81-5.42 2.63-1 .46-1.26-.34-1.61-1.14-.45-1-.89-2.07-1.33-3.11-.8-1.87-1.59-3.75-2.4-5.61-.63-1.45-1.74-3.35-1.4-5 .38-1.88 3.24-2.62 4.74-3.32l6.64-3.1c.78-.36.1-1.46-.67-1.14zM942.32 778.42a.75.75 0 0 0 0-1.5.75.75 0 0 0 0 1.5zM952.11 753.48c-.59.9-1.19 1.79-1.76 2.7s-1.4 1.93-.52 2.85a3.29 3.29 0 0 0 1.18.67l1.5.62c1 .42 2 .82 3 1.22a.84.84 0 0 0 1-.58.87.87 0 0 0-.59-1c-.83-.34-1.67-.68-2.51-1l-1.26-.49c-.37-.15-.83-.3-1.11-.45h-.08s.23.25 0 .17a3.59 3.59 0 0 1 .21-.38c.23-.39.46-.77.68-1.16.45-.79.88-1.61 1.32-2.41a.66.66 0 0 0-1.14-.67zM863.18 858.09l-.22-3.15c-.05-.67-.5-2.56 0-3a3.72 3.72 0 0 1 1.36-.42l1.56-.45c1.1-.31 2.21-.6 3.32-.88a103.5 103.5 0 0 1 13.3-2.38l-.87-.88a43.77 43.77 0 0 0 .46 10c.18 1.15 1.94.67 1.75-.48a41.89 41.89 0 0 1-.46-9.49.89.89 0 0 0-.88-.88 111 111 0 0 0-15.12 2.85c-1.24.32-2.48.66-3.7 1.05a3.8 3.8 0 0 0-2.2 1.19c-.56.85-.19 2.09-.09 3 .14 1.31.27 2.62.41 3.94.09.85 1.42.88 1.36 0zM842.55 851.82l1.42-1.91a.76.76 0 0 0 .08-.57.72.72 0 0 0-.35-.45.76.76 0 0 0-.57-.08l-.18.08a.7.7 0 0 0-.27.27l-1.43 1.9a.74.74 0 0 0-.07.58.76.76 0 0 0 .34.45.77.77 0 0 0 .58.07l.18-.07a.87.87 0 0 0 .27-.27zM844.75 840.83a.81.81 0 0 0 0-1.62.81.81 0 0 0 0 1.62zM763.86 858.12l.48-.47a.51.51 0 0 0 .15-.23.64.64 0 0 0 0-.54.51.51 0 0 0-.15-.23l-.14-.11a.65.65 0 0 0-.36-.1h-.19a.65.65 0 0 0-.31.18l-.47.48a.49.49 0 0 0-.14.23.42.42 0 0 0-.06.27.45.45 0 0 0 .06.27.52.52 0 0 0 .14.22l.14.11a.75.75 0 0 0 .36.1h.18a.65.65 0 0 0 .31-.18zM778.59 848.84c1.18-.15 2.37-.3 3.54-.49a.76.76 0 0 0 .55-.85.74.74 0 0 0-.75-.66c-1.19.13-2.36.33-3.54.51a.72.72 0 0 0-.45.35.73.73 0 0 0-.09.48.75.75 0 0 0 .74.66zM928.13 856.52c.87-1.49 1-3.17 1.29-4.82a4.7 4.7 0 0 1 1-2.38 4.06 4.06 0 0 1 2.94-1c2.43-.08 4.88.07 7.3.12l7.83.16-.88-.87c-.07 2.49-.24 5-.19 7.51a.86.86 0 0 0 1.72 0c.19-2.49.15-5 .22-7.51a.89.89 0 0 0-.87-.88l-8.65-.13a46.64 46.64 0 0 0-7.66 0 4.63 4.63 0 0 0-3.89 3.38c-.57 1.87-.35 4-1.32 5.7a.67.67 0 0 0 1.15.68zM972.86 828c-3.38-1.43-6.93 1.42-7.59 4.76a11.74 11.74 0 0 0 1 6.68c1 2.34 2.13 4.58 3.22 6.85l.55-1.36-1.76.37c-1.17.24-.68 2 .49 1.79l1.76-.38a.93.93 0 0 0 .55-1.35c-.88-1.8-1.78-3.59-2.63-5.41a14 14 0 0 1-1.57-5.57c0-2.73 2.36-6.2 5.45-5.08.75.27 1.29-1 .55-1.3z"></path></g><g fill="#daa520" class="fill-18c4ff"><path d="M882 547.7c6.79 21.53 11.37 43.65 15.36 65.85s7.63 44.55 12.39 66.64c2.26 10.5 5.05 21.33 12.26 29.63l.19-1.49a14.79 14.79 0 0 0-5.93 8 1 1 0 0 0 .43 1.08l5.33 3a1 1 0 0 0 1-1.67l-5.34-3 .43 1.07a12.69 12.69 0 0 1 5-6.89 1 1 0 0 0 .2-1.49c-6.48-7.43-9.2-17.16-11.32-26.58-2.41-10.74-4.45-21.57-6.43-32.4-4-22-7.67-44-12.62-65.82-2.78-12.23-5.9-24.38-9.7-36.33-.26-.81-1.53-.47-1.28.35zM922.77 727l1.43-4.28a1 1 0 0 0-.66-1.17 1 1 0 0 0-1.17.66l-1.43 4.29a.95.95 0 1 0 1.83.5z"></path><path d="M787.08 748.18a17.09 17.09 0 0 0 14.72 1.32c2.74-.92 5.37-2 8.31-1.8s5.6 1.15 8.34 1.9a22.65 22.65 0 0 0 15.68-1 72.21 72.21 0 0 1 7.45-3.23 16.3 16.3 0 0 1 8.38-.09 34.41 34.41 0 0 0 8 1.21 15.33 15.33 0 0 0 6.35-1.7c4.11-2 7.49-5.31 11.69-7.18 4.78-2.13 10-1.19 15-.72s9.69.19 13.86-2.86a29.79 29.79 0 0 1 3.57-2.46 8.64 8.64 0 0 1 4.67-.83c3 .21 5.92 1.23 9 .86 5.79-.69 10.83-7.34 16.92-5.14 1.24.45 1.71-1.47.54-1.94-5.24-2.12-10 2-14.42 4.08-2.75 1.26-5.41 1.11-8.33.62-2.52-.42-5.18-.91-7.68-.1s-4.16 2.52-6.2 3.88a13.59 13.59 0 0 1-7.15 2.15c-5 .18-10-1.18-15-.68-4.7.46-8.43 2.9-12.2 5.52-4.14 2.88-8.17 5.29-13.41 4.54-2.68-.38-5.28-1.2-8-1.47a16.26 16.26 0 0 0-7.61 1.18c-2.47 1-4.78 2.29-7.25 3.27a19.56 19.56 0 0 1-8.42 1.38c-6.11-.4-11.65-3.95-17.89-2.46-3 .72-5.88 2.27-9 2.58a15 15 0 0 1-9.2-2.01.71.71 0 0 0-.72 1.22z"></path></g><path d="M467.19 409.77a3.2 3.2 0 0 0-.55 1.61 3 3 0 0 0 .24 1.62 1.39 1.39 0 0 0 1.6.78 1.5 1.5 0 0 0 1-1.4 2.27 2.27 0 0 0-.07-.74 7.4 7.4 0 0 0-.38-.87l.1.22a1.62 1.62 0 0 1-.14-.44v.25c0-.15-.05-.3-.08-.46v.24a.74.74 0 0 1 0-.21v.23-.05a.87.87 0 0 0-.49-1 .85.85 0 0 0-1.06.35 1.47 1.47 0 0 0-.14 1.39c.13.34.33.65.48 1l-.1-.22a1.35 1.35 0 0 1 .09.33v-.24a1.82 1.82 0 0 1 0 .33v-.23a.83.83 0 0 1-.06.21l.09-.21v.08c-.05.11.15-.18.07-.09s-.06 0 .09-.06h-.07l.2-.08h-.08.23-.13.22-.13l.21.08s-.16-.1 0 0l.08.1v-.06l-.06-.1c-.07-.13.07.19 0 .05V411.77v.21a3.17 3.17 0 0 1 0-.87v.21a4.72 4.72 0 0 1 .26-1 .71.71 0 0 0-.41-.84.73.73 0 0 0-.89.29zM463.14 403.21a18.77 18.77 0 0 1 4.42-1.13 15 15 0 0 1 2.22-.12 10.88 10.88 0 0 1 1.14.06 3 3 0 0 0 1.34 0 1 1 0 0 0 0-2 6.84 6.84 0 0 0-1.43-.11h-1.13a16.67 16.67 0 0 0-2.54.24 13.83 13.83 0 0 0-4.6 1.71c-.73.42-.24 1.72.58 1.39zM489.14 409.77a3.41 3.41 0 0 0-.55 1.61 3.09 3.09 0 0 0 .24 1.62 1.39 1.39 0 0 0 1.6.78 1.49 1.49 0 0 0 1-1.4 2 2 0 0 0-.07-.74c-.09-.3-.25-.58-.37-.87l.09.22a2.06 2.06 0 0 1-.14-.44v.25c0-.15-.05-.3-.08-.46v.24a1.48 1.48 0 0 1 0-.21v.23-.05a.85.85 0 0 0-1.55-.65 1.5 1.5 0 0 0-.14 1.39c.13.34.33.65.48 1l-.09-.22a1.32 1.32 0 0 1 .08.33v-.24a1.82 1.82 0 0 1 0 .33v-.23a.83.83 0 0 1-.06.21l.09-.21v.08c-.05.11.15-.18.07-.09s-.06 0 .1-.06a.19.19 0 0 0-.08 0l.21-.08h-.09.23-.11.23a.5.5 0 0 1-.13 0l.2.08s-.16-.1 0 0 0 0 .07.1v-.06l-.05-.1c-.07-.13.06.19 0 .05v-.1a1.88 1.88 0 0 1-.06-.31v.21a3.17 3.17 0 0 1 0-.87v.21a5.44 5.44 0 0 1 .26-1 .71.71 0 0 0-.41-.84.73.73 0 0 0-.89.29zM485.1 403.21a18.64 18.64 0 0 1 4.42-1.13 14.81 14.81 0 0 1 2.21-.12 10.88 10.88 0 0 1 1.14.06 3 3 0 0 0 1.34 0 1 1 0 0 0 0-2 6.75 6.75 0 0 0-1.42-.11h-1.14a16.67 16.67 0 0 0-2.54.24 13.83 13.83 0 0 0-4.6 1.71c-.72.42-.23 1.72.59 1.39zM481.73 410.78c.11 1.38.26 2.77.43 4.15.09.69.19 1.38.29 2.07a5.61 5.61 0 0 0 .43 1.86c.54.95 1.81.82 2.32 1.82a1.78 1.78 0 0 1-.94 2.41c-1 .39-.57 2 .45 1.62a3.38 3.38 0 0 0 .94-5.88 3 3 0 0 0-.74-.42c-.27-.11-.62-.13-.76-.41a3.94 3.94 0 0 1-.21-1c-.08-.41-.15-.83-.22-1.24-.28-1.65-.51-3.3-.69-5-.09-.82-1.37-.84-1.3 0z" fill="#7a7058" class="fill-000000"></path><path d="M496.06 392.74c.21 10.82 2.34 21.51 2.6 32.33.14 6.06.24 12.43-2.32 18.07-2.08 4.6-5.51 9.31-10.11 11.63-5.06 2.54-11.7.71-16.78-.87-1.11-.35-1.58 1.38-.48 1.73 4.87 1.55 10.4 2.91 15.49 1.72s9-5.65 11.69-9.91c3.25-5.23 4.35-11 4.38-17.13a150.1 150.1 0 0 0-1.19-18c-.75-6.52-1.7-13-2-19.59a.66.66 0 0 0-1.32 0zM446.67 412a5.22 5.22 0 0 0-4.4-4 6.52 6.52 0 0 0-6 2.75c-3 4-1.57 10.12 1.58 13.61a9.46 9.46 0 0 0 6.74 3.24 1.07 1.07 0 0 0 0-2.14c-4.61-.11-7.74-4.91-7.84-9.18 0-2.41.91-5 3.17-6.08a3.81 3.81 0 0 1 5.38 2.14.7.7 0 0 0 1.35-.37z" fill="#7a7058" class="fill-000000"></path><path d="M441.93 417.1h.06-.09a.18.18 0 0 1 .09 0l.17.1h.08c.1.07-.13-.11 0 0l.15.13.13.14c.08.09-.1-.14 0 0l.06.08a2.21 2.21 0 0 1 .18.34l-.07-.17a2.18 2.18 0 0 1 .15.57v-.2a1.74 1.74 0 0 1 0 .51v-.2a2.44 2.44 0 0 1-.06.26l1-.54.19.07h-.08l.16.12-.06-.06.13.16-.05-.08.08.19v-.11.21a1.73 1.73 0 0 0 0-.32v.21a.22.22 0 0 1 0-.08v.2a.75.75 0 0 0-.34-.83.76.76 0 0 0-.89.11 1 1 0 0 0-.26 1 1.16 1.16 0 0 0 .77.75.78.78 0 0 0 1-.54 2.78 2.78 0 0 0-.36-2 2.7 2.7 0 0 0-1.59-1.2.64.64 0 0 0-.34 1.23zM437.34 474.38c1.33-7.82 2.7-15.63 4-23.45.66-3.91 1.28-7.83 1.91-11.75l.9-5.63a37.27 37.27 0 0 0 .86-5.91 1 1 0 0 0-1.92-.26 37 37 0 0 0-1 5.86l-.93 5.88c-.61 3.84-1.22 7.68-1.79 11.52-1.16 7.78-2.28 15.57-3.44 23.35-.13.9 1.24 1.3 1.39.39zM476.39 473.74c.51-2.68 1.06-5.37 1.62-8.05.27-1.29.55-2.58.84-3.86.15-.7.32-1.39.47-2.08a4.41 4.41 0 0 0 .2-2c-.18-.83-1.2-.76-1.62-.21a4.69 4.69 0 0 0-.61 2c-.14.7-.27 1.4-.4 2.1-.24 1.3-.47 2.61-.69 3.91-.46 2.68-.81 5.36-1.13 8.05-.09.75 1.18.92 1.32.18z" fill="#7a7058" class="fill-000000"></path><path d="M437.26 464.58c1.67 3.6 7 6.15 10.79 7.18 7.21 1.94 14.64 3.32 22.1 3.06a10 10 0 0 0 5.21-1.26c1.5-1 2.64-5.12 1.84-6.74 3 1.85 5.32 2.47 7.16 4.42a8.13 8.13 0 0 1 2 7.46c-.49 2-1.69 4.14-.59 5.84a5.13 5.13 0 0 0 2.27 1.62c6.09 2.79 25.15 5.24 31.52 7.34 4 1.33 8.31 2.62 11.33 5.62 3.38 3.39 4.58 8.34 5.33 13.06a115.16 115.16 0 0 1 1.45 18.63c-13.48 2-39.11.89-54.3.43-30.84-.91-79.05-.16-109.9.27-2.52 0-6.11 1.27-7.37-.92-.72-1.26 0-4.26.1-5.71.28-3 .59-6 .91-8.94.37-3.35.79-6.77 2.33-9.76 1.62-3.15 4.36-5.57 7.21-7.67 8.61-6.36 38.68-12.1 48.15-17.07a12.18 12.18 0 0 0 4.15-3c2.11-2.71 1.67-6.52 2.13-9.92s4.4-7 7.29-7.52" fill="#7a7058" class="fill-000000"></path><path d="M436.68 464.92c1.26 2.64 3.83 4.45 6.36 5.76a41.52 41.52 0 0 0 10.11 3.22 75.54 75.54 0 0 0 12.25 1.79c3.24.19 8 .71 10.71-1.49 1.88-1.51 3-5.4 2.06-7.64l-1.47 1.12c3.06 1.88 7.16 3 8.43 6.77a8.49 8.49 0 0 1-.3 5.58c-.5 1.57-1 3.33-.1 4.87 1.16 2.06 4.16 2.83 6.3 3.46 2.57.75 5.19 1.32 7.81 1.87 5.69 1.19 11.43 2.13 17.09 3.46a60.73 60.73 0 0 1 7.66 2.41c3.6 1.37 6.76 3.38 8.66 6.82 2.06 3.73 2.67 8.17 3.23 12.34a117.11 117.11 0 0 1 1 15.55l.85-1.11c-9 1.29-18.12 1.26-27.17 1.18-9.26-.08-18.52-.43-27.78-.69-20-.57-40.08-.47-60.11-.3q-15.39.12-30.76.31l-13.82.17a63 63 0 0 0-6.45.25c-1.68.19-4.34.74-4.4-1.64a22.77 22.77 0 0 1 .33-3.3c.19-1.36.29-2.73.43-4.09.31-3 .55-6.07 1.05-9.07a17.63 17.63 0 0 1 3-7.84 24.83 24.83 0 0 1 5.81-5.39 35.8 35.8 0 0 1 8.13-3.9c3.75-1.41 7.59-2.6 11.43-3.74 7.65-2.28 15.42-4.23 22.94-6.93 3.2-1.15 7-2.48 9.38-5a10.88 10.88 0 0 0 2.48-6.57c.25-2.51 0-5 1.53-7.19a9.25 9.25 0 0 1 5.27-3.83c1.48-.33.86-2.6-.63-2.28a11.13 11.13 0 0 0-5.7 3.67 10.53 10.53 0 0 0-2.6 6.52c-.2 2.48-.07 5.37-1.59 7.49-1.24 1.72-3.41 2.7-5.29 3.55a81.7 81.7 0 0 1-9.46 3.34c-4.16 1.28-8.35 2.47-12.53 3.69-7.43 2.16-15.22 4.18-22.12 7.78a25.49 25.49 0 0 0-9.7 8.67c-3.08 4.95-3.09 11.4-3.65 17a63.34 63.34 0 0 0-.74 7.39 3.72 3.72 0 0 0 3.14 3.9c2.11.36 4.33-.27 6.46-.3l6.85-.1q15.23-.24 30.44-.43c21.15-.25 42.32-.38 63.47 0 19 .37 38.16 1.79 57.18.46 1.93-.14 3.85-.32 5.77-.6a1.16 1.16 0 0 0 .85-1.12 118.94 118.94 0 0 0-.81-14 54.33 54.33 0 0 0-2.29-11.76 16.78 16.78 0 0 0-6.39-8.64c-3-2-6.51-3.09-9.89-4.12-5.17-1.57-10.64-2.31-15.94-3.33-3-.57-5.92-1.15-8.85-1.86a29.89 29.89 0 0 1-6.55-2.07c-1.12-.55-1.84-1.21-1.68-2.56a23.67 23.67 0 0 1 .9-3.27 9.22 9.22 0 0 0-.37-5.82c-1.66-4.07-5.72-5.29-9.19-7.4-.94-.57-1.73.52-1.37 1.37.49 1.15-.08 3-.56 4-.8 1.81-2.49 2.26-4.37 2.45a52.43 52.43 0 0 1-13.35-.73 68.2 68.2 0 0 1-12-2.79c-3.14-1.12-6.67-2.94-8.25-6-.4-.77-1.53-.09-1.16.68zM223 233.3a3.2 3.2 0 0 0-.55 1.61 3 3 0 0 0 .24 1.62 1.39 1.39 0 0 0 1.6.78 1.5 1.5 0 0 0 1-1.4 2.27 2.27 0 0 0-.07-.74 7.4 7.4 0 0 0-.38-.87l.1.22a2.06 2.06 0 0 1-.14-.44v.25c0-.15 0-.3-.08-.46v.24a.74.74 0 0 1 0-.21v.23a.85.85 0 0 0-1.55-.65 1.5 1.5 0 0 0-.14 1.39c.13.34.33.65.48 1l-.09-.22a2 2 0 0 1 .08.33v-.24a1.82 1.82 0 0 1 0 .33v-.23a.83.83 0 0 1-.06.21l.09-.21v.08c0 .08.15-.18.07-.09s-.06 0 .09-.06h-.07l.21-.08h-.09.23a.57.57 0 0 1-.13 0h.23a.7.7 0 0 1-.14 0l.21.08s-.16-.1 0 0l.08.1v-.06l-.06-.1c-.07-.13.07.19 0 .05v-.1a1.88 1.88 0 0 1-.06-.31v.21a3.17 3.17 0 0 1 0-.87v.21a4.72 4.72 0 0 1 .26-1 .71.71 0 0 0-.41-.84.73.73 0 0 0-.89.29zM219 226.74a18.89 18.89 0 0 1 4.42-1.13 15 15 0 0 1 2.22-.12 10.88 10.88 0 0 1 1.14.06 3 3 0 0 0 1.34 0 1 1 0 0 0 0-2 6.84 6.84 0 0 0-1.43-.11h-1.13a16.67 16.67 0 0 0-2.54.24 13.83 13.83 0 0 0-4.6 1.71c-.73.42-.23 1.72.58 1.39zM245 233.3a3.41 3.41 0 0 0-.55 1.61 3.09 3.09 0 0 0 .24 1.62 1.39 1.39 0 0 0 1.6.78 1.49 1.49 0 0 0 1-1.4 2 2 0 0 0-.07-.74c-.09-.3-.25-.58-.37-.87l.09.22a2.06 2.06 0 0 1-.14-.44v.25c0-.15-.06-.3-.09-.46v.24a1.48 1.48 0 0 1 0-.21v.23a.85.85 0 0 0-1.55-.65 1.5 1.5 0 0 0-.14 1.39c.14.34.33.65.48 1l-.09-.22a1.32 1.32 0 0 1 .08.33v-.24a1.22 1.22 0 0 1 0 .33v-.23a1.6 1.6 0 0 1 0 .21l.08-.21a.3.3 0 0 1 0 .08c-.05.11.15-.18.07-.09s-.06 0 .1-.06h-.08l.21-.08h-.08.22a.56.56 0 0 1-.13 0h.23a.5.5 0 0 1-.13 0l.2.08s-.16-.1 0 0 0 0 .07.1v-.06a.93.93 0 0 0 0-.1c-.07-.13.06.19 0 .05v-.1a1.88 1.88 0 0 1-.06-.31v.21a3.17 3.17 0 0 1 0-.87v.21a4.7 4.7 0 0 1 .25-1 .71.71 0 0 0-.41-.84.73.73 0 0 0-.89.29zM240.94 226.74a18.64 18.64 0 0 1 4.42-1.13 14.81 14.81 0 0 1 2.21-.12 10.88 10.88 0 0 1 1.14.06 3 3 0 0 0 1.34 0 1 1 0 0 0 0-2 6.75 6.75 0 0 0-1.42-.11h-1.14a16.67 16.67 0 0 0-2.54.24 13.83 13.83 0 0 0-4.6 1.71c-.72.42-.23 1.72.59 1.39zM237.57 234.31c.11 1.38.26 2.77.44 4.15.08.69.18 1.38.28 2.07a5.61 5.61 0 0 0 .43 1.86c.54 1 1.81.82 2.32 1.82a1.78 1.78 0 0 1-.94 2.41c-1 .39-.57 2 .45 1.62a3.38 3.38 0 0 0 .94-5.88 3 3 0 0 0-.74-.42c-.27-.12-.61-.13-.76-.41a3.94 3.94 0 0 1-.21-1c-.08-.41-.15-.83-.22-1.24-.28-1.65-.51-3.3-.69-5-.09-.82-1.37-.84-1.3 0z" fill="#7a7058" class="fill-000000"></path><path d="M251.9 216.27c.21 10.82 2.34 21.51 2.6 32.33.14 6.06.24 12.43-2.32 18.07-2.08 4.6-5.51 9.31-10.11 11.63-5.06 2.54-11.7.71-16.78-.87-1.11-.35-1.58 1.38-.48 1.73 4.87 1.55 10.4 2.91 15.49 1.72s9-5.65 11.69-9.91c3.25-5.23 4.35-11 4.38-17.13a150.1 150.1 0 0 0-1.19-18c-.75-6.52-1.7-13-2-19.59a.66.66 0 0 0-1.32 0zM202.51 235.5a5.22 5.22 0 0 0-4.4-4 6.52 6.52 0 0 0-6 2.75c-3 4-1.57 10.12 1.58 13.61a9.46 9.46 0 0 0 6.74 3.24 1.07 1.07 0 0 0 0-2.14c-4.61-.11-7.74-4.91-7.84-9.18-.05-2.41.91-5 3.17-6.08a3.81 3.81 0 0 1 5.38 2.14.7.7 0 0 0 1.35-.37z" fill="#7a7058" class="fill-000000"></path><path d="M197.77 240.63h.06-.09a.18.18 0 0 1 .09 0l.17.1.08.05c.1.07-.13-.11 0 0l.14.13.13.14c.08.09-.1-.14 0 0l.06.08a2.21 2.21 0 0 1 .18.34l-.07-.17a2.18 2.18 0 0 1 .15.57v-.2a2.17 2.17 0 0 1 0 .51v-.2a2.38 2.38 0 0 1-.05.26l1-.54.19.07h-.08l.16.12-.06-.06.13.16-.05-.08.08.19a.36.36 0 0 1 0-.11v.21a1.73 1.73 0 0 0 0-.32v.21a.11.11 0 0 1 0-.08v.2a.75.75 0 0 0-.34-.83.76.76 0 0 0-.89.11 1 1 0 0 0-.26 1 1.16 1.16 0 0 0 .77.75.78.78 0 0 0 .95-.54 2.74 2.74 0 0 0-.36-2 2.67 2.67 0 0 0-1.59-1.2.64.64 0 0 0-.34 1.23zM232.23 297.27c.51-2.68 1.06-5.37 1.62-8 .27-1.29.55-2.58.84-3.86.15-.7.32-1.39.47-2.08a4.41 4.41 0 0 0 .2-2c-.18-.83-1.2-.76-1.62-.21a4.84 4.84 0 0 0-.61 2c-.14.7-.27 1.4-.4 2.1-.24 1.3-.47 2.61-.69 3.91-.46 2.68-.81 5.36-1.13 8-.08.75 1.18.92 1.32.18zM193.18 297.91c1.33-7.82 2.7-15.63 4-23.45.66-3.91 1.28-7.83 1.91-11.75l.9-5.63a37.27 37.27 0 0 0 .86-5.91 1 1 0 0 0-1.92-.26 37 37 0 0 0-1 5.86l-.93 5.88c-.61 3.84-1.22 7.68-1.79 11.52-1.16 7.78-2.28 15.57-3.44 23.35-.13.9 1.24 1.3 1.39.39zM223 536.29a3.2 3.2 0 0 0-.55 1.61 3 3 0 0 0 .24 1.62 1.39 1.39 0 0 0 1.6.78 1.5 1.5 0 0 0 1-1.4 2.27 2.27 0 0 0-.07-.74 7.4 7.4 0 0 0-.38-.87l.1.22a2.06 2.06 0 0 1-.14-.44v.25c0-.15 0-.3-.08-.46v.24a.74.74 0 0 1 0-.21v.23a.85.85 0 0 0-1.55-.65 1.5 1.5 0 0 0-.14 1.39c.13.34.33.65.48 1l-.09-.22a2 2 0 0 1 .08.33v-.24a1.82 1.82 0 0 1 0 .33v-.23a.83.83 0 0 1-.06.21l.09-.21v.08c0 .08.15-.18.07-.09s-.06 0 .09-.06h-.07l.21-.08h-.09.23-.13.23a.7.7 0 0 1-.14 0l.21.08s-.16-.1 0 0l.08.1v-.06l-.06-.1c-.07-.13.07.19 0 0v-.1a1.88 1.88 0 0 1-.06-.31v.21a3.17 3.17 0 0 1 0-.87v.21a4.72 4.72 0 0 1 .26-1 .71.71 0 0 0-.41-.84.73.73 0 0 0-.89.29zM219 529.73a18.89 18.89 0 0 1 4.42-1.13 13.71 13.71 0 0 1 2.22-.12 10.88 10.88 0 0 1 1.14.06 3 3 0 0 0 1.34 0 1 1 0 0 0 0-2 6.84 6.84 0 0 0-1.43-.11h-1.13a16.67 16.67 0 0 0-2.54.24 13.83 13.83 0 0 0-4.6 1.71c-.73.42-.23 1.72.58 1.39zM245 536.29a3.41 3.41 0 0 0-.55 1.61 3.09 3.09 0 0 0 .24 1.62 1.39 1.39 0 0 0 1.6.78 1.49 1.49 0 0 0 1-1.4 2 2 0 0 0-.07-.74c-.09-.3-.25-.58-.37-.87l.09.22a2.06 2.06 0 0 1-.14-.44v.25c0-.15-.06-.3-.09-.46v.24a1.48 1.48 0 0 1 0-.21v.23a.85.85 0 0 0-1.55-.65 1.5 1.5 0 0 0-.14 1.39c.14.34.33.65.48 1l-.09-.22a1.32 1.32 0 0 1 .08.33v-.24a1.22 1.22 0 0 1 0 .33v-.23a1.6 1.6 0 0 1 0 .21l.08-.21v.08c-.05.11.15-.18.07-.09s-.06 0 .1-.06h-.08l.21-.08h-.08.22-.13.23a.5.5 0 0 1-.13 0l.2.08s-.16-.1 0 0 0 0 .07.1v-.06a.93.93 0 0 0 0-.1c-.07-.13.06.19 0 0v-.1a1.88 1.88 0 0 1-.06-.31v.21a3.17 3.17 0 0 1 0-.87v.21a4.7 4.7 0 0 1 .25-1 .71.71 0 0 0-.41-.84.73.73 0 0 0-.89.29zM240.94 529.73a18.64 18.64 0 0 1 4.42-1.13 13.59 13.59 0 0 1 2.21-.12 10.88 10.88 0 0 1 1.14.06 3 3 0 0 0 1.34 0 1 1 0 0 0 0-2 6.75 6.75 0 0 0-1.42-.11h-1.14a16.67 16.67 0 0 0-2.54.24 13.83 13.83 0 0 0-4.6 1.71c-.72.42-.23 1.72.59 1.39zM237.57 537.3c.11 1.38.26 2.77.44 4.15.08.69.18 1.38.28 2.07a5.61 5.61 0 0 0 .43 1.86c.54 1 1.81.82 2.32 1.82a1.78 1.78 0 0 1-.94 2.41c-1 .39-.57 2 .45 1.62a3.38 3.38 0 0 0 .94-5.88 3 3 0 0 0-.74-.42c-.27-.12-.61-.13-.76-.41a3.94 3.94 0 0 1-.21-1c-.08-.41-.15-.83-.22-1.24-.28-1.65-.51-3.3-.69-5-.09-.82-1.37-.85-1.3 0z" fill="#7a7058" class="fill-000000"></path><path d="M251.9 519.26c.21 10.82 2.34 21.51 2.6 32.33.14 6.06.24 12.43-2.32 18.07-2.08 4.6-5.51 9.31-10.11 11.63-5.06 2.54-11.7.71-16.78-.88-1.11-.34-1.58 1.39-.48 1.74 4.87 1.55 10.4 2.91 15.49 1.72s9-5.65 11.69-9.91c3.25-5.23 4.35-11 4.38-17.14a149.93 149.93 0 0 0-1.19-18c-.75-6.52-1.7-13-2-19.59a.66.66 0 0 0-1.32 0zM202.51 538.49a5.2 5.2 0 0 0-4.4-4 6.52 6.52 0 0 0-6 2.75c-3 4-1.57 10.12 1.58 13.61a9.46 9.46 0 0 0 6.74 3.24 1.07 1.07 0 0 0 0-2.14c-4.61-.11-7.74-4.92-7.84-9.18-.05-2.41.91-5 3.17-6.08a3.81 3.81 0 0 1 5.38 2.14.7.7 0 0 0 1.35-.37z" fill="#7a7058" class="fill-000000"></path><path d="M197.77 543.62h.06-.09a.18.18 0 0 1 .09 0l.17.1h.08c.1.07-.13-.11 0 0l.14.13.13.14c.08.09-.1-.14 0 0l.06.08a2.21 2.21 0 0 1 .18.34l-.07-.17a2.18 2.18 0 0 1 .15.57v-.2a2.17 2.17 0 0 1 0 .51v-.2a2.38 2.38 0 0 1-.05.26l1-.54.19.07h-.08l.16.12-.06-.06.13.16-.05-.08.08.19a.43.43 0 0 1 0-.11v.21a1.73 1.73 0 0 0 0-.32v.21a.11.11 0 0 1 0-.08v.2a.75.75 0 0 0-.34-.83.76.76 0 0 0-.89.11 1 1 0 0 0-.26 1 1.16 1.16 0 0 0 .77.75.78.78 0 0 0 .95-.54 2.74 2.74 0 0 0-.36-2 2.67 2.67 0 0 0-1.59-1.2.64.64 0 0 0-.78.45.64.64 0 0 0 .44.78zM193.18 600.89c1.33-7.81 2.7-15.62 4-23.44.66-3.91 1.28-7.83 1.91-11.75l.9-5.63a37.27 37.27 0 0 0 .86-5.91 1 1 0 0 0-1.92-.27 37.4 37.4 0 0 0-1 5.86l-.93 5.89c-.61 3.84-1.22 7.68-1.79 11.52-1.16 7.78-2.28 15.57-3.44 23.35-.13.9 1.24 1.3 1.39.38zM232.23 600.26c.51-2.69 1.06-5.37 1.62-8 .27-1.29.55-2.58.84-3.86.15-.7.32-1.39.47-2.08a4.41 4.41 0 0 0 .2-2c-.18-.83-1.2-.77-1.62-.21a4.84 4.84 0 0 0-.61 2c-.14.7-.27 1.4-.4 2.1-.24 1.3-.47 2.61-.69 3.91-.46 2.67-.81 5.36-1.13 8.05-.08.75 1.18.92 1.32.18z" fill="#7a7058" class="fill-000000"></path><path d="M194.17 587.5c-1.68 8.71 5.89 9.75 9.72 10.78 7.21 1.94 14.64 3.32 22.1 3.06a10 10 0 0 0 5.21-1.26c1.5-1 2.64-5.12 1.84-6.74 3 1.85 5.32 2.47 7.17 4.42a8.15 8.15 0 0 1 1.95 7.46c-.49 2-1.69 4.14-.59 5.84a5 5 0 0 0 2.27 1.61 179 179 0 0 0 18.72 7.33c4.05 1.33 8.32 2.61 11.33 5.62 3.38 3.39 4.58 8.34 5.33 13.06a115.16 115.16 0 0 1 1.45 18.63c-13.48 2-26.31.89-41.5.43-30.84-.92-66.25-.16-97.1.27-2.52 0-6.11 1.27-7.37-.92-.73-1.26 0-4.26.1-5.71.28-3 .59-6 .91-8.95.37-3.34.79-6.76 2.33-9.75 1.62-3.15 4.36-5.57 7.21-7.68 8.61-6.35 25.88-12.09 35.35-17.06a12.18 12.18 0 0 0 4.15-3c2.11-2.71 1.67-6.52 2.13-9.93s4.4-7 7.29-7.51" fill="#daa520" class="fill-18c4ff"></path><path d="M193.52 587.32c-.57 2.95-.32 6 1.93 8.24 1.78 1.74 4.22 2.52 6.58 3.13a127.39 127.39 0 0 0 12.81 2.87 66.37 66.37 0 0 0 7.58.74 23.88 23.88 0 0 0 7.16-.42 5.61 5.61 0 0 0 4-3.64c.61-1.53 1.09-3.59.42-5.17l-1.5 1.15c2.26 1.39 5.11 2.29 6.94 4.27 2 2.17 2.17 5 1.31 7.65-.8 2.5-1.3 5.15 1.25 6.81a27.07 27.07 0 0 0 3.88 1.85q2.21 1 4.45 1.89 4.53 1.88 9.18 3.5c2.75 1 5.58 1.74 8.26 2.9a15.16 15.16 0 0 1 6.58 4.89 20.52 20.52 0 0 1 3 7.38 101.9 101.9 0 0 1 2.17 22l.8-1.05c-8.39 1.29-16.94 1.26-25.41 1-8.8-.26-17.58-.66-26.38-.81-17.7-.32-35.4-.17-53.1 0q-13.08.15-26.17.34l-6.38.08c-1.59 0-3.13.29-4.71.37s-2.75-.17-2.76-2c0-1.63.37-3.26.53-4.88a103.19 103.19 0 0 1 1.62-13.14 17.87 17.87 0 0 1 6.66-10.1c5.31-4.34 11.79-7.14 18-9.85s12.61-5.13 18.64-8.26a14.08 14.08 0 0 0 4.52-3.18 9.62 9.62 0 0 0 2-4.81c.29-1.83.29-3.69.5-5.53a7.68 7.68 0 0 1 2.33-4.44 8.62 8.62 0 0 1 4.16-2.51c1.48-.33.86-2.6-.62-2.28a11.64 11.64 0 0 0-7.54 6.46c-1.52 3.44-.12 7.63-2.16 10.91-1 1.69-2.95 2.6-4.67 3.48-1.37.71-2.77 1.36-4.17 2-3.34 1.52-6.73 2.93-10.11 4.38-6.57 2.81-13.37 5.57-19.32 9.59a27.5 27.5 0 0 0-8.23 7.88c-2.3 3.7-2.72 8.11-3.17 12.34q-.37 3.52-.71 7.06a45 45 0 0 0-.51 5c.08 3.58 3.1 4.21 6.1 3.87 4-.45 8.12-.34 12.17-.41l13.58-.22c18.45-.3 36.9-.5 55.35-.31q13.58.14 27.13.67c8.83.34 17.69.73 26.52 0 2.19-.17 4.37-.42 6.55-.71a1.14 1.14 0 0 0 1.1-1.1 107.23 107.23 0 0 0-1.7-20.47c-1-5.37-2.92-10.63-7.58-13.84a30.68 30.68 0 0 0-7.72-3.48c-3.06-1-6.12-2-9.14-3.15q-4.92-1.85-9.72-4c-1.11-.49-3.17-1-3.62-2.35s.58-3.22.9-4.56a9.33 9.33 0 0 0-2-8.21c-2-2.31-5.09-3.3-7.64-4.84-1-.58-1.77.53-1.4 1.4.47 1.1-.06 2.81-.49 3.84-.69 1.65-2 2.22-3.72 2.49-4.31.68-9 .13-13.33-.52-3.85-.58-7.6-1.52-11.38-2.44a19.39 19.39 0 0 1-5.59-2c-2.72-1.67-3.33-4.58-2.84-7.58.14-.84-1.12-1.21-1.29-.36z" fill="#daa520" class="fill-18c4ff"></path><path d="M314.07 656.56H109.6c-2.75 0-5.51-.07-8.27 0H101c-2.46 0-2.47 3.83 0 3.83h204.44c2.75 0 5.52.07 8.27 0h.36a1.92 1.92 0 0 0 0-3.83z" fill="#7a7058" class="fill-000000"></path><path d="M446 407c2.36 11.24 1 22.89 1.29 34.37.1 3.39.55 7.17 3.18 9.31a12.82 12.82 0 0 1 2.31 1.88 8.09 8.09 0 0 1 .73 1.4 21.27 21.27 0 0 0 22.31 11.91 9.53 9.53 0 0 1 2-.22 8.53 8.53 0 0 1 2.37.61c3.75 1.33 7.85 2.12 11.71 1.14s7.38-4 7.92-8a7.43 7.43 0 0 0 6.2-3.85 11.14 11.14 0 0 0 1.05-7.41 5.26 5.26 0 0 1-.14-1.58 5.9 5.9 0 0 1 .33-1.16 14 14 0 0 0-.26-8.55c-.85-2.77-2.19-5.36-3.27-8-3.31-8.27-6.22-27.24-7-36.11.28 7.05 2.64 24.05 2.91 31.11a1.68 1.68 0 0 1-.19 1 1.54 1.54 0 0 1-.84.5 15.39 15.39 0 0 1-8.89.22c-1.84-.51-3.71-1.37-5.57-1a19.48 19.48 0 0 1-2.06.53 8.13 8.13 0 0 1-2.08-.22c-3-.45-6 .54-8.88 1.65s-5.7 2.37-8.74 2.5-6.38-1.2-7.64-4a11.44 11.44 0 0 1-.75-3.45l-1.44-12.79a8.46 8.46 0 0 1 0-2.84 10.66 10.66 0 0 1 1.17-2.52 20.64 20.64 0 0 0 2.43-8 1.62 1.62 0 0 0-.14-1c-.31-.49-1-.51-1.59-.43a23.52 23.52 0 0 0-5.35 1.6c-1.6.61-3.35 1.38-4 3a5.89 5.89 0 0 0-.36 2.17c-.1 2.54 2.34 8.26 2.65 10.78" fill="#daa520" class="fill-18c4ff"></path><path d="M445.39 407.2c1.26 8.4 1 16.86.85 25.33a83.25 83.25 0 0 0 .17 11.82c.41 3.23 1.56 6 4.27 7.88 1.49 1 1.88 2.53 2.76 4a21 21 0 0 0 2.67 3.62 22.93 22.93 0 0 0 16.22 7.4 46.26 46.26 0 0 0 4.85-.46c1.85-.16 3.8 1 5.58 1.42 3.95 1 8.28 1.1 12-.74a10.92 10.92 0 0 0 6.1-7.79l-1.05.8c5.48-.15 8.69-5.36 8.53-10.43-.05-1.33-.54-2.69-.19-4a15.63 15.63 0 0 0 .73-4.5 23.06 23.06 0 0 0-2.14-8.42c-.94-2.24-2-4.43-2.76-6.74-.63-1.9-1.14-3.83-1.62-5.77-1.14-4.57-2-9.2-2.81-13.84s-1.5-9.38-1.9-14.11c-.1-1.19-1.92-1.23-1.88 0 .28 7.41 1.35 14.81 2.09 22.19.18 1.81.35 3.62.5 5.44.05.72.11 1.44.15 2.16 0 .3.05.6 0 .9 0 .84-.31 1-1.1 1.2a15.09 15.09 0 0 1-8.32-.31 16.24 16.24 0 0 0-3.5-.84c-1.42-.12-2.61.63-4 .61s-2.43-.38-3.69-.33a17.28 17.28 0 0 0-4.1.72c-2.57.75-5 1.95-7.55 2.75-4.4 1.38-10.24 1-11.12-4.53-.46-2.94-.67-5.95-1-8.91-.16-1.47-.33-3-.49-4.43a7.1 7.1 0 0 1 .39-4.25 27.94 27.94 0 0 0 2.87-7.04c.35-1.76 1-4.54-1.43-5a8.36 8.36 0 0 0-3.82.59 38.37 38.37 0 0 0-3.92 1.46c-2.31 1-3.86 2.49-4.1 5.08-.35 4 2.1 7.82 2.66 11.74.2 1.38 2.29.8 2.1-.58-.49-3.47-2.55-6.75-2.62-10.28a3.56 3.56 0 0 1 1-2.94 10.36 10.36 0 0 1 3.22-1.61 25 25 0 0 1 3.77-1.18c.45-.09 1.1-.34 1.28.05s-.23 1.84-.33 2.3a19.87 19.87 0 0 1-1.18 3.77c-.5 1.15-1.2 2.2-1.7 3.36-1.07 2.48-.25 5.49 0 8.08.33 2.95.65 5.9 1 8.85.26 2.23.66 4.34 2.31 6 3.3 3.26 8.3 2.85 12.34 1.48 2.61-.89 5.1-2.12 7.79-2.78a12.14 12.14 0 0 1 4-.38 10.72 10.72 0 0 0 3.87.08 6.64 6.64 0 0 1 3.67-.15c1.38.36 2.69.88 4.1 1.11a16.36 16.36 0 0 0 7.49-.44c.94-.29 1.86-.66 2.15-1.7a7.22 7.22 0 0 0 0-2.32c-.11-1.64-.26-3.28-.42-4.91-.83-8.28-2.15-16.56-2.53-24.88h-1.88a225.68 225.68 0 0 0 3.67 24.53 76.14 76.14 0 0 0 3 11.2c1.86 5 5.4 10.31 4 15.86-.17.67-.47 1.31-.58 2a6.55 6.55 0 0 0 .15 2.16 11.32 11.32 0 0 1-.13 4.49c-.72 2.86-3 5.31-6.09 5.39a1.11 1.11 0 0 0-1 .8 9 9 0 0 1-5.43 6.63c-3.35 1.5-7.23 1.08-10.66.11-1.59-.45-3.19-1.29-4.87-1.36-1.47-.06-2.95.42-4.43.48a19.72 19.72 0 0 1-8.67-1.68 20.79 20.79 0 0 1-6.91-4.9 18.88 18.88 0 0 1-2.52-3.44c-.72-1.26-1.12-2.73-2.21-3.74s-2.42-1.62-3.22-3a11.46 11.46 0 0 1-1.31-4.66 100.46 100.46 0 0 1-.18-10.84c.09-8.65.49-17.48-1.73-25.91-.21-.83-1.37-.46-1.25.34z" fill="#daa520" class="fill-18c4ff"></path><path d="M484.38 431.85a7.69 7.69 0 0 1-2.71.35h-5.78a2.61 2.61 0 0 0-1.51.31 2 2 0 0 0-.71 1 6 6 0 0 0 0 3.43 9.64 9.64 0 0 0 2.22 4.17 6.71 6.71 0 0 0 4.16 2.12A3 3 0 0 0 482 443a3.73 3.73 0 0 0 1.27-3 26.93 26.93 0 0 0-.19-5.46c-.1-.67-.1-1.55.52-1.8" fill="#7a7058" class="fill-000000"></path><path d="M484.21 431.23a16.88 16.88 0 0 1-4.32 0c-1.44 0-2.9-.13-4.35-.1-3.52.06-3.53 4.17-2.75 6.68a9.37 9.37 0 0 0 4.8 5.9 6.19 6.19 0 0 0 4 .56 3.57 3.57 0 0 0 2.46-2.61 14.33 14.33 0 0 0 .26-4.62c0-.82-.14-1.64-.25-2.45a4.28 4.28 0 0 1-.09-.87c-.09 1.52 0-.16 0-.15v-.11c-.14.12-.13.13 0 0 1.17-.56.14-2.34-1-1.74a2.46 2.46 0 0 0-1.05 2.53 33 33 0 0 1 .2 3.85 8.8 8.8 0 0 1-.39 3.23c-.34.81-1.18.86-2 .72a6.53 6.53 0 0 1-4.56-4 7.6 7.6 0 0 1-.74-3.28 2.27 2.27 0 0 1 .34-1.3c.28-.34.95-.25 1.33-.27l4.45-.16a9.68 9.68 0 0 0 4-.73c.66-.33.19-1.34-.49-1.17zM228.71 205.24a25.06 25.06 0 0 1-6.63 11.38c-3.28 3-7.9 4.72-12.25 3.81a7.38 7.38 0 0 1-1.66 9.86c-1.89 1.36-4.82 2.46-4.52 4.76-2.15-3.29-7.26-3.9-10.42-1.55s-4.17 7-2.76 10.63a12.45 12.45 0 0 0 8.73 7.25l-2.83 21.33c-1-4.46-4.08-8.13-6.65-11.93a64.2 64.2 0 0 1-8.72-19.13c-1.58 3-5.73 4.42-8.63 2.71s-3.49-6.47-.84-8.56a4.33 4.33 0 0 1-5.38-2.18 6.44 6.44 0 0 1 .57-6.12 13 13 0 0 1 4.78-4.19 4.53 4.53 0 0 1-5.93-2.71c-.65-2.38 1.55-5.13 4-4.81h-4c-.65-2.1.24-4.36 1.36-6.25a26.16 26.16 0 0 1 15.49-11.83 3.93 3.93 0 0 1-2.38-.83c3.87-5.65 11-8.2 17.79-8.91s13.71.06 20.52-.63l-13-1a3.15 3.15 0 0 1-1.55-.41c-1.45-1-.18-3.33 1.31-4.28 3.92-2.49 8.88-2.58 13.48-2a57.47 57.47 0 0 1 15.56 4.14c5-2.44 10.88-1.12 16.17.47 1.74.51 3.62 1.17 4.54 2.73s0 4.15-1.83 4a16.47 16.47 0 0 1 9.15 6.78 6.33 6.33 0 0 1 1.26 4.59c-.33 1.59-2.08 2.94-3.59 2.33a14.36 14.36 0 0 1 4.43 4.45 6.23 6.23 0 0 1 .24 6c-1.07 1.82-3.69 2.71-5.43 1.53 1.43 2 2.5 5.08.69 6.8s-4.79.47-6.82-1a46.55 46.55 0 0 1-14.92-18c1.14 2.35 2.25 5.28.71 7.39-1.65 2.27-5.26 1.84-7.63.33a12.44 12.44 0 0 1-5.32-7.33 1.35 1.35 0 0 0-.48-.87c-.29-.18-.79.1-.65.41" fill="#7a7058" class="fill-000000"></path><path d="M228 205c-2.47 7.55-8.77 16.15-17.85 14.33-.88-.18-1.81.76-1.24 1.62a6.35 6.35 0 0 1-1.15 8.2c-2 1.65-5.46 2.66-5.22 5.86l2.12-.57a8.43 8.43 0 0 0-8.17-3.43 8.83 8.83 0 0 0-7 5.66c-2.81 7.11 2.61 13.95 9.42 15.7l-.78-1q-1.39 10.67-2.82 21.33l2.07-.28c-1.36-5.55-5.38-9.83-8.29-14.6a63.77 63.77 0 0 1-7.09-16.47 1.12 1.12 0 0 0-2-.26c-1.37 2.39-4.9 3.9-7.35 2.13a4.33 4.33 0 0 1-.34-6.6c.86-.72-.06-2.36-1.13-1.93-2.74 1.08-4.77-1.72-4.38-4.26.44-2.87 2.9-4.75 5.26-6.11 1.11-.64.37-2.63-.91-2.15a3.44 3.44 0 0 1-4.39-1.6 2.75 2.75 0 0 1 2.76-3.6v-2.36h-4l1.14.87c-.6-2.28.64-4.47 1.85-6.33a24.17 24.17 0 0 1 3.76-4.45 25.08 25.08 0 0 1 10.41-5.84 1.2 1.2 0 0 0-.31-2.34 3.3 3.3 0 0 1-1.78-.67l.43 1.63c3.44-4.88 9.33-7.17 15-8.08 7.35-1.18 14.86-.15 22.25-.85a1.21 1.21 0 0 0 0-2.42l-7.69-.62-3.84-.31c-.89-.07-2.82.19-2.25-1.15.77-1.85 3.41-2.61 5.18-3a22.64 22.64 0 0 1 6.82-.41 53.65 53.65 0 0 1 14.27 3.12c.58.21 1.16.43 1.73.66a5.35 5.35 0 0 0 1.61.57 3.62 3.62 0 0 0 1.25-.45 11.75 11.75 0 0 1 1.83-.57 17.92 17.92 0 0 1 7.11 0 36.17 36.17 0 0 1 7.24 1.94c.9.37 2.08 1 2.34 2 .17.65-.07 1.77-.89 1.76a1.26 1.26 0 0 0-.33 2.47 15.56 15.56 0 0 1 7.29 4.78 8.7 8.7 0 0 1 2.15 4c.19 1.16-.48 2.92-1.93 2.45s-2.21 1.63-1 2.47c2.11 1.52 4.44 3.52 4.64 6.31.16 2.09-1.76 4.72-4 3.36-1.13-.68-2.67.72-1.88 1.88 1 1.44 2.86 5.81-.58 5.54-2.77-.21-5.39-2.84-7.34-4.6a46 46 0 0 1-10.74-14.52l-2.4 1.4c.85 1.76 2.37 5 .21 6.45-1.73 1.14-4.23.16-5.73-.91a11.16 11.16 0 0 1-4.15-5.83c-.29-.95-.62-2-1.75-2.21a1.74 1.74 0 0 0-2.06 1.73 1.31 1.31 0 0 0 2.62 0v-.22l-.38.93c-.87-.27-1.21-.18-1 .29.05.18.1.37.16.55s.22.61.34.91a15.55 15.55 0 0 0 .81 1.7 13.93 13.93 0 0 0 2.46 3.15 10.48 10.48 0 0 0 6.53 3.08 5.52 5.52 0 0 0 5.51-3.06c1.18-2.62 0-5.55-1.15-8-.77-1.61-3.16-.2-2.4 1.4a48.23 48.23 0 0 0 14.28 17.64c2.46 1.87 6.27 4.19 9.23 1.94s1.65-6.26-.08-8.79l-1.88 1.88c3.38 2 7.48-.55 8.07-4.19.74-4.47-2.59-7.83-5.93-10.18l-1 2.47a4.16 4.16 0 0 0 4.74-2.06c1.17-2 .49-4.44-.6-6.31a17.75 17.75 0 0 0-10.27-7.85l-.33 2.46c2.34 0 3.7-2.34 3.37-4.5-.38-2.58-3-3.83-5.22-4.53-5.68-1.8-12-3.14-17.65-.49l.95-.13c-6.72-2.81-14.51-4.89-21.86-4.38-3.06.21-6.87.94-9.12 3.21-2 2-2.25 5.54 1.12 6.07 2.21.35 4.5.38 6.73.56l7 .56v-2.42c-13.14 1.27-30.43-2.53-39.34 10.15a1.22 1.22 0 0 0 .43 1.63 5.56 5.56 0 0 0 3 1l-.32-2.34a27.62 27.62 0 0 0-12 7c-3.1 3.08-6.88 7.89-5.66 12.54a1.2 1.2 0 0 0 1.14.87h4a1.18 1.18 0 0 0 0-2.36 5.15 5.15 0 0 0-5.13 6.3c.84 3.05 4.52 4.6 7.39 3.53l-.91-2.15c-3.42 2-6.76 5.12-6.45 9.42.26 3.54 3.8 6.64 7.38 5.21l-1.28-1.93c-3 2.58-2.51 7.74.59 10 3.51 2.58 8.65.78 10.66-2.8l-2-.26a65.49 65.49 0 0 0 6.89 16.21c2.89 4.86 7.18 9.22 8.56 14.83.31 1.25 1.93.81 2.08-.28q1.38-10.53 2.79-21a1.08 1.08 0 0 0-.74-1.3c-5.32-1.39-9.84-6.32-8.19-12.09a6.75 6.75 0 0 1 5.13-5 6.19 6.19 0 0 1 6.25 2.31c.58.85 2.21.64 2.12-.58-.11-1.56 1.77-2.38 2.9-3.08a9.22 9.22 0 0 0 3.3-3.12 8.48 8.48 0 0 0-.21-9l-1.24 1.62a15.47 15.47 0 0 0 12.79-3.8c3.66-3.17 5.8-7.68 7.11-12.26.27-.94-1.16-1.32-1.47-.4z" fill="#7a7058" class="fill-000000"></path><path d="M259.61 215.92a12.1 12.1 0 0 1 7.17 10.15 6.66 6.66 0 0 1-.64 3.61 3.62 3.62 0 0 1-3 2 4.05 4.05 0 0 1-5.4 5.93 4.85 4.85 0 0 1-1.6 3.61q-.52-11.25-1.9-22.45" fill="#7a7058" class="fill-000000"></path><path d="M259.26 216.52a12.16 12.16 0 0 1 5.71 6.06c.86 2.15 1.78 7.67-1.79 7.92-.78.06-1.54 1-1 1.73 1.93 2.68-.86 6.13-3.81 4.32a1.2 1.2 0 0 0-1.78 1 4.12 4.12 0 0 1-1.22 2.81l1.94.8c-.62-7.49-1.07-15-1.91-22.45-.16-1.43-2.44-1.43-2.26 0a194 194 0 0 1 1.86 22.48 1.16 1.16 0 0 0 2 .81 6.15 6.15 0 0 0 2-4.42l-1.79 1a5.42 5.42 0 0 0 6.69-.82 5.35 5.35 0 0 0 .31-6.71l-1 1.73c4.69-.47 5.28-5.83 4.1-9.49a12.71 12.71 0 0 0-7.48-8.07.7.7 0 0 0-.54 1.28zM229.16 256.22a8.66 8.66 0 0 0 3.36 2.31 7.14 7.14 0 0 0 4.08.44.92.92 0 0 0 .66-1 .93.93 0 0 0-.91-.81c-.57 0-1.14 0-1.71-.06h-.31l-.41-.09a8.24 8.24 0 0 1-.85-.24 7.59 7.59 0 0 1-2.72-1.67.84.84 0 0 0-1.19 1.18z" fill="#7a7058" class="fill-000000"></path><path d="M192.89 288.21c-3.16-1.22-6.33.72-8.56 3.28a14.24 14.24 0 0 0-2.48 4.8 46.42 46.42 0 0 0-1.6 6 8.26 8.26 0 0 0-.13 3.46c.51 2.12 2.44 3.54 4.27 4.72A92.91 92.91 0 0 0 210 321.85a2.11 2.11 0 0 0 1.24.08 2.15 2.15 0 0 0 1-1.06l6.64-11.47 4.27 6.43c.9 1.34 2.18 2.86 3.77 2.57 1.33-.25 2.06-1.67 2.6-2.92l2.95-6.93c1.88 1.15 2.79 3.34 3.79 5.31s2.46 4 4.65 4.33c2.7.38 5.06-2.28 5.39-5s-.79-5.36-1.88-7.87l-4.17-9.55a11.69 11.69 0 0 0-2.57-4.15 3.92 3.92 0 0 0-4.53-.71 30.65 30.65 0 0 1-7.9 15.67c-1.68-1.16-1.13-4.11-2.79-5.29a4.36 4.36 0 0 0-1.54-.59l-29.67-7.18c.39-1 2-3.78 1.17-3.09s.61-2.08.44-2.22-.88 1.89-.66 1.88" fill="#daa520" class="fill-18c4ff"></path><path d="M193.07 287.54c-4.66-1.82-9.36 2-11.23 6.1a36.51 36.51 0 0 0-2.48 7.93c-.5 2.39-.66 4.68.87 6.73 1.4 1.87 3.56 3.09 5.52 4.29q3.62 2.22 7.43 4.1a93.36 93.36 0 0 0 15.26 5.87c1.18.34 2.57.91 3.71.15s1.86-2.62 2.56-3.83l5.16-8.91h-1.93c1.46 2.19 2.88 4.4 4.38 6.57 1 1.45 2.37 3 4.29 3s3.06-1.64 3.76-3.19c1.09-2.39 2.07-4.83 3.1-7.24l-1.53.4c1.93 1.28 2.64 3.63 3.73 5.56s2.51 3.61 4.61 4.12a5.47 5.47 0 0 0 5.4-1.95 7.91 7.91 0 0 0 1.74-6.3c-.32-2.67-1.54-5.12-2.6-7.56-1.15-2.65-2.31-5.31-3.47-8-.92-2.1-2-4.38-4.1-5.47-1.46-.75-4.58-1.18-5.2.85-.39 1.32-.59 2.69-1 4a29.31 29.31 0 0 1-1.63 3.93 30.35 30.35 0 0 1-4.92 7h1.6c-.89-.7-1-1.84-1.32-2.87a4.65 4.65 0 0 0-1.7-2.6c-1.31-.87-3.18-1-4.68-1.4l-5.5-1.33-21.3-5.16.8 1.4c.4-1 1.24-2.08 1.38-3.19a1.18 1.18 0 0 0-.79-1.35c-.56-.16-.82.14-1.28.33l.84-.11h-.05l.65.5c.28.48 0 .74.24.13.12-.28.22-.57.32-.86a2.06 2.06 0 0 0 .22-1.33 1.08 1.08 0 0 0-1-.77c-1.22.14-2.41 2.74-1.41 3.67s2.48-.56 1.49-1.48l.31.74a3.73 3.73 0 0 1 .35-1.09l-.75.31-1-.77c-.18-.5 0-.26-.2.11-.09.17-.16.38-.24.56a3.61 3.61 0 0 0-.36 1.24 1.19 1.19 0 0 0 .83 1.18 1.22 1.22 0 0 0 .63 0c.81-.2.22-.09-.15-.21l-.76-.76c-.18-.65.1-.41-.15-.07a9.44 9.44 0 0 0-.45.9c-.3.58-.59 1.15-.84 1.75a1.16 1.16 0 0 0 .8 1.41l20.34 4.92 5 1.21a48.14 48.14 0 0 1 4.91 1.2c1.22.44 1.33 1.63 1.66 2.73a5.05 5.05 0 0 0 1.57 2.7 1.15 1.15 0 0 0 1.6 0 32.13 32.13 0 0 0 8.19-16.17l-.52.67c3.77-2.06 6 5.41 6.94 7.64l2.69 6.15a17.73 17.73 0 0 1 1.87 6.17c.17 3.68-3.53 7.22-6.54 3.74-2.2-2.54-2.68-6-5.64-8a1.11 1.11 0 0 0-1.53.4l-2.31 5.41c-.44 1-1.18 3.85-2.62 3.92s-2.6-2.27-3.27-3.26l-3.47-5.22a1.13 1.13 0 0 0-1.93 0l-3.81 6.58-1.84 3.19-.86 1.48c-.43.74-1 .73-1.75.51a93.69 93.69 0 0 1-25.06-11.22c-1.62-1.05-3.41-2.39-3.6-4.46-.2-2.26.72-4.85 1.36-7a14.76 14.76 0 0 1 3.62-6.79c1.83-1.74 4.14-3 6.7-2.24.88.27 1.19-1 .37-1.35z" fill="#daa520" class="fill-18c4ff"></path><path d="M178.85 304.6c-5.58 1.95-11.18 3.89-16.76 5.85-5 1.77-10.13 3.42-15.05 5.48-4.2 1.76-8.32 4-11.44 7.37-3.46 3.76-5.1 8.57-6.27 13.45a133.68 133.68 0 0 0-3.33 19.46c-.12 1.37 2.24 1.72 2.43.33.76-5.57 1.56-11.11 2.78-16.6 1.08-4.86 2.27-10 5.42-14 2.73-3.47 6.63-5.76 10.58-7.59 4.54-2.11 9.32-3.74 14-5.52 6-2.29 12-4.62 18-6.94.79-.3.47-1.58-.36-1.29zM246.63 308.58l17.63 4c5 1.11 10 2.1 14.83 3.66 4.38 1.42 8.76 3.45 12 6.84 3.48 3.68 5.07 8.64 6.13 13.49.67 3 1.19 6.11 1.62 9.19.24 1.72.44 3.45.61 5.17a33.06 33.06 0 0 0 .6 4.87c.32 1.26 2 .85 2.12-.29.35-3-.3-6.19-.69-9.14s-.88-5.91-1.47-8.84c-1-5.09-2.49-10.28-5.68-14.47-6.22-8.16-17-9.8-26.38-11.65L247 307.27c-.85-.16-1.22 1.12-.36 1.31zM195.94 267.23c-1.64 8.12-3.16 16.23-4.42 24.41a1.25 1.25 0 1 0 2.48.36c1-8.14 2-16.28 3.25-24.39.13-.83-1.12-1.21-1.29-.36z" fill="#7a7058" class="fill-000000"></path><path d="M188.79 292.06c7.41 3.12 15.29 4.9 23.15 6.43 3.19.62 7.13.9 9.9 2.79s2.57 5.51 5.13 7.48c1 .8 2.15-.86 1.34-1.74-1.1-1.22-1.53-2.86-2.2-4.32a8.35 8.35 0 0 0-3-3.56c-2.83-1.88-6.56-2.26-9.81-2.89-8.11-1.57-16.3-2.77-24.1-5.58-.89-.32-1.22 1-.39 1.39zM228.66 303.51a11.14 11.14 0 0 0 .86-2l.84-2.12q.85-2.1 1.77-4.17c.29-.65.58-1.29.86-1.94a4 4 0 0 1 .84-1.41c.93-.84 2.14-.71 3.3-.6s1.34-1.76.25-1.91a8.08 8.08 0 0 0-4.39.2c-1.44.67-2.05 2.33-2.54 3.72q-.85 2.44-1.64 4.9c-.25.8-.5 1.6-.74 2.41a11.44 11.44 0 0 0-.66 2.62c0 .7.91.86 1.25.34z" fill="#7a7058" class="fill-000000"></path><path d="M227.35 348c.67-6.21 1.36-12.41 1.79-18.64.19-2.77.57-5.68-.36-8.36a22.25 22.25 0 0 0-4.08-6.54c-.92-1.15-2.55.48-1.63 1.62 1.54 1.9 3.16 3.91 3.83 6.3.75 2.68.29 5.74.16 8.47-.28 5.72-.65 11.44-1 17.15-.06.86 1.23.83 1.32 0z" fill="#daa520" class="fill-18c4ff"></path><path d="M202.66 538.29a2.91 2.91 0 0 0 3.55-1.46 5.58 5.58 0 0 0 .16-4.12 7.35 7.35 0 0 1-.6-3.39 7.24 7.24 0 0 1 1.67-2.74c3.28-4.31 3.05-10.23 3.13-15.64a5.14 5.14 0 0 1 .38-2.24 4.64 4.64 0 0 1 1.94-1.78c4.52-2.6 10-3 15.16-3.18q8.1-.35 16.21-.43a6.36 6.36 0 0 1 3.3.55c1.48.85 2 2.67 2.47 4.32l2.67 10.25a62.76 62.76 0 0 0-.74-15.3 19.55 19.55 0 0 0-1.88-6.14c-1.79-3.25-5.06-5.47-8.51-6.85-7.11-2.82-15.18-2.47-22.53-.37s-14.12 5.86-20.69 9.78c-5.32 3.17-10.72 6.62-14.19 11.75-5.32 7.88-5.07 18.5-1.71 27.39s9.45 16.45 15.43 23.84l1.36-8.47c-4.89-2.74-8.6-6.09-8.38-11.69.09-2.08 1.62-5.67 3.22-7 1.43-1.2 3.2-2.33 4.89-1.54a5.05 5.05 0 0 1 2.88 4.45" fill="#7a7058" class="fill-000000"></path><path d="M202.44 539.11a3.88 3.88 0 0 0 4.86-2.41 6.68 6.68 0 0 0 .19-3.86c-.31-1.5-1.14-2.82-.23-4.28.67-1.07 1.56-2 2.16-3.09a15.62 15.62 0 0 0 1.34-3.5 34.26 34.26 0 0 0 .85-7.82c0-1.31-.08-2.68.07-4 .18-1.61 1.55-2.27 2.87-2.91a25.15 25.15 0 0 1 8.4-2.11c6.24-.63 12.58-.6 18.85-.72 1.57 0 3.8-.45 5.22.35 1.16.65 1.61 2.14 2 3.33 1 3.5 1.87 7 2.95 10.53a.79.79 0 0 0 1.55-.21c.14-5.82.25-11.49-1-17.23a15.72 15.72 0 0 0-7.94-10.84c-9.46-5.19-21.14-3.75-30.8 0a103.63 103.63 0 0 0-14.78 7.55c-4.32 2.55-8.7 5.18-12.3 8.71-7.08 7-8.92 16.94-7 26.44 2.34 11.58 10 21.4 17.46 30.23a1.05 1.05 0 0 0 1.75-.46c.4-2.84.85-5.66 1.31-8.49a1 1 0 0 0-.46-1.13c-4.08-2.32-8.16-5.64-7.85-10.82a10 10 0 0 1 2.72-6.09c1.1-1 2.81-2.2 4.3-1.3a4.09 4.09 0 0 1 1.89 3.3c.06 1.34 2.16 1.35 2.1 0-.16-3.26-3.05-6.66-6.56-5.5-3.2 1.06-5.13 4.13-6.06 7.21a10.71 10.71 0 0 0 1.14 8.64c1.72 2.79 4.51 4.71 7.32 6.29l-.46-1.13c-.45 2.83-.9 5.65-1.41 8.46l1.75-.46c-6.06-7.78-12.59-15.55-15.7-25.08-2.76-8.48-2.7-18.52 2.91-25.86 2.82-3.69 6.69-6.41 10.59-8.84a140.93 140.93 0 0 1 13.36-7.47c9-4.33 19.56-7.09 29.43-4.08 5.09 1.55 9.74 4.61 11.25 10a47.09 47.09 0 0 1 1.38 8.9 46.23 46.23 0 0 1 .07 9.11l1.55-.21c-.7-3.3-1.57-6.56-2.37-9.83-.56-2.27-1.22-4.8-3.63-5.74a11.31 11.31 0 0 0-4.18-.41c-1.72 0-3.44 0-5.16.08q-5 .12-10.07.33c-5.49.24-12.1.49-16.67 4-2.19 1.67-1.88 4.23-1.91 6.71a32.7 32.7 0 0 1-.88 8.43 12.69 12.69 0 0 1-2.13 4.33 7.16 7.16 0 0 0-1.77 3.22c-.25 1.8.79 3.33 1 5.06s-.82 3.76-2.77 3.09c-1-.36-1.45 1.24-.45 1.64zM239.56 558a37.9 37.9 0 0 0-8.79-1 1.85 1.85 0 0 0-1.07.3c-1.17.91-.53 3.24 0 4.36a6.22 6.22 0 0 0 6.48 3.43c1.71-.19 2.62-1.58 2.55-3.57l-.11-3.33" fill="#7a7058" class="fill-000000"></path><path d="M239.75 557.31a33.86 33.86 0 0 0-8.59-1.37 3.74 3.74 0 0 0-1.9.36 2.66 2.66 0 0 0-1.09 1.34 5.05 5.05 0 0 0 0 3 7.11 7.11 0 0 0 3.7 4.8 8.07 8.07 0 0 0 3.05.8 5 5 0 0 0 3-.61c2.46-1.62 1.78-4.94 1.67-7.43-.06-1.29-2.05-1.31-2 0s.1 2.42.07 3.62a3.45 3.45 0 0 1-.18 1 2.28 2.28 0 0 1-.4.66 2 2 0 0 1-1.55.51 5.68 5.68 0 0 1-2.23-.39 5.27 5.27 0 0 1-1.79-1.23 4.42 4.42 0 0 1-.62-.85c-.1-.18-.19-.36-.28-.54s0-.06 0 0-.08-.21-.12-.31a7.8 7.8 0 0 1-.29-1.08 1.68 1.68 0 0 1-.05-.45 2.09 2.09 0 0 1 0-.25v-.18c0-.11.11-.41.1-.4a.46.46 0 0 1 .14-.17h.17a8.06 8.06 0 0 1 1-.06 52.56 52.56 0 0 1 8 .64c.83.1 1-1.22.19-1.43zM193.48 586.31c-.34 3.6-.09 7.37 2.76 10s6.78 3.57 10.32 4.48a62 62 0 0 0 12.71 1.89c3.7.16 7.79.33 10.88-2a15.67 15.67 0 0 0 5.42-9.62c.15-1.11-1.26-1.91-1.92-.81-1.84 3-2.52 6.9-5.84 8.83-1.86 1.08-4.09 1.06-6.18 1a57.48 57.48 0 0 1-7.3-.47 50.79 50.79 0 0 1-13.33-3.37 8.63 8.63 0 0 1-4.4-3.55c-1-1.89-1.11-4.28-1.3-6.38a.9.9 0 0 0-1.8 0zM204.65 616.6a32.8 32.8 0 0 0 17.36 2c1-.18.58-1.7-.43-1.57a33.09 33.09 0 0 1-16.58-1.8c-.86-.33-1.21 1-.38 1.37zM212 625.93a23.94 23.94 0 0 0 3.48.41 16 16 0 0 0 3.53-.19.78.78 0 0 0-.21-1.53c-1.09.1-2.16.24-3.25.24a20 20 0 0 1-3.19-.24.71.71 0 0 0-.84.48.68.68 0 0 0 .48.83zM226.71 617.37l.22.53a.76.76 0 0 0 .15.28.66.66 0 0 0 .23.21.71.71 0 0 0 .31.1.62.62 0 0 0 .33 0l.2-.08a.86.86 0 0 0 .3-.3l.08-.19a.86.86 0 0 0 0-.45l-.14-.54a.73.73 0 0 0-.16-.3.76.76 0 0 0-.56-.32.69.69 0 0 0-.35 0l-.21.09a.92.92 0 0 0-.31.31l-.09.21a.9.9 0 0 0 0 .46zM226.62 627.07a.81.81 0 0 0 0-1.62.81.81 0 0 0 0 1.62zM218.59 641.48a.77.77 0 0 0 0-1.54.77.77 0 0 0 0 1.54z" fill="#7a7058" class="fill-000000"></path><circle cx="127.24" cy="428.1" r="22.61" fill="#7a7058" class="fill-000000"></circle><circle cx="203.49" cy="428.1" fill="#ffffff" r="22.61" class="fill-ffffff"></circle><g fill="#daa520" class="fill-18c4ff"><path d="M196.85 434.18c-.42-1.56-1-3.1-1.32-4.67a2.67 2.67 0 0 1 0-1.72c.25-.48.85-.57 1.32-.68a3.53 3.53 0 0 0 2.83-2c.55-1.33.78-2.93 1.73-4.07.34-.4.91-.78 1.42-.47a4.79 4.79 0 0 1 1.23 1.65 22.67 22.67 0 0 1 2 4.13 23.71 23.71 0 0 1 1.13 4.46c.1.69.16 1.38.2 2.07s.08 1-.61 1.07c-1.59.11-2-2.37-3.83-1.45-.75.38-1.42 1-2.16 1.38-.38.21-.78.41-1.18.59a4.83 4.83 0 0 1-.52.23l-.26.08c-.28 0-.3.05 0 .17.08-.61-.57-1.12-1.13-1.13a1.15 1.15 0 0 0-1.12 1.13 1.93 1.93 0 0 0 1.41 2 4.17 4.17 0 0 0 2.94-.62 19.62 19.62 0 0 0 2.66-1.55 4.73 4.73 0 0 0 .44-.3h-.56c.11.13.23.25.35.37a5 5 0 0 0 1.14.85 3.33 3.33 0 0 0 4.54-1 4.32 4.32 0 0 0 .37-2.67 26.47 26.47 0 0 0-.51-3.17 25.59 25.59 0 0 0-2-5.69 23.66 23.66 0 0 0-1.42-2.5 6.21 6.21 0 0 0-1.84-2.07c-1.76-1.05-3.72 0-4.69 1.61a12.34 12.34 0 0 0-1.08 2.5c-.25.71-.31 1.83-1.1 2.14a10.32 10.32 0 0 0-2.4.88 3 3 0 0 0-1.22 2.37 7.55 7.55 0 0 0 .62 2.84c.45 1.21.92 2.4 1.4 3.59.33.81 1.59.52 1.35-.37zM215.49 420c-1.07 1.89-2.08 3.81-3.1 5.73h1.79l-.22-.46a1 1 0 0 0-1.81 1.06l.24.45a1 1 0 0 0 1.79 0c.92-2 1.86-3.95 2.73-5.95a.85.85 0 0 0-.3-1.12.82.82 0 0 0-1.12.29z"></path><path d="M211.43 422.49a14.14 14.14 0 0 1 1.46.36l.71.23.36.14.2.09a10 10 0 0 1 1.31.74l.31.21.17.12.58.48a1.07 1.07 0 0 0 1.51-1.51 10.23 10.23 0 0 0-6.4-2.39.79.79 0 0 0-.77.68.78.78 0 0 0 .56.85zM123.83 417a9.79 9.79 0 0 0-4.37 2.76c-1.34 1.73-1.09 3.86-.3 5.77a40.39 40.39 0 0 0 3.26 6.08 20.22 20.22 0 0 0 3.87 5 5 5 0 0 0 5.39.61 8.31 8.31 0 0 0 2.43-1.57 2.91 2.91 0 0 0 .71-2.59c-.23-1.85-.84-4-2.91-4.48a2.56 2.56 0 0 0-1.29 0c-.57.16-.91.49-1.53.25a5.34 5.34 0 0 1-2.11-2.32 5.23 5.23 0 0 1-.71-1.73s-.11-.37-.13-.32a3.7 3.7 0 0 1 .61-.38 3.94 3.94 0 0 0-1.36-7 1 1 0 0 0-.55 2 1.89 1.89 0 0 1 .86 3.26c-.42.38-1 .55-1.31 1a2.48 2.48 0 0 0-.07 2.13c.81 2.69 3.28 6.45 6.51 5.23a1.09 1.09 0 0 1 1.5.66c.3.58.73 2.1.4 2.69a4.39 4.39 0 0 1-1.94 1.3 3 3 0 0 1-2.55.07c-1.45-.71-2.42-2.45-3.28-3.74q-1.51-2.25-2.81-4.65c-.87-1.63-2.25-3.82-1.48-5.73.61-1.52 2.36-2.32 3.74-3 .75-.37.21-1.69-.58-1.37zM192.84 502.07c-8.21 1.88-14.35 9-16.28 17a19.46 19.46 0 0 0 .72 12.09 12.82 12.82 0 0 0 3.35 4.71c.83.72 2 1.27 1.91 2.51a10.29 10.29 0 0 0-.13 3.59c.69 2.73 2.73 5.24 4.22 7.59q2.58 4.08 5.19 8.16a.78.78 0 0 0 1.34-.79c-2.5-4.45-5.1-8.87-7.58-13.34a6.38 6.38 0 0 1-1.07-3.34c.06-1.12.56-2.1.2-3.23-.58-1.79-2.68-2.71-3.82-4.12-5-6.21-2.57-15.74 1.67-21.64a20.6 20.6 0 0 1 10.67-7.76.74.74 0 0 0-.39-1.42z"></path></g><g fill="#ffffff" class="fill-ffffff"><path d="M215.92 322.64c3.92-.18 7.83-.52 11.76-.62s7.86.21 11.78.15a1 1 0 0 0 0-1.92 84.45 84.45 0 0 0-12 0 91.64 91.64 0 0 0-11.71 1.06c-.77.13-.59 1.39.18 1.36zM217.51 336.08a84.61 84.61 0 0 1 23.75-1.77c1.13.08 1.13-1.69 0-1.76a80.85 80.85 0 0 0-24.11 2.24c-.84.21-.48 1.47.36 1.29zM218.76 347.53c7.21-3.76 15.87-1.12 23.51-3.22a.91.91 0 0 0-.48-1.75c-7.76 2.25-16.4-.27-23.7 3.83-.74.42-.08 1.53.67 1.14z"></path></g></svg>